<?xml version="1.0" standalone="no"?>
<!DOCTYPE svg PUBLIC "-//W3C//DTD SVG 1.1//EN" "http://www.w3.org/Graphics/SVG/1.1/DTD/svg11.dtd" >
<svg>
<metadata>
Created by FontForge 20120731 at Sun Aug 14 17:53:14 2016
 By www-data
hui
</metadata>
<defs>
<font id="MakibaFontP" horiz-adv-x="1024" vert-adv-y="1024" >
  <font-face 
    font-family="MakibaFontP"
    font-weight="400"
    font-stretch="normal"
    units-per-em="1024"
    panose-1="2 0 6 0 0 0 0 0 0 0"
    ascent="880"
    descent="-144"
    x-height="339"
    cap-height="676"
    bbox="0 -211 1028 880"
    underline-thickness="48"
    underline-position="-72"
    unicode-range="U+0020-FFEE"
  />
<missing-glyph 
d="M400 400v220h220v-220h-220z" />
    <glyph glyph-name=".notdef" 
d="M400 400v220h220v-220h-220z" />
    <glyph glyph-name="glyph1" horiz-adv-x="0" 
 />
    <glyph glyph-name="space" unicode=" " horiz-adv-x="512" 
 />
    <glyph glyph-name="exclam" unicode="!" horiz-adv-x="400" 
d="M205 76l-42 21l-17 43q6 22 16.5 43t32.5 38l37 10l38 -32l5 -64l-27 -43zM195 371q-27 43 -24.5 96.5t2.5 101.5l22 48l27 6l10 -33q-16 -42 -13 -88t3 -94l5 -27z" />
    <glyph glyph-name="quotedbl" unicode="&#x22;" horiz-adv-x="408" 
d="M230 482l-11 32l43 48l-32 11l-11 43l16 32l27 5l43 -10l10 -102l-64 -59h-21zM133 498l-21 16v22l21 32q-16 5 -26.5 18.5t-10.5 29.5l32 37h32l11 -26l16 -6l10 -53l-42 -59z" />
    <glyph glyph-name="numbersign" unicode="#" horiz-adv-x="512" 
d="M300 92l-10 32l5 22l-113 21l-16 -59l-27 -5q-10 10 -10 26.5v32.5l10 37l-16 5l-10 43l32 11v134q-22 16 -43.5 24t-26.5 35v32l32 11l22 -38l16 -5v64q-6 17 -16.5 35.5t-5.5 39.5l16 22h22q11 -43 24 -88.5t13 -93.5l129 -27v86l-5 85l16 22h21q11 -48 13.5 -104.5
t2.5 -110.5l65 -16l5 -26q-11 -11 -24.5 -11h-23.5l-22 5l-10 -134h10l43 11l11 -32l-75 -38l-27 -43zM311 199l16 156l-134 21v-150q21 -16 50.5 -21.5t62.5 -10.5z" />
    <glyph glyph-name="dollar" unicode="$" horiz-adv-x="512" 
d="M186 53l-10 32q10 16 15.5 32.5t5.5 32.5l-16 53l38 11l5 86q-32 53 -83 101.5t-62 112.5q6 22 11 43t27 38q27 16 56.5 29t66.5 13q5 11 16 16.5t27 5.5l11 -38l118 -64l5 -27l-38 -10l-101 53v-257q32 -27 45.5 -56.5t7.5 -72.5l-16 -32l-70 -27l-32 -70zM283 187v48
h-11l-5 -48h16zM229 391v193h-37l-59 -43l-6 -43l97 -113z" />
    <glyph glyph-name="percent" unicode="%" horiz-adv-x="512" 
d="M358 92q-21 11 -42.5 21.5t-32.5 32.5v53l43 65h21q27 -6 51 -8.5t40 -24.5l17 -69l-70 -65zM127 103l-21 16v21l75 65q54 96 83.5 206t72.5 212l26 5l11 -37q-48 -118 -83 -244t-126 -228zM379 151l27 43q-10 16 -26.5 16h-32.5q-16 -11 -16 -27v-32l43 -5zM122 381
q-21 6 -42.5 14t-32.5 35l-5 48l27 54q21 16 39.5 26.5t45.5 5.5l70 -38q11 -16 11 -40v-46l-49 -53zM170 435q16 11 16 27v32h-32l-32 -11l-21 11l-11 -48q16 -11 35 -13.5t40 -2.5z" />
    <glyph glyph-name="ampersand" unicode="&#x26;" horiz-adv-x="512" 
d="M315 81l-32 54l-16 5l-48 -11l-49 27q-16 16 -24 35t-2 46q5 26 23.5 47.5t29.5 48.5q-27 32 -40 67t-13 78l42 91q22 21 54 29.5t64 2.5q22 -5 40.5 -18.5t34.5 -34.5l11 -43l-32 -11l-54 59h-59l-42 -43l-11 -59q5 -43 34.5 -75t45.5 -70l-64 -43l-16 -53l27 -32h16
l32 5l21 48l27 6l11 -33l-6 -42l27 -70z" />
    <glyph glyph-name="quotesingle" unicode="'" horiz-adv-x="512" 
d="M256 463l-11 32l32 27v16l-5 11h-11l-48 -16q-22 5 -35 21t-13 38q10 21 18 40t30 24h32l21 -43l43 -27q6 -16 14 -37t2 -43l-48 -43h-21z" />
    <glyph glyph-name="parenleft" unicode="(" horiz-adv-x="400" 
d="M235 60l-43 27q-38 53 -51.5 117.5t-7.5 134.5q5 80 21 157.5t65 142.5q10 10 29 13t35 3l11 -32l-43 -16q-49 -86 -59.5 -188t-10.5 -209l48 -97l43 -10l6 -27z" />
    <glyph glyph-name="parenright" unicode=")" horiz-adv-x="400" 
d="M122 64l-21 16v21l75 54q38 75 46 161t2 177q0 37 -10.5 72t-32.5 62l-32 16l-5 27q11 10 24 10h24l38 -32q37 -75 39.5 -166t2.5 -182q-16 -49 -26.5 -97t-42.5 -91q-22 -11 -40.5 -27t-40.5 -21z" />
    <glyph glyph-name="asterisk" unicode="*" horiz-adv-x="512" 
d="M245 96q-26 21 -23.5 53.5t2.5 64.5l5 21h-10l-27 -43l-49 -10l-21 16v27q16 32 43 58.5t32 59.5l11 5v11q-27 32 -64.5 53.5t-69.5 58.5v27q11 11 27 11h32l48 -32l21 -16v53l-5 64l22 43l26 6q22 -32 24.5 -72.5t2.5 -83.5l-5 -37h21q22 21 51.5 37t61.5 16
q16 -10 16 -29v-35q-16 -11 -29.5 -21.5t-34.5 -10.5v-11l21 -11q11 -21 29.5 -34.5t13.5 -40.5l-32 -10l-107 59v-16q21 -38 21 -83.5v-88.5l-27 -54z" />
    <glyph glyph-name="plus" unicode="+" horiz-adv-x="512" 
d="M243 151q-22 32 -19 72t3 78q-43 0 -80.5 19t-75.5 35l-5 26l32 11q32 -11 59 -27t64 -16l16 172l27 5q16 -32 13.5 -75t-2.5 -80l-5 -27h91l32 11l21 -11l6 -32q-33 -22 -70.5 -19t-74.5 3l-5 -140z" />
    <glyph glyph-name="comma" unicode="," horiz-adv-x="404" 
d="M198 60l-11 32q11 11 19 24t3 35h-16l-32 -5l-11 5l-11 37l16 33l27 5l59 -27q11 -21 13.5 -42.5t2.5 -48.5l-37 -48h-22z" />
    <glyph glyph-name="hyphen" unicode="-" horiz-adv-x="512" 
d="M247 333l-129 38l-5 26l42 11q54 -21 118.5 -24t128.5 -8l5 -27q-32 -21 -74.5 -18.5t-85.5 2.5z" />
    <glyph glyph-name="period" unicode="." horiz-adv-x="404" 
d="M190 84l-37 32v54l10 21l48 11l27 -11l16 -21l16 -6l6 -37q-16 -16 -37.5 -32t-48.5 -11z" />
    <glyph glyph-name="slash" unicode="/" horiz-adv-x="400" 
d="M58 53l-11 38q76 144 145.5 291.5t133.5 303.5l27 5l11 -37q-65 -151 -134.5 -301t-144.5 -295z" />
    <glyph glyph-name="zero" unicode="0" horiz-adv-x="512" 
d="M212 64q-32 16 -51 45.5t-35 61.5q-5 37 -13 75t-3 80q16 75 40 145t67 129q16 16 35 21.5t40 -0.5l27 -21q32 -64 64.5 -128.5t15.5 -145.5q-16 -59 -34.5 -120.5t-66.5 -109.5q-16 -16 -37.5 -27t-48.5 -5zM244 117l64 65q22 59 35.5 115t7.5 126q0 43 -34.5 75
t-51.5 70h-10q-54 -70 -75.5 -150.5t-21.5 -171.5q11 -32 19 -67t40 -62l22 -5z" />
    <glyph glyph-name="one" unicode="1" horiz-adv-x="400" 
d="M164 75l-11 5q-11 32 -13.5 69.5t-2.5 75.5q5 86 18.5 169t24.5 168l-21 6l-6 27l48 43h22l21 -54q-32 -102 -45.5 -214.5t-13.5 -230.5l16 -43l-16 -21h-21z" />
    <glyph glyph-name="two" unicode="2" horiz-adv-x="512" 
d="M382 60q-43 27 -91 40t-102 8l-48 -27l-21 11l-11 32l37 32l22 6q59 85 120.5 173.5t61.5 201.5l-16 27q-16 16 -37.5 18.5t-42.5 2.5l-92 -48l-16 -43l6 -16l27 -5l5 -27l-38 -16q-16 5 -26.5 21t-21.5 32v22l43 80q38 16 72.5 32t77.5 16q27 -5 48.5 -15.5t37.5 -27.5
q16 -26 21.5 -58.5t-0.5 -69.5q-32 -81 -77.5 -156t-88.5 -150q54 0 99.5 -24t93.5 -35l6 -27q-11 -10 -24.5 -10h-24.5z" />
    <glyph glyph-name="three" unicode="3" horiz-adv-x="512" 
d="M188 57l-59 27l-6 27l22 26h21l16 -26l38 -6l69 48q27 33 35 70.5t3 80.5l-38 42h-21l-43 -16l-21 16v27q43 16 77.5 43t66.5 64q16 17 21.5 41t0.5 51l-38 37h-75l-21 -5l-6 -32l-26 -6l-27 22v26l5 11q32 22 75 30t86 2q27 -10 45.5 -31.5t29.5 -48.5v-70
q-16 -37 -43 -66.5t-48 -61.5q37 -27 45.5 -64.5t2.5 -80.5q-5 -38 -21 -70t-43 -59q-27 -21 -56.5 -34.5t-66.5 -13.5z" />
    <glyph glyph-name="four" unicode="4" horiz-adv-x="512" 
d="M239 61q-22 22 -19 54t3 59l5 107q-38 11 -70 21.5t-59 37.5q-10 27 -21 53.5t-5 58.5l37 145l27 6l11 -43l-27 -156l21 -37q22 -16 48.5 -24t53.5 -14q22 81 38 166.5t59 155.5l26 5l11 -32q-37 -70 -53.5 -147.5t-32.5 -152.5l161 -11l6 -27q-22 -16 -54 -16h-64l-65 6
l-5 -167l5 -26l-16 -22h-21z" />
    <glyph glyph-name="five" unicode="5" horiz-adv-x="512" 
d="M215 57l-27 27v16l16 21l43 6q37 64 72 133.5t35 150.5l-16 21h-59q-27 -11 -51 -27t-46 -42l-37 -76l-27 -5q-21 27 -18.5 59t2.5 64l5 6v214l16 22q70 21 145 15.5t150 5.5l16 -37q-64 -22 -139 -16.5t-139 -10.5v-188h10q38 32 78 51t94 13l43 -21q11 -21 19 -42.5
t2 -48.5q-21 -81 -56 -153t-83 -142z" />
    <glyph glyph-name="six" unicode="6" horiz-adv-x="512" 
d="M248 52q-21 5 -37 18.5t-33 29.5q-32 48 -37 101.5t-22 107.5q22 97 54 185t97 169l37 11l11 -33q-64 -64 -96.5 -144.5t-37.5 -171.5q59 0 112.5 -8t96.5 -35q16 -16 21.5 -37.5t-0.5 -48.5q-10 -32 -31.5 -58.5t-48.5 -53.5q-22 -11 -40.5 -24.5t-45.5 -7.5zM296 116
q27 27 51 56.5t19 66.5q-37 27 -85.5 32.5t-96.5 5.5v-81q11 -26 21.5 -50.5t37.5 -40.5l27 -5z" />
    <glyph glyph-name="seven" unicode="7" horiz-adv-x="512" 
d="M296 68l-16 42q5 124 26.5 239t48.5 228h-193l-16 -5l-5 -129l16 -38l-38 -10q-27 21 -27 58.5v69.5l27 172l27 5l21 -16v-21l-16 -38h268l17 -37l-27 -11q-38 -118 -56.5 -246.5t-29.5 -257.5z" />
    <glyph glyph-name="eight" unicode="8" horiz-adv-x="512" 
d="M198 49q-21 5 -37 24t-11 46q6 48 22 96t32 91q-48 49 -77.5 102.5t-19.5 122.5q16 43 53.5 72.5t75.5 45.5q21 6 45.5 14t50.5 2l59 -37q22 -27 27.5 -59t-0.5 -70q-16 -37 -40 -72t-62 -67l-37 -38q37 -21 37 -58.5v-75.5q-10 -32 -23.5 -64t-45.5 -59zM215 103
q37 26 48 69t5 91l-27 16q-16 -42 -29.5 -88t-13.5 -94h11zM241 365q38 27 73 62t56 72v75l-38 43h-53q-32 -11 -61.5 -29.5t-51.5 -45.5q-10 -16 -10 -43v-48l64 -91h16z" />
    <glyph glyph-name="nine" unicode="9" horiz-adv-x="512" 
d="M292 44q-16 16 -18.5 37.5t-2.5 42.5q5 70 18.5 137t34.5 126h-16q-27 -11 -51 -13.5t-56 -2.5l-97 48q-16 16 -16 40v51q22 48 62 93.5t94 67.5l53 5l70 -37q27 -43 43 -88.5t32 -94.5q-27 -16 -45.5 -37.5t-29.5 -47.5q-27 -65 -35 -134.5t-13 -139.5l16 -37zM367 462
q11 11 11 24v29l-54 97q-10 11 -26.5 13.5t-32.5 2.5q-27 -11 -48 -29.5t-43 -40.5q-16 -21 -29.5 -45t-7.5 -57q26 -26 55.5 -34t67.5 -3z" />
    <glyph glyph-name="colon" unicode=":" horiz-adv-x="404" 
d="M195 131q-16 5 -27 16t-16 27v32q5 16 13 32t30 21h21l38 -26v-59l-38 -38zM179 431l-22 11l-10 32l21 54l48 5l32 -27v-32l-48 -43h-21z" />
    <glyph glyph-name="semicolon" unicode=";" horiz-adv-x="400" 
d="M211 82l-22 16v22l43 59l-5 16h-22l-21 -5l-38 32v27l27 42h38q32 -32 53.5 -66.5t15.5 -83.5zM173 468q-16 6 -26.5 16.5t-16.5 26.5v16l27 38h59l22 -16v-43l-27 -27z" />
    <glyph glyph-name="less" unicode="&#x3c;" horiz-adv-x="512" 
d="M327 87l-21 10l-145 215q-16 5 -19 18.5t-3 29.5q54 64 105 134t94 139h21l11 -32q-32 -69 -83 -131t-83 -131q32 -59 75 -118t75 -118z" />
    <glyph glyph-name="equal" unicode="=" horiz-adv-x="512" 
d="M303 222q-38 5 -70 10.5t-64 21.5l-6 27l38 11q32 -16 67 -16t72 -6l27 6l11 -38q-16 -16 -35 -16h-40zM222 420q-32 6 -61.5 8.5t-50.5 24.5l-6 26l33 11q59 -21 123 -21t129 -6l5 -27q-38 -21 -83.5 -18.5t-88.5 2.5z" />
    <glyph glyph-name="greater" unicode="&#x3e;" horiz-adv-x="512" 
d="M153 88l-11 32l177 236q-43 59 -102 110t-91 115v22l16 21l14 -12q18 -31 50.5 -68.5t69.5 -69.5l108 -107v-22l-204 -252z" />
    <glyph glyph-name="question" unicode="?" horiz-adv-x="512" 
d="M237 77l-26 27v32l16 22h53q11 -6 13.5 -19.5t2.5 -23.5l-37 -32zM232 227l-16 49q32 26 72 31.5t67 37.5q22 27 22 64.5v75.5q-16 32 -45.5 56t-56.5 40q-27 11 -51 16.5t-56 -0.5l-49 -21l-10 -22l-27 -5l-11 32l16 32q32 16 67 27t73 5q43 -16 85.5 -34.5t80.5 -61.5
q27 -32 29.5 -75t2.5 -86l-48 -91q-27 -16 -54 -27t-59 -11l-5 -26z" />
    <glyph glyph-name="at" unicode="@" horiz-adv-x="512" 
d="M228 80q-32 16 -61.5 29.5t-51.5 45.5q-42 53 -55.5 123t-8.5 145q5 37 16 72t43 62t67 37.5t78 5.5q32 0 64 -11t54 -37q48 -43 64 -99.5t5 -126.5q-16 -53 -29 -104t-56 -94q-27 -21 -59 -37.5t-70 -10.5zM298 144l64 64v27l-54 22l-16 37h-10q-11 -10 -30 -13t-35 -3
l-59 27l-16 59q6 21 11 42.5t27 37.5q21 11 45 24.5t57 8.5l42 -22q11 -11 19 -24t3 -30l-11 -96l6 -16l37 -5q5 37 13.5 74.5t2.5 80.5l-86 107l-118 6l-64 -49q-21 -37 -24 -80t-3 -91q0 -54 24.5 -99.5t66.5 -82.5q17 -11 38 -19t43 -3zM244 326q22 22 38 40.5t10 51.5
q-10 10 -23.5 10h-24.5l-48 -37l-6 -38l27 -27l22 -5z" />
    <glyph glyph-name="A" unicode="A" horiz-adv-x="512" 
d="M77 85l-11 38q53 118 88 246.5t78 251.5l27 6q43 -129 99 -255t83 -260l-32 -11q-16 22 -24 46t-14 51h-64l-32 -6l-123 33l-49 -134zM355 246v11l-107 263h-11q-10 -65 -29 -124t-30 -123q27 -16 59.5 -24t64.5 -8z" />
    <glyph glyph-name="B" unicode="B" horiz-adv-x="512" 
d="M247 61l-129 32l-27 -5q-16 16 -16 35v40q22 102 38 201t10 212l-5 27l32 10q11 -16 24.5 -16h29.5l70 6q32 -11 61.5 -35t56.5 -51q26 -32 34 -72.5t3 -83.5q-11 -26 -24 -53t-40 -49l-27 -10v-11q27 -16 27 -45.5v-61.5q-11 -16 -24.5 -35t-34.5 -24zM295 120
q21 11 21 29.5v40.5q-32 43 -83 43h-99l-11 -91l145 -33zM333 297q37 27 45 67t3 83q-22 32 -48.5 59t-58.5 48h-65l-37 -5q5 -64 -3 -128.5t-19 -123.5q38 5 70 -3t64 -13z" />
    <glyph glyph-name="C" unicode="C" horiz-adv-x="512" 
d="M232 91l-70 32q-48 53 -75 115t-21 137q5 53 18.5 99t40.5 88q37 43 88 51t110 3l107 -59l11 -37l-32 -11q-38 48 -88.5 56t-109.5 3l-65 -59q-16 -48 -24 -99t-8 -105q11 -43 35 -83t62 -72l37 -11q27 11 45.5 37.5t51.5 26.5l10 -32l-53 -59z" />
    <glyph glyph-name="D" unicode="D" horiz-adv-x="512" 
d="M196 72l-113 48l-5 32l27 16l32 97v252l-5 123l32 11l10 -22l27 -10q49 -54 113 -99.5t96 -110.5q16 -42 19 -90.5t3 -96.5l-54 -86q-37 -32 -82.5 -51t-99.5 -13zM314 147l70 75v107q-6 38 -19.5 67.5t-45.5 55.5l-139 108v-38l5 -5v-252l-37 -129q26 -5 50.5 -13
t51.5 -3z" />
    <glyph glyph-name="E" unicode="E" horiz-adv-x="512" 
d="M358 72q-48 5 -93.5 21t-88.5 27l-11 -32l-27 -6q-16 27 -13 59t3 65l5 193q-5 48 -10.5 93.5t-16.5 88.5l-48 32v21l32 11q64 -32 139.5 -40t150.5 -8l26 5l11 -32q-11 -16 -27 -18.5t-37 -2.5q-48 5 -96.5 5t-91.5 16v-70q11 -32 11 -69.5t5 -74.5q49 -27 102.5 -48.5
t106.5 -32.5l6 -27q-11 -10 -24.5 -10h-24.5q-42 5 -82.5 26.5t-83.5 26.5l-5 -112q59 -32 126 -48.5t137 -16.5l5 -26q-16 -16 -40 -16h-46z" />
    <glyph glyph-name="F" unicode="F" horiz-adv-x="512" 
d="M126 74l-16 38q22 64 22 136.5v142.5q-6 48 -14 96.5t-24 96.5l-32 10l-5 27q10 11 23.5 11h29.5q75 -32 158 -37.5t169 -10.5l6 -27q-27 -21 -59.5 -18.5t-64.5 2.5q-43 5 -85.5 10.5t-85.5 16.5v-16q26 -70 29 -148t3 -158q37 -11 80 -11t86 -5l5 -27
q-26 -21 -63.5 -18.5t-70.5 2.5l-37 11l-27 -118z" />
    <glyph glyph-name="G" unicode="G" horiz-adv-x="512" 
d="M379 61q-21 22 -21 48.5v53.5h-11q-21 -27 -48 -45.5t-54 -34.5l-26 -6q-33 11 -59.5 24.5t-53.5 40.5q-16 32 -26.5 72t-16.5 78q6 91 43.5 163.5t90.5 141.5q43 27 94 40.5t110 7.5l43 -26l5 -38l-32 -11l-21 27h-97l-64 -32q-54 -64 -89 -136.5t-35 -158.5
q11 -27 16.5 -56.5t26.5 -50.5q16 -16 37.5 -24t48.5 -8q27 21 51 42.5t35 48.5q-27 5 -48.5 21t-42.5 38l-11 37l32 11q38 -43 86 -64.5t96 -37.5l6 -32l-38 -32v-64l6 -27zM369 184v16h-11v-16l5 -5z" />
    <glyph glyph-name="H" unicode="H" horiz-adv-x="512" 
d="M82 65q-16 22 -13.5 51.5t2.5 55.5l11 27v231q0 53 -11 104t-27 99l33 11q42 -64 47.5 -144.5t5.5 -160.5q38 -16 80.5 -24.5t85.5 -13.5l113 22v80l-5 80l16 22h21q16 -70 16 -147.5v-152.5l-11 -113l-26 -5q-22 21 -19 53t3 59l5 75h-16l-123 -21l-140 32
q0 -59 -5.5 -110t-15.5 -104z" />
    <glyph glyph-name="I" unicode="I" horiz-adv-x="404" 
d="M168 44l-43 16l-5 32l43 11l5 203l-5 204l5 86l-54 48v22l32 10q33 -32 73 -53.5t88 -26.5l6 -27l-49 -16l-48 16l-5 -257l5 -134l-5 -81l69 -5l6 -27q-22 -21 -56.5 -18.5t-61.5 -2.5z" />
    <glyph glyph-name="J" unicode="J" horiz-adv-x="484" 
d="M98 65l-27 38l16 37l27 6l11 -22h11q32 11 56 37.5t40 59.5q27 80 27 171t5 177q-48 0 -93.5 2.5t-83.5 18.5l-5 27l43 11q37 -11 83 -11h88l92 22l10 -38q-16 -16 -37.5 -16t-42.5 -5q-6 -129 -14 -255t-99 -217z" />
    <glyph glyph-name="K" unicode="K" horiz-adv-x="512" 
d="M86 68l-11 32l16 112l-5 27l5 6v316l-16 86l32 10q16 -21 21.5 -45t11.5 -51v-268h16q80 59 147 131.5t121 152.5l10 27l27 5l11 -32q-38 -86 -113 -158.5t-101 -163.5q21 -37 50.5 -72t66.5 -62l17 -5l5 -32l-32 -11q-54 27 -91.5 75t-64.5 102v16h-10l-54 -38
q-5 -37 -8 -80t-24 -75z" />
    <glyph glyph-name="L" unicode="L" horiz-adv-x="480" 
d="M228 69l-150 43l-5 32q26 54 34 118t3 134q-5 59 -10.5 118t-21.5 113l32 10q38 -85 43 -181.5t5 -193.5l-32 -123q54 -6 102 -16.5t107 -5.5l54 11l11 -32q-38 -22 -81 -24.5t-91 -2.5z" />
    <glyph glyph-name="M" unicode="M" horiz-adv-x="592" 
d="M493 81q-16 32 -21.5 67t-15.5 73v257h-11q-38 -54 -67.5 -113t-61.5 -118l-37 -5l-11 5q-16 86 -43 164t-70 153h-10q10 -124 -8.5 -239t-34.5 -228l-27 -5l-11 37q0 59 8 115.5t24 110.5v257l27 37h22l42 -42q33 -70 62.5 -137t50.5 -142h11q32 80 80 152.5t81 152.5
l26 6q17 -22 14 -51.5t-3 -55.5l-5 -6v-305l21 -129z" />
    <glyph glyph-name="N" unicode="N" horiz-adv-x="580" 
d="M92 54l-16 38q11 134 19 270.5t8 276.5l-5 27l32 10q11 -155 88.5 -289t163.5 -263l16 -5q5 123 26.5 238.5t48.5 227.5l27 5l11 -42q-27 -118 -46 -236t-35 -242l-32 -10q-80 43 -120.5 120.5t-77.5 152.5l-43 91h-16q-6 -91 -6 -184.5t-16 -179.5z" />
    <glyph glyph-name="O" unicode="O" horiz-adv-x="512" 
d="M229 74q-27 6 -53.5 14t-48.5 35q-32 48 -45.5 107t-13.5 123q11 59 35 115.5t62 104.5q32 27 64 51t81 13l37 -53q32 -22 53.5 -54t37.5 -64q16 -43 16 -91.5v-96.5q-10 -43 -31.5 -80.5t-59.5 -69.5q-32 -21 -61.5 -42.5t-72.5 -11.5zM277 128q33 16 59.5 43t53.5 59
q16 37 16 83v94q-5 37 -29.5 69.5t-50.5 64.5l-70 43q-43 -27 -70 -64.5t-48 -80.5q-11 -32 -16 -64.5t-5 -64.5q5 -48 15.5 -93.5t48.5 -77.5l91 -16z" />
    <glyph glyph-name="P" unicode="P" horiz-adv-x="512" 
d="M54 49l-11 38q16 37 27 80t11 86l-6 27l16 16v278l-5 65l16 21l123 6q54 -27 107.5 -48.5t96.5 -69.5q32 -49 37.5 -108t0.5 -118l-86 -112l-91 -16q-43 5 -83.5 10.5t-77.5 21.5l-48 -172zM354 253q54 37 62 88t2 110q-5 27 -18.5 51t-40.5 46q-48 26 -99 53t-115 16
l-11 -37l5 -6v-300q43 -21 91.5 -24t96.5 -8z" />
    <glyph glyph-name="Q" unicode="Q" horiz-adv-x="576" 
d="M469 18q-32 5 -59 24t-53 35q-38 -21 -75.5 -32t-85.5 -6q-22 6 -40.5 14t-34.5 29q-27 38 -40.5 86t-13.5 97q11 107 43 201t107 174l16 5v11l-5 27l32 11l64 -27l11 -22q43 -21 67 -64t46 -80q21 -54 32 -113t5 -123l-75 -161q22 -22 46 -30t51 -13l5 -27zM330 109v11
q-11 21 -24.5 42.5t-7.5 48.5l32 11l32 -65l16 -5q38 48 51 107t8 124q-11 59 -37.5 109.5t-69.5 99.5l-54 32l-96 -107q-33 -70 -49 -142.5t-16 -152.5q11 -32 19 -67t40 -57q22 -10 46 -10h51z" />
    <glyph glyph-name="R" unicode="R" horiz-adv-x="564" 
d="M401 48l-124 118h-21l-27 -6l-91 38l-38 -118l-26 -6l-16 33q32 96 53.5 198t15.5 214l-16 134l32 11q86 0 161 -18.5t134 -77.5q38 -43 46 -99.5t2 -120.5q-10 -43 -31.5 -78t-59.5 -67l-53 -37l91 -81l5 -27zM363 241q59 42 70 101t5 124q-11 27 -24 51t-40 45
q-48 27 -99 40.5t-110 7.5v-21l10 -214l-26 -108l16 -26l86 -33q26 11 58.5 11t53.5 22z" />
    <glyph glyph-name="S" unicode="S" horiz-adv-x="512" 
d="M271 52q-32 16 -56.5 37.5t-40.5 53.5v21l32 11l65 -70h37l43 38v27q-80 42 -142 104t-99 142q-11 27 -19 51t-3 56l43 75q49 49 113 59.5t139 5.5l43 -22l11 -43l-32 -10l-22 26h-128l-92 -53q-21 -16 -26.5 -40t0.5 -51q21 -49 56 -97t72 -91q33 -16 62 -32t56 -43
l16 -75q-10 -21 -31.5 -40t-43.5 -30z" />
    <glyph glyph-name="T" unicode="T" horiz-adv-x="588" 
d="M285 59l-16 22v241l-5 6v219l-5 27q-49 6 -97 11t-91 32l-5 27l32 11q85 -27 179 -38t196 -5l38 10l10 -37q-43 -27 -99 -24.5t-110 2.5v-230l6 -5v-258z" />
    <glyph glyph-name="U" unicode="U" horiz-adv-x="492" 
d="M229 76l-96 48q-48 80 -53.5 182t-5.5 204q5 27 2.5 59t18.5 54l27 5l11 -32l-11 -263q5 -48 13.5 -93.5t34.5 -83.5q16 -16 35 -21.5t40 -10.5l38 22q59 85 72.5 192.5t29.5 214.5l27 5q16 -16 13 -34.5t-3 -40.5q-10 -102 -29 -198.5t-78 -176.5q-21 -11 -40 -21.5
t-46 -10.5z" />
    <glyph glyph-name="V" unicode="V" horiz-adv-x="512" 
d="M241 60l-21 10q-38 129 -70 263t-64 263l16 21h21q32 -118 67 -236t51 -246h16q70 107 115.5 222.5t77.5 232.5l27 6q11 -11 11 -24.5v-23.5q-38 -129 -91.5 -247t-128.5 -231z" />
    <glyph glyph-name="W" unicode="W" horiz-adv-x="552" 
d="M130 83l-11 5q-5 123 -21 241t-27 236l32 11q16 -91 35 -177t13 -182h11q22 80 43 160.5t59 150.5l32 5q16 -91 24 -185t35 -180h11q21 70 45.5 137t40.5 142l37 11l11 -32q-27 -86 -56.5 -172t-61.5 -166l-27 -5l-11 5q-37 70 -53 145t-22 155h-16q-10 -80 -37 -155
t-59 -145z" />
    <glyph glyph-name="X" unicode="X" horiz-adv-x="512" 
d="M306 88l-11 5l-59 91l-86 -91h-21l-11 32l96 118q-37 92 -82.5 177.5t-61.5 187.5l16 21h21q16 -96 59 -176.5t75 -171.5h11q59 64 99 139t78 150l27 6l10 -32q-42 -81 -88 -164t-99 -158l59 -123z" />
    <glyph glyph-name="Y" unicode="Y" horiz-adv-x="596" 
d="M268 30q-43 150 -115.5 289.5t-93.5 300.5l16 21h21q27 -118 64.5 -230.5t107.5 -214.5h11l16 6q64 91 120.5 184.5t83.5 201.5l26 5q16 -11 13.5 -29.5t-2.5 -34.5q-43 -91 -91 -182.5t-118 -176.5l-27 -22l-5 -113z" />
    <glyph glyph-name="Z" unicode="Z" horiz-adv-x="512" 
d="M267 73l-140 49l-10 26q69 97 136 193.5t110 203.5q-69 5 -139 16t-129 43l-5 27l32 11q70 -33 147.5 -41t152.5 -18l6 -33q-54 -101 -115.5 -203t-136.5 -199q37 -5 69 -18.5t75 -7.5l75 21l11 -32q-32 -22 -67 -30t-72 -8z" />
    <glyph glyph-name="bracketleft" unicode="[" horiz-adv-x="400" 
d="M149 28l-27 26l-5 118l11 199q-6 64 -14 125.5t-29 120.5l16 22l123 5l102 -11l5 -26q-21 -17 -48 -17h-54l-85 6v-22q21 -75 26.5 -160.5t5.5 -171.5l-11 -107l5 -48l108 -6l48 16l11 -32q-16 -16 -35 -24t-46 -8l-75 5z" />
    <glyph glyph-name="backslash" unicode="\" horiz-adv-x="560" 
d="M259 57l-22 43q-32 11 -61.5 19t-50.5 29v22l32 10q16 -10 37.5 -18t42.5 -8v53l-5 16h-75.5t-69.5 22l-5 26l32 11q21 -16 53.5 -13.5t58.5 2.5v22q-48 75 -99 147.5t-61 157.5l32 11q21 -75 66.5 -139.5t88.5 -133.5h11q70 48 123.5 115t107.5 131h21l11 -32
q-38 -59 -89 -115t-99 -110l-54 -32l-5 -32h75l32 16l16 21h22l11 -37l-11 -22q-32 -16 -67 -24t-73 -3v-53h49q26 5 53 18.5t54 18.5l11 -32q-33 -32 -73 -42.5t-88 -10.5l-6 -49z" />
    <glyph glyph-name="bracketright" unicode="]" horiz-adv-x="408" 
d="M267 87l-161 16l-5 26l5 11l32 6l124 -6l10 182v226l6 26q-49 0 -99.5 3t-93.5 19l-6 32l43 11q38 -11 78 -13.5t83 -2.5l38 10q10 -10 10 -23.5v-24.5l-10 -37v-226l-17 -225z" />
    <glyph glyph-name="asciicircum" unicode="^" horiz-adv-x="408" 
d="M315 596l-10 5l-22 27q-27 11 -56.5 16t-61.5 0l-86 -32l-10 32q37 22 77.5 38t88.5 10l96 -43l16 -42z" />
    <glyph glyph-name="underscore" unicode="_" horiz-adv-x="464" 
d="M42 -78l-22 16v21l33 16h343l37 -10l6 -27l-49 -16l-5 5h-332z" />
    <glyph glyph-name="grave" unicode="`" horiz-adv-x="404" 
d="M255 592l-97 48l-21 59l32 11q11 -21 29.5 -37.5t40.5 -26.5l42 -11l6 -27z" />
    <glyph glyph-name="a" unicode="a" horiz-adv-x="480" 
d="M363 75l-43 26l-16 27h-10q-33 -21 -75.5 -24t-85.5 -3l-38 22q-16 16 -21.5 37.5t0.5 48.5l37 85q38 38 83.5 70t104.5 16l37 -27q22 -32 19 -72t-3 -78l-10 -53l21 -27l48 -6l6 -26q-11 -11 -24.5 -13.5t-29.5 -2.5zM256 160q43 27 45.5 70t2.5 86q-16 16 -34.5 16
h-40.5l-96 -91l-11 -75q11 -16 32.5 -16h42.5z" />
    <glyph glyph-name="b" unicode="b" horiz-adv-x="456" 
d="M220 95l-102 32l-16 -27h-21l-16 43q37 91 42.5 193t16.5 204l27 5q10 -43 10 -96.5v-101.5h6q16 16 37.5 24t47.5 2l70 -21q27 -38 37.5 -83.5t5.5 -93.5q-11 -21 -29.5 -40t-40.5 -30zM285 154q26 16 31.5 40t0.5 51q-6 16 -11 34.5t-21 34.5l-65 11q-21 -11 -29 -32
t-24 -38l-27 -75q21 -16 48 -24t54 -13z" />
    <glyph glyph-name="c" unicode="c" horiz-adv-x="488" 
d="M211 119q-33 5 -86 29t-22 35q-21 27 -29 56.5t-3 66.5l70 75q32 27 72 24.5t83 -2.5q32 -16 61.5 -32t51.5 -43l11 -48l-33 -11q-16 27 -40 51t-56 35h-97l-75 -59v-49q11 -26 38 -45t54 -35h21l80 21l11 -32q-27 -16 -53.5 -26.5t-58.5 -10.5z" />
    <glyph glyph-name="d" unicode="d" horiz-adv-x="536" 
d="M194 70l-91 54q-21 22 -29 51t-3 62l38 64q32 32 72 37.5t83 0.5l64 -22q0 75 11 150t38 140l26 5q11 -11 11 -24.5v-23.5q-32 -86 -34.5 -182.5t-13.5 -193.5l16 -37q16 -11 29.5 -21.5t34.5 -5.5l27 5l11 -32q-11 -16 -27 -18.5t-38 -2.5l-53 21l-11 -16h-21l-38 11
q-21 -11 -48 -19t-54 -3zM296 140q22 27 24.5 62t2.5 67q-32 11 -69.5 19t-80.5 2q-16 -10 -32 -21t-22 -32v-54l54 -54l70 -10z" />
    <glyph glyph-name="e" unicode="e" horiz-adv-x="460" 
d="M231 119l-97 48q-26 32 -42.5 72.5t-16.5 88.5l-16 5l-5 27l32 11q6 26 14 55.5t34 51.5q22 16 49 18.5t59 2.5q26 -16 58.5 -24t59.5 -35q10 -32 10 -69.5v-74.5q-26 -22 -61 -19t-67 3l-113 32v-43l43 -70q16 -11 35 -21.5t40 -10.5l86 32l11 -32q-22 -21 -51.5 -32
t-61.5 -16zM322 328v80q-32 27 -67 37.5t-78 5.5q-21 -16 -32 -40t-11 -51q43 -11 88.5 -24.5t99.5 -7.5z" />
    <glyph glyph-name="f" unicode="f" horiz-adv-x="464" 
d="M183 76q-17 27 -19.5 61.5t-2.5 72.5l5 21l-96 11l-5 27q10 16 29 16h40l38 -5l5 37v247l27 48q27 21 64.5 24t74.5 3q16 -11 16 -24.5v-29.5l-32 -11q-10 16 -31.5 16h-37.5l-33 -26v-247l-10 -54l96 -26l27 5l11 -32l-49 -22l-91 27v-75l6 -53z" />
    <glyph glyph-name="g" unicode="g" horiz-adv-x="472" 
d="M199 1l-54 27q-11 16 -13.5 32t-2.5 37l37 75q-26 16 -55.5 32.5t-40.5 48.5v43q11 32 40.5 58.5t61.5 48.5q32 11 64 16t70 0l37 -11l49 22l10 -33l-69 -48v-21q10 -22 10 -46v-51l-21 -43l-27 -32q16 -16 24 -37.5t3 -48.5l-32 -48q-22 -11 -43.5 -16t-47.5 -5zM258 60
q10 5 13 18.5t3 24.5l-33 26l-10 -26l-27 -6l-22 6l-5 -38q11 -11 24.5 -13.5t29.5 -2.5zM268 210l27 21v75l-11 38l-26 11l-6 16h-21q-32 -6 -56.5 -24.5t-45.5 -40.5l-11 -43q11 -16 24.5 -24t29.5 -18l91 -17z" />
    <glyph glyph-name="h" unicode="h" horiz-adv-x="400" 
d="M259 83l-32 37v27l5 32l-42 16l-81 -86h-21q-22 33 -19 73t3 77q10 81 15.5 166.5t16.5 171.5l27 6q10 -43 10 -91.5v-96.5l-21 -204h11q21 16 42.5 27t48.5 5l43 -21l16 -70l-6 -21l33 -11l5 -27q-11 -10 -24.5 -10h-29.5z" />
    <glyph glyph-name="i" unicode="i" horiz-adv-x="400" 
d="M168 53l-11 43q22 43 24.5 94t2.5 104l-5 16l16 22h21q16 -22 16 -51.5v-61.5q0 -43 -8 -83t-29 -78zM200 401l-37 33v43l21 32h32l27 -81z" />
    <glyph glyph-name="j" unicode="j" horiz-adv-x="412" 
d="M84 -5l-22 16v22q43 27 86 64.5t64 85.5l22 220l27 5q16 -21 13 -50.5t-3 -56.5q0 -70 -16 -129t-69 -107zM255 510q-16 11 -16 29.5v34.5l16 22h22q16 -16 13 -35t-3 -40z" />
    <glyph glyph-name="k" unicode="k" horiz-adv-x="412" 
d="M78 61l-10 43l16 80l-6 27q27 54 24.5 123.5t-2.5 133.5l-16 145l32 11q27 -80 29.5 -174t2.5 -191l-5 -21h32q37 16 74.5 40t75.5 40l11 -32q-22 -32 -54 -48l-64 -32l-54 -16v-11l35 -35t40 -24l5 -27l-42 -11l-75 54l-22 -70z" />
    <glyph glyph-name="l" unicode="l" horiz-adv-x="404" 
d="M180 87l-22 16v21q33 59 35.5 128.5t2.5 139.5l-5 198l16 22h21q11 -91 13.5 -185t2.5 -190l-37 -140z" />
    <glyph glyph-name="m" unicode="m" horiz-adv-x="516" 
d="M76 65q-16 16 -16 35v40l16 177l27 5q11 -10 11 -26v-33h11q21 27 48 43t59 11l37 -43l17 -37l32 -6l75 11q21 -16 21 -37.5t6 -42.5l32 -11l5 -27l-37 -11l-33 16q-10 11 -13 27t-8 32l-27 6l-48 -59l-5 -32l-27 -6q-22 38 -16.5 86t-21.5 80l-21 6q-49 -43 -73 -91.5
t-24 -107.5z" />
    <glyph glyph-name="n" unicode="n" horiz-adv-x="444" 
d="M84 69l-17 43q17 48 17 99v105l-6 16l16 21h22q10 -16 13 -37.5t3 -42.5h11l21 21h48q22 -5 40.5 -16t34.5 -32l38 -102l37 -11l6 -26l-38 -16q-21 5 -37 13t-22 29q-5 27 -10.5 54t-32.5 48l-53 11q-27 -38 -40.5 -83.5t-24.5 -88.5z" />
    <glyph glyph-name="o" unicode="o" horiz-adv-x="392" 
d="M195 81q-33 6 -62.5 16.5t-50.5 37.5q-16 16 -16 40v51l80 145q16 16 37.5 18.5t48.5 2.5q38 -48 64.5 -104.5t16.5 -125.5q-6 -16 -16.5 -35t-26.5 -30q-16 -10 -35 -13t-40 -3zM238 135q26 16 26 48v59l-37 80h-22l-43 -10q-21 -32 -37 -64.5t-11 -75.5
q22 -26 54 -34.5t64 -8.5z" />
    <glyph glyph-name="p" unicode="p" horiz-adv-x="460" 
d="M78 -30l-11 37l22 54t16 53v263l-5 27l32 11l21 -49q65 -10 115.5 -39.5t99.5 -78.5q16 -21 16 -48v-53q-11 -22 -24.5 -40.5t-34.5 -29.5l-81 -22l-96 59q0 -37 -13.5 -72t-29.5 -67zM309 125q27 16 27 37.5v48.5q-43 37 -86 69.5t-97 37.5v-139l38 -6l11 -32
q16 -11 32 -24t43 -8z" />
    <glyph glyph-name="q" unicode="q" horiz-adv-x="476" 
d="M320 -69q-21 27 -18.5 64.5t2.5 69.5l6 32q-65 0 -118.5 21.5t-101.5 59.5q-16 21 -24 45t-3 51q11 27 21.5 51t42.5 35l70 5l140 -69l26 26h22l11 -32q-33 -80 -38 -171t-11 -183zM299 146v10q16 11 18.5 29.5t2.5 35.5l-32 42q-37 17 -69.5 38t-74.5 16l-22 -16
l-11 -70q16 -27 40.5 -40t45.5 -29z" />
    <glyph glyph-name="r" unicode="r" horiz-adv-x="400" 
d="M101 92q-16 16 -16 37.5v42.5q16 38 16 83.5v93.5l-16 65l16 21h21q17 -21 19.5 -50.5t7.5 -62.5h16q11 11 30 11h35l85 -27l6 -26q-11 -11 -24.5 -11h-23.5l-81 16q-43 -38 -48 -88.5t-16 -99.5z" />
    <glyph glyph-name="s" unicode="s" horiz-adv-x="416" 
d="M187 88q-16 5 -32 21t-22 33v26l32 11l22 -32l16 -5v32l-118 85l-22 76l38 75q21 21 50.5 29t62.5 3l59 -38q16 -27 42.5 -51t26.5 -61l-32 -11l-102 112h-43q-21 -5 -32 -23.5t-21 -34.5v-27q27 -38 67 -62t72 -62v-53l-27 -32z" />
    <glyph glyph-name="t" unicode="t" horiz-adv-x="448" 
d="M220 70l-21 17v75l5 75q-27 16 -62 21t-67 11l-5 27q11 10 24 13t30 3l80 -16v230l16 22h22l10 -11v-252q22 -16 51.5 -16t55.5 -11l6 -27l-38 -16l-75 11l-10 -145z" />
    <glyph glyph-name="u" unicode="u" horiz-adv-x="416" 
d="M152 70l-54 33q-16 26 -21.5 58.5t-5.5 69.5l27 102l27 6l11 -43l-16 -124l27 -48l16 -5l59 48q26 21 31.5 56t21.5 62l38 5l10 -37l-26 -86q5 -16 21 -29.5t11 -34.5l-32 -11l-43 37q-22 -26 -46 -42.5t-56 -16.5z" />
    <glyph glyph-name="v" unicode="v" horiz-adv-x="440" 
d="M172 81l-43 38q-27 48 -37.5 104.5t-21.5 115.5l32 10q27 -48 35 -104.5t35 -104.5h11q37 38 72 75.5t51 80.5l27 5l16 -38q-27 -48 -67 -93.5t-89 -88.5h-21z" />
    <glyph glyph-name="w" unicode="w" horiz-adv-x="460" 
d="M94 61q-21 70 -15.5 147.5t-27.5 142.5l33 10l32 -32l11 -161h10l97 113h27q16 -27 18.5 -62t7.5 -67l16 -5q17 37 25 77.5t24 77.5l27 6l10 -32q-10 -49 -23.5 -100t-45.5 -93l-38 -6q-27 22 -37.5 54t-10.5 69h-11l-107 -139h-22z" />
    <glyph glyph-name="x" unicode="x" horiz-adv-x="396" 
d="M227 57l-70 54q-11 -11 -24 -22t-29 -5l-11 32l48 59q-27 43 -45.5 91t-24.5 102l33 11q21 -43 31.5 -88.5t37.5 -83.5h11l118 139h21l11 -32l-129 -171l54 -54v-21z" />
    <glyph glyph-name="y" unicode="y" horiz-adv-x="396" 
d="M118 -2l-10 37l64 86q-38 49 -62 105t-35 115l17 22h21q11 -54 32.5 -102.5t53.5 -96.5l21 -5l65 123l26 5l11 -32q-27 -69 -72.5 -131t-104.5 -121z" />
    <glyph glyph-name="z" unicode="z" horiz-adv-x="404" 
d="M216 81q-32 6 -59 16.5t-48 31.5v27l5 11h11v11l107 102v16l-155 37l-11 38l32 10q49 -21 99.5 -29t104.5 -13l5 -38q-32 -43 -66.5 -83t-67.5 -78l102 -11l27 6l11 -32q-16 -16 -43 -19t-54 -3z" />
    <glyph glyph-name="braceleft" unicode="{" horiz-adv-x="400" 
d="M208 81l-37 32l-6 33q11 32 11 66.5v72.5l-43 32l-5 32q16 16 29.5 32t7.5 43q-5 32 -16 61.5t-5 62.5l43 91l53 10l27 -21v-21l-32 -11l-16 5q-22 -21 -24.5 -48t-2.5 -54q11 -32 16.5 -61.5t5.5 -66.5l-17 -32q27 -33 27 -73v-83l-10 -54l48 -5l5 -27q-11 -10 -27 -13
t-32 -3z" />
    <glyph glyph-name="bar" unicode="|" horiz-adv-x="404" 
d="M193 85q-21 22 -18.5 54t2.5 59l11 118l-11 316l16 21h22q10 -101 13 -203t8 -204l-16 -155z" />
    <glyph glyph-name="braceright" unicode="}" horiz-adv-x="404" 
d="M149 80l-10 32l43 21v17l-6 80l22 86q-16 16 -24.5 34.5t-8.5 40.5q11 37 27 74.5t11 86.5l-21 37q-11 5 -16.5 16t-5.5 27l32 11l48 -54l11 -96l-37 -124q16 -16 34.5 -32t13.5 -37q-32 -27 -35 -64.5t-3 -75.5l6 -43q-16 -21 -37.5 -29t-43.5 -8z" />
    <glyph glyph-name="asciitilde" unicode="~" horiz-adv-x="512" 
d="M319 601q-32 16 -56 48.5t-67 26.5q-22 -5 -38 -21t-43 -16l-10 32l42 43l102 11l91 -76l38 43l11 27l26 6q11 -11 11 -24.5v-24.5l-32 -48q-16 -16 -35 -24t-40 -3z" />
    <glyph glyph-name="uni00A0" unicode="&#xa0;" horiz-adv-x="512" 
 />
    <glyph glyph-name="exclamdown" unicode="&#xa1;" horiz-adv-x="512" 
 />
    <glyph glyph-name="cent" unicode="&#xa2;" horiz-adv-x="512" 
 />
    <glyph glyph-name="sterling" unicode="&#xa3;" horiz-adv-x="512" 
 />
    <glyph glyph-name="currency" unicode="&#xa4;" horiz-adv-x="512" 
 />
    <glyph glyph-name="yen" unicode="&#xa5;" horiz-adv-x="512" 
 />
    <glyph glyph-name="brokenbar" unicode="&#xa6;" horiz-adv-x="512" 
 />
    <glyph glyph-name="section" unicode="&#xa7;" horiz-adv-x="776" 
d="M392 81l-27 27v21l32 11l43 -11l27 17l16 37l-6 21q-69 -5 -133.5 3t-112.5 51l-16 38l43 107q-22 32 -43.5 61.5t-21.5 67.5l43 85q32 27 72.5 27h83.5q53 -11 106.5 -24t96.5 -40l11 -48l-32 -11l-27 37q-59 22 -123.5 32.5t-133.5 5.5l-43 -54l-5 -32l69 -91
q27 -5 56.5 -13.5t61.5 -8.5l27 6q16 -22 26.5 -46t5.5 -56l-5 -43l43 -48l5 -59l-54 -59zM413 253v10l-5 27l32 27v16q-27 22 -62 22t-67 10l-43 -53v-22q27 -27 64.5 -35t80.5 -2z" />
    <glyph glyph-name="dieresis" unicode="&#xa8;" horiz-adv-x="800" 
d="M524 663l-21 11l-16 69l21 32h22l48 -32v-53q-11 -16 -24.5 -21.5t-29.5 -5.5zM267 674l-21 10l-11 38l16 32l43 5q11 -10 13.5 -29t2.5 -35z" />
    <glyph glyph-name="copyright" unicode="&#xa9;" horiz-adv-x="512" 
 />
    <glyph glyph-name="ordfeminine" unicode="&#xaa;" horiz-adv-x="512" 
 />
    <glyph glyph-name="guillemotleft" unicode="&#xab;" horiz-adv-x="512" 
 />
    <glyph glyph-name="logicalnot" unicode="&#xac;" horiz-adv-x="512" 
 />
    <glyph glyph-name="uni00AD" unicode="&#xad;" horiz-adv-x="512" 
 />
    <glyph glyph-name="registered" unicode="&#xae;" horiz-adv-x="512" 
 />
    <glyph glyph-name="macron" unicode="&#xaf;" horiz-adv-x="512" 
 />
    <glyph glyph-name="degree" unicode="&#xb0;" horiz-adv-x="796" 
d="M214 510l-101 43q-16 16 -24.5 37.5t-2.5 48.5q11 32 32 56t43 51q27 27 61.5 40.5t77.5 7.5l70 -53q16 -22 29.5 -46t7.5 -56q-5 -22 -7.5 -43.5t-24.5 -37.5q-32 -32 -72 -42.5t-89 -5.5zM311 569l43 38l5 64l-59 64l-64 6q-32 -16 -56.5 -45.5t-45.5 -56.5v-32
q5 -17 21.5 -25t32.5 -18l107 -6z" />
    <glyph glyph-name="plusminus" unicode="&#xb1;" horiz-adv-x="804" 
d="M494 108q-48 16 -107 18.5t-108 19.5l-5 26l43 11l225 -27l27 6l11 -38q-16 -16 -40.5 -16h-45.5zM403 274l-27 27l-5 134q-43 0 -86 -2.5t-81 18.5l-5 27l32 11l140 -6l10 134l27 6q16 -33 13.5 -67.5t-2.5 -72.5l198 -10l5 -27l-53 -16l-150 5v-113l16 -37z" />
    <glyph glyph-name="uni00B2" unicode="&#xb2;" horiz-adv-x="512" 
 />
    <glyph glyph-name="uni00B3" unicode="&#xb3;" horiz-adv-x="512" 
 />
    <glyph glyph-name="acute" unicode="&#xb4;" horiz-adv-x="804" 
d="M334 678l-21 16v21q48 16 83 53.5t83 53.5l11 -32q-38 -37 -75.5 -69.5t-80.5 -42.5z" />
    <glyph glyph-name="uni00B5" unicode="&#xb5;" horiz-adv-x="512" 
 />
    <glyph glyph-name="paragraph" unicode="&#xb6;" horiz-adv-x="700" 
d="M328 -11l-27 27v96l11 220l-75 54q-16 32 -29.5 61.5t-8.5 66.5l43 81l81 64l5 16l107 5l86 -32l5 -27l-37 -10v-97q11 -53 13.5 -112t2.5 -118q-11 -65 -13.5 -129t-13.5 -129l-27 -5l-16 43l22 338q-6 59 -14 115t-2 115h-54l-5 -21l-27 -6v-118l5 -166l-11 -289l6 -27
z" />
    <glyph glyph-name="periodcentered" unicode="&#xb7;" horiz-adv-x="512" 
 />
    <glyph glyph-name="cedilla" unicode="&#xb8;" horiz-adv-x="512" 
 />
    <glyph glyph-name="uni00B9" unicode="&#xb9;" horiz-adv-x="512" 
 />
    <glyph glyph-name="ordmasculine" unicode="&#xba;" horiz-adv-x="512" 
 />
    <glyph glyph-name="guillemotright" unicode="&#xbb;" horiz-adv-x="512" 
 />
    <glyph glyph-name="onequarter" unicode="&#xbc;" horiz-adv-x="512" 
 />
    <glyph glyph-name="onehalf" unicode="&#xbd;" horiz-adv-x="512" 
 />
    <glyph glyph-name="threequarters" unicode="&#xbe;" horiz-adv-x="512" 
 />
    <glyph glyph-name="questiondown" unicode="&#xbf;" horiz-adv-x="512" 
 />
    <glyph glyph-name="Agrave" unicode="&#xc0;" horiz-adv-x="512" 
 />
    <glyph glyph-name="Aacute" unicode="&#xc1;" horiz-adv-x="512" 
 />
    <glyph glyph-name="Acircumflex" unicode="&#xc2;" horiz-adv-x="512" 
 />
    <glyph glyph-name="Atilde" unicode="&#xc3;" horiz-adv-x="512" 
 />
    <glyph glyph-name="Adieresis" unicode="&#xc4;" horiz-adv-x="512" 
 />
    <glyph glyph-name="Aring" unicode="&#xc5;" horiz-adv-x="512" 
 />
    <glyph glyph-name="AE" unicode="&#xc6;" horiz-adv-x="512" 
 />
    <glyph glyph-name="Ccedilla" unicode="&#xc7;" horiz-adv-x="512" 
 />
    <glyph glyph-name="Egrave" unicode="&#xc8;" horiz-adv-x="512" 
 />
    <glyph glyph-name="Eacute" unicode="&#xc9;" horiz-adv-x="512" 
 />
    <glyph glyph-name="Ecircumflex" unicode="&#xca;" horiz-adv-x="512" 
 />
    <glyph glyph-name="Edieresis" unicode="&#xcb;" horiz-adv-x="512" 
 />
    <glyph glyph-name="Igrave" unicode="&#xcc;" horiz-adv-x="512" 
 />
    <glyph glyph-name="Iacute" unicode="&#xcd;" horiz-adv-x="512" 
 />
    <glyph glyph-name="Icircumflex" unicode="&#xce;" horiz-adv-x="512" 
 />
    <glyph glyph-name="Idieresis" unicode="&#xcf;" horiz-adv-x="512" 
 />
    <glyph glyph-name="Eth" unicode="&#xd0;" horiz-adv-x="512" 
 />
    <glyph glyph-name="Ntilde" unicode="&#xd1;" horiz-adv-x="512" 
 />
    <glyph glyph-name="Ograve" unicode="&#xd2;" horiz-adv-x="512" 
 />
    <glyph glyph-name="Oacute" unicode="&#xd3;" horiz-adv-x="512" 
 />
    <glyph glyph-name="Ocircumflex" unicode="&#xd4;" horiz-adv-x="512" 
 />
    <glyph glyph-name="Otilde" unicode="&#xd5;" horiz-adv-x="512" 
 />
    <glyph glyph-name="Odieresis" unicode="&#xd6;" horiz-adv-x="512" 
 />
    <glyph glyph-name="multiply" unicode="&#xd7;" horiz-adv-x="744" 
d="M434 92q-27 16 -46 45.5t-35 56.5h-11q-21 -16 -42.5 -43t-48.5 -27l-10 32l80 102q-43 75 -80.5 153t-48.5 169l16 21h22q11 -80 45.5 -155t72.5 -145l16 -5l182 236h27l11 -33q-49 -59 -97 -126t-102 -126v-21q16 -27 35 -53.5t46 -43.5v-26z" />
    <glyph glyph-name="Oslash" unicode="&#xd8;" horiz-adv-x="512" 
 />
    <glyph glyph-name="Ugrave" unicode="&#xd9;" horiz-adv-x="512" 
 />
    <glyph glyph-name="Uacute" unicode="&#xda;" horiz-adv-x="512" 
 />
    <glyph glyph-name="Ucircumflex" unicode="&#xdb;" horiz-adv-x="512" 
 />
    <glyph glyph-name="Udieresis" unicode="&#xdc;" horiz-adv-x="512" 
 />
    <glyph glyph-name="Yacute" unicode="&#xdd;" horiz-adv-x="512" 
 />
    <glyph glyph-name="Thorn" unicode="&#xde;" horiz-adv-x="512" 
 />
    <glyph glyph-name="germandbls" unicode="&#xdf;" horiz-adv-x="512" 
 />
    <glyph glyph-name="agrave" unicode="&#xe0;" horiz-adv-x="512" 
 />
    <glyph glyph-name="aacute" unicode="&#xe1;" horiz-adv-x="512" 
 />
    <glyph glyph-name="acircumflex" unicode="&#xe2;" horiz-adv-x="512" 
 />
    <glyph glyph-name="atilde" unicode="&#xe3;" horiz-adv-x="512" 
 />
    <glyph glyph-name="adieresis" unicode="&#xe4;" horiz-adv-x="512" 
 />
    <glyph glyph-name="aring" unicode="&#xe5;" horiz-adv-x="512" 
 />
    <glyph glyph-name="ae" unicode="&#xe6;" horiz-adv-x="512" 
 />
    <glyph glyph-name="ccedilla" unicode="&#xe7;" horiz-adv-x="512" 
 />
    <glyph glyph-name="egrave" unicode="&#xe8;" horiz-adv-x="512" 
 />
    <glyph glyph-name="eacute" unicode="&#xe9;" horiz-adv-x="512" 
 />
    <glyph glyph-name="ecircumflex" unicode="&#xea;" horiz-adv-x="512" 
 />
    <glyph glyph-name="edieresis" unicode="&#xeb;" horiz-adv-x="512" 
 />
    <glyph glyph-name="igrave" unicode="&#xec;" horiz-adv-x="512" 
 />
    <glyph glyph-name="iacute" unicode="&#xed;" horiz-adv-x="512" 
 />
    <glyph glyph-name="icircumflex" unicode="&#xee;" horiz-adv-x="512" 
 />
    <glyph glyph-name="idieresis" unicode="&#xef;" horiz-adv-x="512" 
 />
    <glyph glyph-name="eth" unicode="&#xf0;" horiz-adv-x="512" 
 />
    <glyph glyph-name="ntilde" unicode="&#xf1;" horiz-adv-x="512" 
 />
    <glyph glyph-name="ograve" unicode="&#xf2;" horiz-adv-x="512" 
 />
    <glyph glyph-name="oacute" unicode="&#xf3;" horiz-adv-x="512" 
 />
    <glyph glyph-name="ocircumflex" unicode="&#xf4;" horiz-adv-x="512" 
 />
    <glyph glyph-name="otilde" unicode="&#xf5;" horiz-adv-x="512" 
 />
    <glyph glyph-name="odieresis" unicode="&#xf6;" horiz-adv-x="512" 
 />
    <glyph glyph-name="divide" unicode="&#xf7;" horiz-adv-x="864" 
d="M418 81l-48 38v16q11 27 16 56.5t32 45.5h32q27 -22 38 -48.5t5 -64.5l-43 -37zM370 333q-43 6 -86 16.5t-80 37.5l-6 27l33 10q48 -32 107 -37.5t123 -5.5l204 22l11 -32q-70 -22 -148 -30t-158 -8zM429 478q-16 5 -27 16t-16 27v37q11 27 35 32.5t51 5.5l32 -16l5 -48
q-5 -17 -18.5 -30t-29.5 -19z" />
    <glyph glyph-name="oslash" unicode="&#xf8;" horiz-adv-x="512" 
 />
    <glyph glyph-name="ugrave" unicode="&#xf9;" horiz-adv-x="512" 
 />
    <glyph glyph-name="uacute" unicode="&#xfa;" horiz-adv-x="512" 
 />
    <glyph glyph-name="ucircumflex" unicode="&#xfb;" horiz-adv-x="512" 
 />
    <glyph glyph-name="udieresis" unicode="&#xfc;" horiz-adv-x="512" 
 />
    <glyph glyph-name="yacute" unicode="&#xfd;" horiz-adv-x="512" 
 />
    <glyph glyph-name="thorn" unicode="&#xfe;" horiz-adv-x="512" 
 />
    <glyph glyph-name="ydieresis" unicode="&#xff;" horiz-adv-x="512" 
 />
    <glyph glyph-name="Amacron" unicode="&#x100;" horiz-adv-x="512" 
 />
    <glyph glyph-name="amacron" unicode="&#x101;" horiz-adv-x="512" 
 />
    <glyph glyph-name="Abreve" unicode="&#x102;" horiz-adv-x="512" 
 />
    <glyph glyph-name="abreve" unicode="&#x103;" horiz-adv-x="512" 
 />
    <glyph glyph-name="Aogonek" unicode="&#x104;" horiz-adv-x="512" 
 />
    <glyph glyph-name="aogonek" unicode="&#x105;" horiz-adv-x="512" 
 />
    <glyph glyph-name="Cacute" unicode="&#x106;" horiz-adv-x="512" 
 />
    <glyph glyph-name="cacute" unicode="&#x107;" horiz-adv-x="512" 
 />
    <glyph glyph-name="Ccircumflex" unicode="&#x108;" horiz-adv-x="512" 
 />
    <glyph glyph-name="ccircumflex" unicode="&#x109;" horiz-adv-x="512" 
 />
    <glyph glyph-name="Cdotaccent" unicode="&#x10a;" horiz-adv-x="512" 
 />
    <glyph glyph-name="cdotaccent" unicode="&#x10b;" horiz-adv-x="512" 
 />
    <glyph glyph-name="Ccaron" unicode="&#x10c;" horiz-adv-x="512" 
 />
    <glyph glyph-name="ccaron" unicode="&#x10d;" horiz-adv-x="512" 
 />
    <glyph glyph-name="Dcaron" unicode="&#x10e;" horiz-adv-x="512" 
 />
    <glyph glyph-name="dcaron" unicode="&#x10f;" horiz-adv-x="512" 
 />
    <glyph glyph-name="Dcroat" unicode="&#x110;" horiz-adv-x="512" 
 />
    <glyph glyph-name="dcroat" unicode="&#x111;" horiz-adv-x="512" 
 />
    <glyph glyph-name="Emacron" unicode="&#x112;" horiz-adv-x="512" 
 />
    <glyph glyph-name="emacron" unicode="&#x113;" horiz-adv-x="512" 
 />
    <glyph glyph-name="Ebreve" unicode="&#x114;" horiz-adv-x="512" 
 />
    <glyph glyph-name="ebreve" unicode="&#x115;" horiz-adv-x="512" 
 />
    <glyph glyph-name="Edotaccent" unicode="&#x116;" horiz-adv-x="512" 
 />
    <glyph glyph-name="edotaccent" unicode="&#x117;" horiz-adv-x="512" 
 />
    <glyph glyph-name="Eogonek" unicode="&#x118;" horiz-adv-x="512" 
 />
    <glyph glyph-name="eogonek" unicode="&#x119;" horiz-adv-x="512" 
 />
    <glyph glyph-name="Ecaron" unicode="&#x11a;" horiz-adv-x="512" 
 />
    <glyph glyph-name="ecaron" unicode="&#x11b;" horiz-adv-x="512" 
 />
    <glyph glyph-name="Gcircumflex" unicode="&#x11c;" horiz-adv-x="512" 
 />
    <glyph glyph-name="gcircumflex" unicode="&#x11d;" horiz-adv-x="512" 
 />
    <glyph glyph-name="Gbreve" unicode="&#x11e;" horiz-adv-x="512" 
 />
    <glyph glyph-name="gbreve" unicode="&#x11f;" horiz-adv-x="512" 
 />
    <glyph glyph-name="Gdotaccent" unicode="&#x120;" horiz-adv-x="512" 
 />
    <glyph glyph-name="gdotaccent" unicode="&#x121;" horiz-adv-x="512" 
 />
    <glyph glyph-name="Gcommaaccent" unicode="&#x122;" horiz-adv-x="512" 
 />
    <glyph glyph-name="gcommaaccent" unicode="&#x123;" horiz-adv-x="512" 
 />
    <glyph glyph-name="Hcircumflex" unicode="&#x124;" horiz-adv-x="512" 
 />
    <glyph glyph-name="hcircumflex" unicode="&#x125;" horiz-adv-x="512" 
 />
    <glyph glyph-name="Hbar" unicode="&#x126;" horiz-adv-x="512" 
 />
    <glyph glyph-name="hbar" unicode="&#x127;" horiz-adv-x="512" 
 />
    <glyph glyph-name="Itilde" unicode="&#x128;" horiz-adv-x="512" 
 />
    <glyph glyph-name="itilde" unicode="&#x129;" horiz-adv-x="512" 
 />
    <glyph glyph-name="Imacron" unicode="&#x12a;" horiz-adv-x="512" 
 />
    <glyph glyph-name="imacron" unicode="&#x12b;" horiz-adv-x="512" 
 />
    <glyph glyph-name="Ibreve" unicode="&#x12c;" horiz-adv-x="512" 
 />
    <glyph glyph-name="ibreve" unicode="&#x12d;" horiz-adv-x="512" 
 />
    <glyph glyph-name="Iogonek" unicode="&#x12e;" horiz-adv-x="512" 
 />
    <glyph glyph-name="iogonek" unicode="&#x12f;" horiz-adv-x="512" 
 />
    <glyph glyph-name="Idotaccent" unicode="&#x130;" horiz-adv-x="512" 
 />
    <glyph glyph-name="dotlessi" unicode="&#x131;" horiz-adv-x="512" 
 />
    <glyph glyph-name="IJ" unicode="&#x132;" horiz-adv-x="512" 
 />
    <glyph glyph-name="ij" unicode="&#x133;" horiz-adv-x="512" 
 />
    <glyph glyph-name="Jcircumflex" unicode="&#x134;" horiz-adv-x="512" 
 />
    <glyph glyph-name="jcircumflex" unicode="&#x135;" horiz-adv-x="512" 
 />
    <glyph glyph-name="Kcommaaccent" unicode="&#x136;" horiz-adv-x="512" 
 />
    <glyph glyph-name="kcommaaccent" unicode="&#x137;" horiz-adv-x="512" 
 />
    <glyph glyph-name="kgreenlandic" unicode="&#x138;" horiz-adv-x="512" 
 />
    <glyph glyph-name="Lacute" unicode="&#x139;" horiz-adv-x="512" 
 />
    <glyph glyph-name="lacute" unicode="&#x13a;" horiz-adv-x="512" 
 />
    <glyph glyph-name="Lcommaaccent" unicode="&#x13b;" horiz-adv-x="512" 
 />
    <glyph glyph-name="lcommaaccent" unicode="&#x13c;" horiz-adv-x="512" 
 />
    <glyph glyph-name="Lcaron" unicode="&#x13d;" horiz-adv-x="512" 
 />
    <glyph glyph-name="lcaron" unicode="&#x13e;" horiz-adv-x="512" 
 />
    <glyph glyph-name="Ldot" unicode="&#x13f;" horiz-adv-x="512" 
 />
    <glyph glyph-name="ldot" unicode="&#x140;" horiz-adv-x="512" 
 />
    <glyph glyph-name="Lslash" unicode="&#x141;" horiz-adv-x="512" 
 />
    <glyph glyph-name="lslash" unicode="&#x142;" horiz-adv-x="512" 
 />
    <glyph glyph-name="Nacute" unicode="&#x143;" horiz-adv-x="512" 
 />
    <glyph glyph-name="nacute" unicode="&#x144;" horiz-adv-x="512" 
 />
    <glyph glyph-name="Ncommaaccent" unicode="&#x145;" horiz-adv-x="512" 
 />
    <glyph glyph-name="ncommaaccent" unicode="&#x146;" horiz-adv-x="512" 
 />
    <glyph glyph-name="Ncaron" unicode="&#x147;" horiz-adv-x="512" 
 />
    <glyph glyph-name="ncaron" unicode="&#x148;" horiz-adv-x="512" 
 />
    <glyph glyph-name="napostrophe" unicode="&#x149;" horiz-adv-x="512" 
 />
    <glyph glyph-name="Eng" unicode="&#x14a;" horiz-adv-x="512" 
 />
    <glyph glyph-name="eng" unicode="&#x14b;" horiz-adv-x="512" 
 />
    <glyph glyph-name="Omacron" unicode="&#x14c;" horiz-adv-x="512" 
 />
    <glyph glyph-name="omacron" unicode="&#x14d;" horiz-adv-x="512" 
 />
    <glyph glyph-name="Obreve" unicode="&#x14e;" horiz-adv-x="512" 
 />
    <glyph glyph-name="obreve" unicode="&#x14f;" horiz-adv-x="512" 
 />
    <glyph glyph-name="Ohungarumlaut" unicode="&#x150;" horiz-adv-x="512" 
 />
    <glyph glyph-name="ohungarumlaut" unicode="&#x151;" horiz-adv-x="512" 
 />
    <glyph glyph-name="OE" unicode="&#x152;" horiz-adv-x="512" 
 />
    <glyph glyph-name="oe" unicode="&#x153;" horiz-adv-x="512" 
 />
    <glyph glyph-name="Racute" unicode="&#x154;" horiz-adv-x="512" 
 />
    <glyph glyph-name="racute" unicode="&#x155;" horiz-adv-x="512" 
 />
    <glyph glyph-name="Rcommaaccent" unicode="&#x156;" horiz-adv-x="512" 
 />
    <glyph glyph-name="rcommaaccent" unicode="&#x157;" horiz-adv-x="512" 
 />
    <glyph glyph-name="Rcaron" unicode="&#x158;" horiz-adv-x="512" 
 />
    <glyph glyph-name="rcaron" unicode="&#x159;" horiz-adv-x="512" 
 />
    <glyph glyph-name="Sacute" unicode="&#x15a;" horiz-adv-x="512" 
 />
    <glyph glyph-name="sacute" unicode="&#x15b;" horiz-adv-x="512" 
 />
    <glyph glyph-name="Scircumflex" unicode="&#x15c;" horiz-adv-x="512" 
 />
    <glyph glyph-name="scircumflex" unicode="&#x15d;" horiz-adv-x="512" 
 />
    <glyph glyph-name="Scedilla" unicode="&#x15e;" horiz-adv-x="512" 
 />
    <glyph glyph-name="scedilla" unicode="&#x15f;" horiz-adv-x="512" 
 />
    <glyph glyph-name="Scaron" unicode="&#x160;" horiz-adv-x="512" 
 />
    <glyph glyph-name="scaron" unicode="&#x161;" horiz-adv-x="512" 
 />
    <glyph glyph-name="Tcommaaccent" unicode="&#x162;" horiz-adv-x="512" 
 />
    <glyph glyph-name="tcommaaccent" unicode="&#x163;" horiz-adv-x="512" 
 />
    <glyph glyph-name="Tcaron" unicode="&#x164;" horiz-adv-x="512" 
 />
    <glyph glyph-name="tcaron" unicode="&#x165;" horiz-adv-x="512" 
 />
    <glyph glyph-name="Tbar" unicode="&#x166;" horiz-adv-x="512" 
 />
    <glyph glyph-name="tbar" unicode="&#x167;" horiz-adv-x="512" 
 />
    <glyph glyph-name="Utilde" unicode="&#x168;" horiz-adv-x="512" 
 />
    <glyph glyph-name="utilde" unicode="&#x169;" horiz-adv-x="512" 
 />
    <glyph glyph-name="Umacron" unicode="&#x16a;" horiz-adv-x="512" 
 />
    <glyph glyph-name="umacron" unicode="&#x16b;" horiz-adv-x="512" 
 />
    <glyph glyph-name="Ubreve" unicode="&#x16c;" horiz-adv-x="512" 
 />
    <glyph glyph-name="ubreve" unicode="&#x16d;" horiz-adv-x="512" 
 />
    <glyph glyph-name="Uring" unicode="&#x16e;" horiz-adv-x="512" 
 />
    <glyph glyph-name="uring" unicode="&#x16f;" horiz-adv-x="512" 
 />
    <glyph glyph-name="Uhungarumlaut" unicode="&#x170;" horiz-adv-x="512" 
 />
    <glyph glyph-name="uhungarumlaut" unicode="&#x171;" horiz-adv-x="512" 
 />
    <glyph glyph-name="Uogonek" unicode="&#x172;" horiz-adv-x="512" 
 />
    <glyph glyph-name="uogonek" unicode="&#x173;" horiz-adv-x="512" 
 />
    <glyph glyph-name="Wcircumflex" unicode="&#x174;" horiz-adv-x="512" 
 />
    <glyph glyph-name="wcircumflex" unicode="&#x175;" horiz-adv-x="512" 
 />
    <glyph glyph-name="Ycircumflex" unicode="&#x176;" horiz-adv-x="512" 
 />
    <glyph glyph-name="ycircumflex" unicode="&#x177;" horiz-adv-x="512" 
 />
    <glyph glyph-name="Ydieresis" unicode="&#x178;" horiz-adv-x="512" 
 />
    <glyph glyph-name="Zacute" unicode="&#x179;" horiz-adv-x="512" 
 />
    <glyph glyph-name="zacute" unicode="&#x17a;" horiz-adv-x="512" 
 />
    <glyph glyph-name="Zdotaccent" unicode="&#x17b;" horiz-adv-x="512" 
 />
    <glyph glyph-name="zdotaccent" unicode="&#x17c;" horiz-adv-x="512" 
 />
    <glyph glyph-name="Zcaron" unicode="&#x17d;" horiz-adv-x="512" 
 />
    <glyph glyph-name="zcaron" unicode="&#x17e;" horiz-adv-x="512" 
 />
    <glyph glyph-name="longs" unicode="&#x17f;" horiz-adv-x="512" 
 />
    <glyph glyph-name="florin" unicode="&#x192;" horiz-adv-x="512" 
 />
    <glyph glyph-name="uni01CD" unicode="&#x1cd;" 
 />
    <glyph glyph-name="uni01CE" unicode="&#x1ce;" 
 />
    <glyph glyph-name="uni01CF" unicode="&#x1cf;" 
 />
    <glyph glyph-name="uni01D0" unicode="&#x1d0;" 
 />
    <glyph glyph-name="uni01D1" unicode="&#x1d1;" 
 />
    <glyph glyph-name="uni01D2" unicode="&#x1d2;" 
 />
    <glyph glyph-name="uni01D3" unicode="&#x1d3;" 
 />
    <glyph glyph-name="uni01D4" unicode="&#x1d4;" 
 />
    <glyph glyph-name="uni01D5" unicode="&#x1d5;" 
 />
    <glyph glyph-name="uni01D6" unicode="&#x1d6;" 
 />
    <glyph glyph-name="uni01D7" unicode="&#x1d7;" 
 />
    <glyph glyph-name="uni01D8" unicode="&#x1d8;" 
 />
    <glyph glyph-name="uni01D9" unicode="&#x1d9;" 
 />
    <glyph glyph-name="uni01DA" unicode="&#x1da;" 
 />
    <glyph glyph-name="uni01DB" unicode="&#x1db;" 
 />
    <glyph glyph-name="uni01DC" unicode="&#x1dc;" 
 />
    <glyph glyph-name="uni01F5" unicode="&#x1f5;" 
 />
    <glyph glyph-name="Aringacute" unicode="&#x1fa;" horiz-adv-x="512" 
 />
    <glyph glyph-name="aringacute" unicode="&#x1fb;" horiz-adv-x="512" 
 />
    <glyph glyph-name="AEacute" unicode="&#x1fc;" horiz-adv-x="512" 
 />
    <glyph glyph-name="aeacute" unicode="&#x1fd;" horiz-adv-x="512" 
 />
    <glyph glyph-name="Oslashacute" unicode="&#x1fe;" horiz-adv-x="512" 
 />
    <glyph glyph-name="oslashacute" unicode="&#x1ff;" horiz-adv-x="512" 
 />
    <glyph glyph-name="uni0250" unicode="&#x250;" horiz-adv-x="512" 
 />
    <glyph glyph-name="uni0251" unicode="&#x251;" horiz-adv-x="512" 
 />
    <glyph glyph-name="uni0252" unicode="&#x252;" horiz-adv-x="512" 
 />
    <glyph glyph-name="uni0253" unicode="&#x253;" horiz-adv-x="512" 
 />
    <glyph glyph-name="uni0254" unicode="&#x254;" horiz-adv-x="512" 
 />
    <glyph glyph-name="uni0255" unicode="&#x255;" horiz-adv-x="512" 
 />
    <glyph glyph-name="uni0256" unicode="&#x256;" horiz-adv-x="512" 
 />
    <glyph glyph-name="uni0257" unicode="&#x257;" horiz-adv-x="512" 
 />
    <glyph glyph-name="uni0258" unicode="&#x258;" horiz-adv-x="512" 
 />
    <glyph glyph-name="uni0259" unicode="&#x259;" horiz-adv-x="512" 
 />
    <glyph glyph-name="uni025A" unicode="&#x25a;" horiz-adv-x="512" 
 />
    <glyph glyph-name="uni025B" unicode="&#x25b;" horiz-adv-x="512" 
 />
    <glyph glyph-name="uni025C" unicode="&#x25c;" horiz-adv-x="512" 
 />
    <glyph glyph-name="uni025D" unicode="&#x25d;" horiz-adv-x="512" 
 />
    <glyph glyph-name="uni025E" unicode="&#x25e;" horiz-adv-x="512" 
 />
    <glyph glyph-name="uni025F" unicode="&#x25f;" horiz-adv-x="512" 
 />
    <glyph glyph-name="uni0260" unicode="&#x260;" horiz-adv-x="512" 
 />
    <glyph glyph-name="uni0261" unicode="&#x261;" horiz-adv-x="512" 
 />
    <glyph glyph-name="uni0262" unicode="&#x262;" horiz-adv-x="512" 
 />
    <glyph glyph-name="uni0263" unicode="&#x263;" horiz-adv-x="512" 
 />
    <glyph glyph-name="uni0264" unicode="&#x264;" horiz-adv-x="512" 
 />
    <glyph glyph-name="uni0265" unicode="&#x265;" horiz-adv-x="512" 
 />
    <glyph glyph-name="uni0266" unicode="&#x266;" horiz-adv-x="512" 
 />
    <glyph glyph-name="uni0267" unicode="&#x267;" horiz-adv-x="512" 
 />
    <glyph glyph-name="uni0268" unicode="&#x268;" horiz-adv-x="512" 
 />
    <glyph glyph-name="uni0269" unicode="&#x269;" horiz-adv-x="512" 
 />
    <glyph glyph-name="uni026A" unicode="&#x26a;" horiz-adv-x="512" 
 />
    <glyph glyph-name="uni026B" unicode="&#x26b;" horiz-adv-x="512" 
 />
    <glyph glyph-name="uni026C" unicode="&#x26c;" horiz-adv-x="512" 
 />
    <glyph glyph-name="uni026D" unicode="&#x26d;" horiz-adv-x="512" 
 />
    <glyph glyph-name="uni026E" unicode="&#x26e;" horiz-adv-x="512" 
 />
    <glyph glyph-name="uni026F" unicode="&#x26f;" horiz-adv-x="512" 
 />
    <glyph glyph-name="uni0270" unicode="&#x270;" horiz-adv-x="512" 
 />
    <glyph glyph-name="uni0271" unicode="&#x271;" horiz-adv-x="512" 
 />
    <glyph glyph-name="uni0272" unicode="&#x272;" horiz-adv-x="512" 
 />
    <glyph glyph-name="uni0273" unicode="&#x273;" horiz-adv-x="512" 
 />
    <glyph glyph-name="uni0274" unicode="&#x274;" horiz-adv-x="512" 
 />
    <glyph glyph-name="uni0275" unicode="&#x275;" horiz-adv-x="512" 
 />
    <glyph glyph-name="uni0276" unicode="&#x276;" horiz-adv-x="512" 
 />
    <glyph glyph-name="uni0277" unicode="&#x277;" horiz-adv-x="512" 
 />
    <glyph glyph-name="uni0278" unicode="&#x278;" horiz-adv-x="512" 
 />
    <glyph glyph-name="uni0279" unicode="&#x279;" horiz-adv-x="512" 
 />
    <glyph glyph-name="uni027A" unicode="&#x27a;" horiz-adv-x="512" 
 />
    <glyph glyph-name="uni027B" unicode="&#x27b;" horiz-adv-x="512" 
 />
    <glyph glyph-name="uni027C" unicode="&#x27c;" horiz-adv-x="512" 
 />
    <glyph glyph-name="uni027D" unicode="&#x27d;" horiz-adv-x="512" 
 />
    <glyph glyph-name="uni027E" unicode="&#x27e;" horiz-adv-x="512" 
 />
    <glyph glyph-name="uni027F" unicode="&#x27f;" horiz-adv-x="512" 
 />
    <glyph glyph-name="uni0280" unicode="&#x280;" horiz-adv-x="512" 
 />
    <glyph glyph-name="uni0281" unicode="&#x281;" horiz-adv-x="512" 
 />
    <glyph glyph-name="uni0282" unicode="&#x282;" horiz-adv-x="512" 
 />
    <glyph glyph-name="uni0283" unicode="&#x283;" horiz-adv-x="512" 
 />
    <glyph glyph-name="uni0284" unicode="&#x284;" horiz-adv-x="512" 
 />
    <glyph glyph-name="uni0285" unicode="&#x285;" horiz-adv-x="512" 
 />
    <glyph glyph-name="uni0286" unicode="&#x286;" horiz-adv-x="512" 
 />
    <glyph glyph-name="uni0287" unicode="&#x287;" horiz-adv-x="512" 
 />
    <glyph glyph-name="uni0288" unicode="&#x288;" horiz-adv-x="512" 
 />
    <glyph glyph-name="uni0289" unicode="&#x289;" horiz-adv-x="512" 
 />
    <glyph glyph-name="uni028A" unicode="&#x28a;" horiz-adv-x="512" 
 />
    <glyph glyph-name="uni028B" unicode="&#x28b;" horiz-adv-x="512" 
 />
    <glyph glyph-name="uni028C" unicode="&#x28c;" horiz-adv-x="512" 
 />
    <glyph glyph-name="uni028D" unicode="&#x28d;" horiz-adv-x="512" 
 />
    <glyph glyph-name="uni028E" unicode="&#x28e;" horiz-adv-x="512" 
 />
    <glyph glyph-name="uni028F" unicode="&#x28f;" horiz-adv-x="512" 
 />
    <glyph glyph-name="uni0290" unicode="&#x290;" horiz-adv-x="512" 
 />
    <glyph glyph-name="uni0291" unicode="&#x291;" horiz-adv-x="512" 
 />
    <glyph glyph-name="uni0292" unicode="&#x292;" horiz-adv-x="512" 
 />
    <glyph glyph-name="uni0293" unicode="&#x293;" horiz-adv-x="512" 
 />
    <glyph glyph-name="uni0294" unicode="&#x294;" horiz-adv-x="512" 
 />
    <glyph glyph-name="uni0295" unicode="&#x295;" horiz-adv-x="512" 
 />
    <glyph glyph-name="uni0296" unicode="&#x296;" horiz-adv-x="512" 
 />
    <glyph glyph-name="uni0297" unicode="&#x297;" horiz-adv-x="512" 
 />
    <glyph glyph-name="uni0298" unicode="&#x298;" horiz-adv-x="512" 
 />
    <glyph glyph-name="uni0299" unicode="&#x299;" horiz-adv-x="512" 
 />
    <glyph glyph-name="uni029A" unicode="&#x29a;" horiz-adv-x="512" 
 />
    <glyph glyph-name="uni029B" unicode="&#x29b;" horiz-adv-x="512" 
 />
    <glyph glyph-name="uni029C" unicode="&#x29c;" horiz-adv-x="512" 
 />
    <glyph glyph-name="uni029D" unicode="&#x29d;" horiz-adv-x="512" 
 />
    <glyph glyph-name="uni029E" unicode="&#x29e;" horiz-adv-x="512" 
 />
    <glyph glyph-name="uni029F" unicode="&#x29f;" horiz-adv-x="512" 
 />
    <glyph glyph-name="uni02A0" unicode="&#x2a0;" horiz-adv-x="512" 
 />
    <glyph glyph-name="uni02A1" unicode="&#x2a1;" horiz-adv-x="512" 
 />
    <glyph glyph-name="uni02A2" unicode="&#x2a2;" horiz-adv-x="512" 
 />
    <glyph glyph-name="uni02A3" unicode="&#x2a3;" horiz-adv-x="512" 
 />
    <glyph glyph-name="uni02A4" unicode="&#x2a4;" horiz-adv-x="512" 
 />
    <glyph glyph-name="uni02A5" unicode="&#x2a5;" horiz-adv-x="512" 
 />
    <glyph glyph-name="uni02A6" unicode="&#x2a6;" horiz-adv-x="512" 
 />
    <glyph glyph-name="uni02A7" unicode="&#x2a7;" horiz-adv-x="512" 
 />
    <glyph glyph-name="uni02A8" unicode="&#x2a8;" horiz-adv-x="512" 
 />
    <glyph glyph-name="circumflex" unicode="&#x2c6;" horiz-adv-x="512" 
 />
    <glyph glyph-name="caron" unicode="&#x2c7;" horiz-adv-x="512" 
 />
    <glyph glyph-name="uni02C9" unicode="&#x2c9;" horiz-adv-x="512" 
 />
    <glyph glyph-name="breve" unicode="&#x2d8;" horiz-adv-x="512" 
 />
    <glyph glyph-name="dotaccent" unicode="&#x2d9;" horiz-adv-x="512" 
 />
    <glyph glyph-name="ring" unicode="&#x2da;" horiz-adv-x="512" 
 />
    <glyph glyph-name="ogonek" unicode="&#x2db;" horiz-adv-x="512" 
 />
    <glyph glyph-name="tilde" unicode="&#x2dc;" horiz-adv-x="512" 
 />
    <glyph glyph-name="hungarumlaut" unicode="&#x2dd;" horiz-adv-x="512" 
 />
    <glyph glyph-name="uni0374" unicode="&#x374;" horiz-adv-x="512" 
 />
    <glyph glyph-name="uni0375" unicode="&#x375;" horiz-adv-x="512" 
 />
    <glyph glyph-name="uni037A" unicode="&#x37a;" horiz-adv-x="512" 
 />
    <glyph glyph-name="uni037E" unicode="&#x37e;" horiz-adv-x="512" 
 />
    <glyph glyph-name="tonos" unicode="&#x384;" horiz-adv-x="512" 
 />
    <glyph glyph-name="dieresistonos" unicode="&#x385;" horiz-adv-x="512" 
 />
    <glyph glyph-name="Alphatonos" unicode="&#x386;" horiz-adv-x="512" 
 />
    <glyph glyph-name="anoteleia" unicode="&#x387;" horiz-adv-x="512" 
 />
    <glyph glyph-name="Epsilontonos" unicode="&#x388;" horiz-adv-x="512" 
 />
    <glyph glyph-name="Etatonos" unicode="&#x389;" horiz-adv-x="512" 
 />
    <glyph glyph-name="Iotatonos" unicode="&#x38a;" horiz-adv-x="512" 
 />
    <glyph glyph-name="Omicrontonos" unicode="&#x38c;" horiz-adv-x="512" 
 />
    <glyph glyph-name="Upsilontonos" unicode="&#x38e;" horiz-adv-x="512" 
 />
    <glyph glyph-name="Omegatonos" unicode="&#x38f;" horiz-adv-x="512" 
 />
    <glyph glyph-name="iotadieresistonos" unicode="&#x390;" horiz-adv-x="512" 
 />
    <glyph glyph-name="Alpha" unicode="&#x391;" 
 />
    <glyph glyph-name="Beta" unicode="&#x392;" 
 />
    <glyph glyph-name="Gamma" unicode="&#x393;" 
 />
    <glyph glyph-name="Delta" unicode="&#x394;" 
 />
    <glyph glyph-name="Epsilon" unicode="&#x395;" 
 />
    <glyph glyph-name="Zeta" unicode="&#x396;" 
 />
    <glyph glyph-name="Eta" unicode="&#x397;" 
 />
    <glyph glyph-name="Theta" unicode="&#x398;" 
 />
    <glyph glyph-name="Iota" unicode="&#x399;" 
 />
    <glyph glyph-name="Kappa" unicode="&#x39a;" 
 />
    <glyph glyph-name="Lambda" unicode="&#x39b;" 
 />
    <glyph glyph-name="Mu" unicode="&#x39c;" 
 />
    <glyph glyph-name="Nu" unicode="&#x39d;" 
 />
    <glyph glyph-name="Xi" unicode="&#x39e;" 
 />
    <glyph glyph-name="Omicron" unicode="&#x39f;" 
 />
    <glyph glyph-name="Pi" unicode="&#x3a0;" 
 />
    <glyph glyph-name="Rho" unicode="&#x3a1;" 
 />
    <glyph glyph-name="Sigma" unicode="&#x3a3;" horiz-adv-x="896" 
d="M626 97l-5 6h-236l-182 21l-6 32q70 38 137 83.5t137 88.5v11q-38 64 -86 125.5t-107 120.5l-59 11l-6 27l43 16l156 -6q53 16 112 16h118l32 -16l6 -26l-38 -17q-32 17 -72 14t-78 -3l-134 -16v-16q59 -59 104.5 -126t67.5 -142q-59 -21 -110 -61.5t-105 -67.5l-5 -16
l75 -5h236l86 -11l5 -27q-16 -16 -40 -16h-46z" />
    <glyph glyph-name="Tau" unicode="&#x3a4;" 
 />
    <glyph glyph-name="Upsilon" unicode="&#x3a5;" 
 />
    <glyph glyph-name="Phi" unicode="&#x3a6;" 
 />
    <glyph glyph-name="Chi" unicode="&#x3a7;" 
 />
    <glyph glyph-name="Psi" unicode="&#x3a8;" 
 />
    <glyph glyph-name="Omega" unicode="&#x3a9;" 
 />
    <glyph glyph-name="Iotadieresis" unicode="&#x3aa;" horiz-adv-x="512" 
 />
    <glyph glyph-name="Upsilondieresis" unicode="&#x3ab;" horiz-adv-x="512" 
 />
    <glyph glyph-name="alphatonos" unicode="&#x3ac;" horiz-adv-x="512" 
 />
    <glyph glyph-name="epsilontonos" unicode="&#x3ad;" horiz-adv-x="512" 
 />
    <glyph glyph-name="etatonos" unicode="&#x3ae;" horiz-adv-x="512" 
 />
    <glyph glyph-name="iotatonos" unicode="&#x3af;" horiz-adv-x="512" 
 />
    <glyph glyph-name="upsilondieresistonos" unicode="&#x3b0;" horiz-adv-x="512" 
 />
    <glyph glyph-name="alpha" unicode="&#x3b1;" horiz-adv-x="744" 
d="M487 12l-43 48l-48 97l-16 5q-22 -16 -48.5 -27t-58.5 -11q-17 11 -35.5 19t-29.5 30l-10 69l42 81q11 10 30 10h35l86 -69v-11h16q42 59 71.5 120.5t62.5 120.5l26 6l11 -32q-37 -70 -74.5 -140t-75.5 -139l70 -124l21 -16v-26zM342 194l16 32q-21 16 -40 40.5t-45 18.5
q-17 -16 -22 -34.5t-5 -40.5l16 -27l32 -10z" />
    <glyph glyph-name="beta" unicode="&#x3b2;" horiz-adv-x="780" 
d="M230 -91l-27 27v16q37 145 109.5 279t174.5 252l59 11q27 -33 32 -70.5t5 -80.5l-21 -42l-43 -17v-16q16 -16 16 -42.5v-53.5l-32 -43l-70 -16q-26 11 -53 19t-32 40h-11q-27 -54 -51 -107.5t-30 -112.5l6 -27zM476 172q16 11 13.5 29.5t-2.5 34.5l-64 54v16h-11
l-54 -102l27 -5l5 -22l65 -16zM524 333q17 10 14 29t-3 35q-11 11 -5.5 27t-15.5 16l-81 -118h54z" />
    <glyph glyph-name="gamma" unicode="&#x3b3;" horiz-adv-x="696" 
d="M240 59q-16 10 -16 26v33q16 48 34.5 93.5t7.5 104.5l-5 27l-37 5l-11 32l16 22h43q27 -22 35 -54t8 -64h10q43 27 86 48t97 27l10 -32q-53 -22 -104 -46t-94 -67q-11 -38 -19 -78t-35 -72z" />
    <glyph glyph-name="delta" unicode="&#x3b4;" horiz-adv-x="700" 
d="M303 69l-49 27q-21 16 -24 43t-3 53q6 43 24.5 80.5t51.5 70.5l21 10v11l-27 70l16 32q22 16 48.5 26.5t58.5 5.5l54 -43v-21l-32 -11q-16 11 -29.5 21.5t-34.5 5.5q-17 -6 -25 -16.5t-2 -26.5q37 -54 56 -113t8 -128l-43 -75zM340 128q27 27 27 62v72l-11 43h-21
q-32 -32 -48.5 -72.5t-10.5 -88.5l10 -21l38 -6z" />
    <glyph glyph-name="epsilon" unicode="&#x3b5;" horiz-adv-x="696" 
d="M325 44q-21 10 -42.5 23.5t-32.5 40.5l-11 54q6 26 22 50.5t32 45.5l16 5v16l-16 6q-11 16 -16.5 37.5t-5.5 42.5l27 54q22 21 56.5 21h67.5l21 -10l11 -43l-32 -11q-17 21 -38 18.5t-43 -2.5l-16 -5l-5 -54l27 -27l69 -16l6 -27l-97 -43q-16 -21 -29.5 -39.5t-7.5 -45.5
l42 -43h65l37 32l6 27l26 5l19 -19t3 -24l-48 -53q-27 -11 -54 -13.5t-59 -2.5z" />
    <glyph glyph-name="zeta" unicode="&#x3b6;" horiz-adv-x="692" 
d="M332 56l-22 16v21l49 38v16q-22 32 -57 45.5t-51 45.5v32q22 59 51.5 118t61.5 118h-16l-43 -5l-48 32v32l16 22h21l11 -38h38l112 16l11 -32q-48 -38 -80.5 -88.5t-59.5 -104.5l-26 -91q26 -16 55.5 -35t45.5 -51l6 -37l-27 -43z" />
    <glyph glyph-name="eta" unicode="&#x3b7;" horiz-adv-x="696" 
d="M466 63l-27 26v54q11 27 13.5 53.5t2.5 59.5h-21q-43 -27 -83 -62t-73 -78l-10 -27l-32 -5l-11 43q27 32 37.5 75t5.5 91l-70 16l-5 27q16 11 37.5 11t42.5 5l43 -37v-75h11q32 21 64 45t80 19q27 -22 30 -51.5t3 -61.5l-16 -75l26 -5l6 -27z" />
    <glyph glyph-name="theta" unicode="&#x3b8;" horiz-adv-x="700" 
d="M312 48l-75 43q-16 26 -21.5 58.5t-5.5 64.5q16 86 53.5 161t64.5 150l43 37h21l11 -32l59 -21q32 -48 40 -110t3 -126q-22 -48 -46 -99t-67 -94q-16 -16 -37.5 -24t-42.5 -8zM355 112q37 32 58.5 72.5t37.5 83.5h-32l-43 -6l-102 22l-16 -124l32 -53l38 -11zM456 316v91
l-26 64q-11 11 -30 11h-35l-69 -155l118 -17z" />
    <glyph glyph-name="iota" unicode="&#x3b9;" horiz-adv-x="696" 
d="M369 74l-48 22q-21 21 -21 53.5v64.5l32 128l27 6l10 -32q-10 -43 -15.5 -86t-5.5 -91q16 -16 37.5 -16t37.5 -6l5 -27q-10 -10 -26.5 -13t-32.5 -3z" />
    <glyph glyph-name="kappa" unicode="&#x3ba;" horiz-adv-x="752" 
d="M512 -9q-59 33 -97 86.5t-70 106.5h-10l-81 -26l-5 -54l5 -32l-32 -11q-21 11 -21 32.5v42.5q5 59 10.5 115.5t26.5 104.5l27 5l11 -32q-11 -27 -13.5 -59t-8.5 -64h27q54 27 86 75t80 75h22l10 -32q-32 -16 -50.5 -43t-40.5 -54v-32q32 -37 61.5 -80t72.5 -75l22 -6
l5 -27z" />
    <glyph glyph-name="lambda" unicode="&#x3bb;" horiz-adv-x="700" 
d="M410 41q-27 11 -48.5 32t-32.5 48l-10 43h-11q-16 -27 -37.5 -51t-26.5 -56l-27 -5l-16 32l80 123h16v16q-16 48 -13.5 102t-18.5 96l-38 17l-5 26q11 11 24.5 11h29.5l43 -37q10 -92 18 -183t78 -161l32 -5l70 32l11 -32q-27 -21 -54 -37.5t-64 -10.5z" />
    <glyph glyph-name="mu" unicode="&#x3bc;" horiz-adv-x="876" 
d="M204 27l-11 32l225 268h22l10 -43l-21 -86l5 -16h27l54 32t43 49l16 59l27 5q5 -59 32 -112.5t59 -102.5l-32 -10q-27 16 -46 45.5t-30 56.5h-10q-32 -27 -67 -48.5t-78 -21.5q-16 5 -27 16t-16 27v21h-16l-139 -166z" />
    <glyph glyph-name="nu" unicode="&#x3bd;" horiz-adv-x="796" 
d="M289 51q-11 10 -13.5 23.5t-2.5 29.5l5 172l-32 53l-48 11l-6 27q11 16 27 16h32l43 -32q32 -43 32 -99.5v-115.5h11q70 54 137 102.5t142 85.5l10 -37q-80 -59 -160.5 -115.5t-155.5 -120.5h-21z" />
    <glyph glyph-name="xi" unicode="&#x3be;" horiz-adv-x="700" 
d="M346 56q-21 5 -34.5 24t-18.5 40l16 21h21l16 -32l27 -5q16 11 27 24t5 35q-21 37 -61 61.5t-62 61.5v16l38 70l26 27q-21 10 -37 26.5t-22 42.5l49 92q-22 0 -38 5t-21 21v22l32 11q27 -17 61.5 -17t61.5 -16l6 -32l-81 -53l-16 -43l86 -49l5 -32l-86 -48l-10 -37
q37 -22 66.5 -51.5t51.5 -66.5v-54l-65 -59z" />
    <glyph glyph-name="omicron" unicode="&#x3bf;" horiz-adv-x="696" 
d="M325 56l-64 37q-16 22 -19 48.5t-3 53.5q6 43 19.5 80.5t34.5 69.5l80 32l11 -26l81 -32q21 -27 21 -62v-73q0 -21 -10.5 -39.5t-27.5 -35.5q-26 -16 -55.5 -34.5t-67.5 -18.5zM368 115l64 53l6 108q-22 21 -48.5 26.5t-58.5 10.5q-27 -37 -35 -83t-8 -94
q10 -16 23.5 -26.5t35.5 -5.5z" />
    <glyph glyph-name="pi" unicode="&#x3c0;" horiz-adv-x="872" 
d="M491 37l-75 43q-27 54 -29.5 118t-2.5 134l-48 5l-6 -26l-21 -16q-16 -54 -37.5 -110.5t-26.5 -115.5l-27 -5q-16 11 -16 27v32l80 225q-21 5 -45.5 10.5t-34.5 27.5v21l32 11q75 -27 155.5 -40.5t160.5 -18.5l6 -27q-17 -16 -41 -16h-51l-32 5v-112q6 -27 8.5 -56.5
t23.5 -50.5q16 -17 37.5 -17h43.5q37 6 72 24.5t73 29.5l10 -32q-43 -38 -96.5 -54t-112.5 -16z" />
    <glyph glyph-name="rho" unicode="&#x3c1;" horiz-adv-x="696" 
d="M253 -26q-16 16 -19 35t-3 40q11 75 32.5 145t64.5 134q21 21 50.5 32t61.5 5l43 -32q11 -21 11 -45v-46l-37 -75l-81 -21l-70 48l-26 -182l5 -27zM424 205q16 16 19 42.5t3 53.5q-6 16 -19 16h-29q-22 -10 -40.5 -29t-24.5 -46l16 -5l38 -43h16z" />
    <glyph glyph-name="sigma1" unicode="&#x3c2;" horiz-adv-x="512" 
 />
    <glyph glyph-name="sigma" unicode="&#x3c3;" horiz-adv-x="752" 
d="M324 49q-27 5 -54 18.5t-48 29.5q-16 33 -19 67.5t-3 72.5q11 27 24.5 48t34.5 43l54 48q59 5 110 21.5t115 10.5l38 -32v-21l-32 -11q-17 16 -41 16h-51l-21 -5v-11l64 -70l6 -59q0 -37 -16.5 -72t-48.5 -62q-27 -16 -53.5 -21.5t-58.5 -10.5zM404 119q32 27 40 64.5
t8 74.5q-21 27 -48 48.5t-59 21.5q-27 -16 -53.5 -37.5t-42.5 -53.5v-70l10 -37q16 -17 37.5 -25t43.5 -8z" />
    <glyph glyph-name="tau" unicode="&#x3c4;" horiz-adv-x="700" 
d="M411 60q-27 10 -51 29t-35 46l-11 102l22 102l-118 10l-5 27l10 11h263l16 -38q-27 -16 -56.5 -13t-61.5 3q-5 -43 -16 -83.5t-5 -88.5l32 -43q11 -16 29.5 -16h40.5l37 11l11 -32q-22 -22 -48.5 -24.5t-53.5 -2.5z" />
    <glyph glyph-name="upsilon" unicode="&#x3c5;" horiz-adv-x="696" 
d="M333 50l-75 38q-27 27 -29.5 64.5t-2.5 74.5l5 102l-21 48l32 11q38 -27 38 -69.5v-85.5l-6 -86l38 -43l48 -5q27 10 48.5 31.5t31.5 48.5l6 134l-6 27l17 21h21q16 -37 16 -80v-86l-54 -102q-26 -16 -50.5 -29.5t-56.5 -13.5z" />
    <glyph glyph-name="phi" unicode="&#x3c6;" horiz-adv-x="772" 
d="M313 -51l-11 5l-11 32q16 16 19 37.5t3 48.5q-22 0 -35 13.5t-30 29.5q-21 27 -34.5 59t-13.5 70q11 43 35 80.5t62 69.5q21 16 42.5 26.5t53.5 5.5l32 -5q11 32 13.5 72t13.5 72l27 6q16 -16 13.5 -40.5t-2.5 -45.5l-22 -75q27 0 48.5 -16t37.5 -38q27 -27 32.5 -64.5
t-0.5 -74.5q-5 -27 -18.5 -51t-34.5 -46q-38 -26 -81 -45t-91 -19l-21 -102zM329 120q21 65 45.5 124t34.5 128h-59q-32 -21 -56 -48t-40 -59l-6 -48q6 -32 27.5 -56.5t48.5 -45.5zM474 136l59 59l5 102l-80 70q-11 -70 -38 -131.5t-43 -131.5h27z" />
    <glyph glyph-name="chi" unicode="&#x3c7;" horiz-adv-x="840" 
d="M202 -1l-10 32q53 64 120 123t78 139q-16 16 -37.5 13.5t-42.5 -2.5l-43 -16l-11 32q22 32 56.5 32h72.5l43 -26v-17h10q38 38 81 67.5t102 18.5l16 -43l-32 -10l-38 5q-32 -16 -64 -43t-54 -59v-37q27 -38 67 -54t83 -11l32 11l6 16l27 5l10 -42q-27 -22 -56.5 -30
t-61.5 -8q-43 5 -77.5 24t-61.5 51l-5 16h-17q-26 -48 -71.5 -88t-78.5 -83z" />
    <glyph glyph-name="psi" unicode="&#x3c8;" horiz-adv-x="744" 
d="M360 -25q-22 27 -19 62t3 67q-32 11 -64.5 24.5t-53.5 45.5q-11 16 -16.5 40t-5.5 45q6 33 16.5 59.5t26.5 53.5l38 11l11 -32q-27 -22 -35 -57t-8 -67l48 -59l43 -16l32 322l27 5q16 -21 13 -50.5t-3 -56.5l-21 -225h38l64 27l5 64l-5 27l32 11q22 -22 22 -51.5v-56.5
l-22 -32q-32 -16 -64 -26.5t-70 -10.5l-5 -118z" />
    <glyph glyph-name="omega" unicode="&#x3c9;" horiz-adv-x="816" 
d="M318 85q-26 6 -47.5 14t-37.5 29q-17 22 -25 48.5t-8 53.5l33 80l26 6l11 -32q-11 -16 -16 -40.5t-5 -45.5l37 -54l59 -10l38 32l10 69l27 6q11 -22 11 -48.5t27 -42.5l64 -11l54 53v43q-16 11 -27 24.5t-5 34.5l32 11q32 -21 42.5 -48t5.5 -65l-48 -75q-22 -16 -46 -24
t-51 -2l-75 26q-16 -16 -37.5 -24t-48.5 -8z" />
    <glyph glyph-name="iotadieresis" unicode="&#x3ca;" horiz-adv-x="512" 
 />
    <glyph glyph-name="upsilondieresis" unicode="&#x3cb;" horiz-adv-x="512" 
 />
    <glyph glyph-name="omicrontonos" unicode="&#x3cc;" horiz-adv-x="512" 
 />
    <glyph glyph-name="upsilontonos" unicode="&#x3cd;" horiz-adv-x="512" 
 />
    <glyph glyph-name="omegatonos" unicode="&#x3ce;" horiz-adv-x="512" 
 />
    <glyph glyph-name="afii10023" unicode="&#x401;" 
 />
    <glyph glyph-name="afii10051" unicode="&#x402;" horiz-adv-x="512" 
 />
    <glyph glyph-name="afii10052" unicode="&#x403;" horiz-adv-x="512" 
 />
    <glyph glyph-name="afii10053" unicode="&#x404;" horiz-adv-x="512" 
 />
    <glyph glyph-name="afii10054" unicode="&#x405;" horiz-adv-x="512" 
 />
    <glyph glyph-name="afii10055" unicode="&#x406;" horiz-adv-x="512" 
 />
    <glyph glyph-name="afii10056" unicode="&#x407;" horiz-adv-x="512" 
 />
    <glyph glyph-name="afii10057" unicode="&#x408;" horiz-adv-x="512" 
 />
    <glyph glyph-name="afii10058" unicode="&#x409;" horiz-adv-x="512" 
 />
    <glyph glyph-name="afii10059" unicode="&#x40a;" horiz-adv-x="512" 
 />
    <glyph glyph-name="afii10060" unicode="&#x40b;" horiz-adv-x="512" 
 />
    <glyph glyph-name="afii10061" unicode="&#x40c;" horiz-adv-x="512" 
 />
    <glyph glyph-name="afii10062" unicode="&#x40e;" horiz-adv-x="512" 
 />
    <glyph glyph-name="afii10145" unicode="&#x40f;" horiz-adv-x="512" 
 />
    <glyph glyph-name="afii10017" unicode="&#x410;" 
 />
    <glyph glyph-name="afii10018" unicode="&#x411;" 
 />
    <glyph glyph-name="afii10019" unicode="&#x412;" 
 />
    <glyph glyph-name="afii10020" unicode="&#x413;" 
 />
    <glyph glyph-name="afii10021" unicode="&#x414;" 
 />
    <glyph glyph-name="afii10022" unicode="&#x415;" 
 />
    <glyph glyph-name="afii10024" unicode="&#x416;" 
 />
    <glyph glyph-name="afii10025" unicode="&#x417;" 
 />
    <glyph glyph-name="afii10026" unicode="&#x418;" 
 />
    <glyph glyph-name="afii10027" unicode="&#x419;" 
 />
    <glyph glyph-name="afii10028" unicode="&#x41a;" 
 />
    <glyph glyph-name="afii10029" unicode="&#x41b;" 
 />
    <glyph glyph-name="afii10030" unicode="&#x41c;" 
 />
    <glyph glyph-name="afii10031" unicode="&#x41d;" 
 />
    <glyph glyph-name="afii10032" unicode="&#x41e;" 
 />
    <glyph glyph-name="afii10033" unicode="&#x41f;" 
 />
    <glyph glyph-name="afii10034" unicode="&#x420;" 
 />
    <glyph glyph-name="afii10035" unicode="&#x421;" 
 />
    <glyph glyph-name="afii10036" unicode="&#x422;" 
 />
    <glyph glyph-name="afii10037" unicode="&#x423;" 
 />
    <glyph glyph-name="afii10038" unicode="&#x424;" 
 />
    <glyph glyph-name="afii10039" unicode="&#x425;" 
 />
    <glyph glyph-name="afii10040" unicode="&#x426;" 
 />
    <glyph glyph-name="afii10041" unicode="&#x427;" 
 />
    <glyph glyph-name="afii10042" unicode="&#x428;" 
 />
    <glyph glyph-name="afii10043" unicode="&#x429;" 
 />
    <glyph glyph-name="afii10044" unicode="&#x42a;" 
 />
    <glyph glyph-name="afii10045" unicode="&#x42b;" 
 />
    <glyph glyph-name="afii10046" unicode="&#x42c;" 
 />
    <glyph glyph-name="afii10047" unicode="&#x42d;" 
 />
    <glyph glyph-name="afii10048" unicode="&#x42e;" 
 />
    <glyph glyph-name="afii10049" unicode="&#x42f;" 
 />
    <glyph glyph-name="afii10065" unicode="&#x430;" 
 />
    <glyph glyph-name="afii10066" unicode="&#x431;" 
 />
    <glyph glyph-name="afii10067" unicode="&#x432;" 
 />
    <glyph glyph-name="afii10068" unicode="&#x433;" 
 />
    <glyph glyph-name="afii10069" unicode="&#x434;" 
 />
    <glyph glyph-name="afii10070" unicode="&#x435;" 
 />
    <glyph glyph-name="afii10072" unicode="&#x436;" 
 />
    <glyph glyph-name="afii10073" unicode="&#x437;" 
 />
    <glyph glyph-name="afii10074" unicode="&#x438;" 
 />
    <glyph glyph-name="afii10075" unicode="&#x439;" 
 />
    <glyph glyph-name="afii10076" unicode="&#x43a;" 
 />
    <glyph glyph-name="afii10077" unicode="&#x43b;" 
 />
    <glyph glyph-name="afii10078" unicode="&#x43c;" 
 />
    <glyph glyph-name="afii10079" unicode="&#x43d;" 
 />
    <glyph glyph-name="afii10080" unicode="&#x43e;" 
 />
    <glyph glyph-name="afii10081" unicode="&#x43f;" 
 />
    <glyph glyph-name="afii10082" unicode="&#x440;" 
 />
    <glyph glyph-name="afii10083" unicode="&#x441;" 
 />
    <glyph glyph-name="afii10084" unicode="&#x442;" 
 />
    <glyph glyph-name="afii10085" unicode="&#x443;" 
 />
    <glyph glyph-name="afii10086" unicode="&#x444;" 
 />
    <glyph glyph-name="afii10087" unicode="&#x445;" 
 />
    <glyph glyph-name="afii10088" unicode="&#x446;" 
 />
    <glyph glyph-name="afii10089" unicode="&#x447;" 
 />
    <glyph glyph-name="afii10090" unicode="&#x448;" 
 />
    <glyph glyph-name="afii10091" unicode="&#x449;" 
 />
    <glyph glyph-name="afii10092" unicode="&#x44a;" 
 />
    <glyph glyph-name="afii10093" unicode="&#x44b;" 
 />
    <glyph glyph-name="afii10094" unicode="&#x44c;" 
 />
    <glyph glyph-name="afii10095" unicode="&#x44d;" 
 />
    <glyph glyph-name="afii10096" unicode="&#x44e;" 
 />
    <glyph glyph-name="afii10097" unicode="&#x44f;" 
 />
    <glyph glyph-name="afii10071" unicode="&#x451;" 
 />
    <glyph glyph-name="afii10099" unicode="&#x452;" horiz-adv-x="512" 
 />
    <glyph glyph-name="afii10100" unicode="&#x453;" horiz-adv-x="512" 
 />
    <glyph glyph-name="afii10101" unicode="&#x454;" horiz-adv-x="512" 
 />
    <glyph glyph-name="afii10102" unicode="&#x455;" horiz-adv-x="512" 
 />
    <glyph glyph-name="afii10103" unicode="&#x456;" horiz-adv-x="512" 
 />
    <glyph glyph-name="afii10104" unicode="&#x457;" horiz-adv-x="512" 
 />
    <glyph glyph-name="afii10105" unicode="&#x458;" horiz-adv-x="512" 
 />
    <glyph glyph-name="afii10106" unicode="&#x459;" horiz-adv-x="512" 
 />
    <glyph glyph-name="afii10107" unicode="&#x45a;" horiz-adv-x="512" 
 />
    <glyph glyph-name="afii10108" unicode="&#x45b;" horiz-adv-x="512" 
 />
    <glyph glyph-name="afii10109" unicode="&#x45c;" horiz-adv-x="512" 
 />
    <glyph glyph-name="afii10110" unicode="&#x45e;" horiz-adv-x="512" 
 />
    <glyph glyph-name="afii10193" unicode="&#x45f;" horiz-adv-x="512" 
 />
    <glyph glyph-name="uni0460" unicode="&#x460;" horiz-adv-x="512" 
 />
    <glyph glyph-name="uni0461" unicode="&#x461;" horiz-adv-x="512" 
 />
    <glyph glyph-name="afii10146" unicode="&#x462;" horiz-adv-x="512" 
 />
    <glyph glyph-name="afii10194" unicode="&#x463;" horiz-adv-x="512" 
 />
    <glyph glyph-name="uni0464" unicode="&#x464;" horiz-adv-x="512" 
 />
    <glyph glyph-name="uni0465" unicode="&#x465;" horiz-adv-x="512" 
 />
    <glyph glyph-name="uni0466" unicode="&#x466;" horiz-adv-x="512" 
 />
    <glyph glyph-name="uni0467" unicode="&#x467;" horiz-adv-x="512" 
 />
    <glyph glyph-name="uni0468" unicode="&#x468;" horiz-adv-x="512" 
 />
    <glyph glyph-name="uni0469" unicode="&#x469;" horiz-adv-x="512" 
 />
    <glyph glyph-name="uni046A" unicode="&#x46a;" horiz-adv-x="512" 
 />
    <glyph glyph-name="uni046B" unicode="&#x46b;" horiz-adv-x="512" 
 />
    <glyph glyph-name="uni046C" unicode="&#x46c;" horiz-adv-x="512" 
 />
    <glyph glyph-name="uni046D" unicode="&#x46d;" horiz-adv-x="512" 
 />
    <glyph glyph-name="uni046E" unicode="&#x46e;" horiz-adv-x="512" 
 />
    <glyph glyph-name="uni046F" unicode="&#x46f;" horiz-adv-x="512" 
 />
    <glyph glyph-name="uni0470" unicode="&#x470;" horiz-adv-x="512" 
 />
    <glyph glyph-name="uni0471" unicode="&#x471;" horiz-adv-x="512" 
 />
    <glyph glyph-name="afii10147" unicode="&#x472;" horiz-adv-x="512" 
 />
    <glyph glyph-name="afii10195" unicode="&#x473;" horiz-adv-x="512" 
 />
    <glyph glyph-name="afii10148" unicode="&#x474;" horiz-adv-x="512" 
 />
    <glyph glyph-name="afii10196" unicode="&#x475;" horiz-adv-x="512" 
 />
    <glyph glyph-name="uni0476" unicode="&#x476;" horiz-adv-x="512" 
 />
    <glyph glyph-name="uni0477" unicode="&#x477;" horiz-adv-x="512" 
 />
    <glyph glyph-name="uni0478" unicode="&#x478;" horiz-adv-x="512" 
 />
    <glyph glyph-name="uni0479" unicode="&#x479;" horiz-adv-x="512" 
 />
    <glyph glyph-name="uni047A" unicode="&#x47a;" horiz-adv-x="512" 
 />
    <glyph glyph-name="uni047B" unicode="&#x47b;" horiz-adv-x="512" 
 />
    <glyph glyph-name="uni047C" unicode="&#x47c;" horiz-adv-x="512" 
 />
    <glyph glyph-name="uni047D" unicode="&#x47d;" horiz-adv-x="512" 
 />
    <glyph glyph-name="uni047E" unicode="&#x47e;" horiz-adv-x="512" 
 />
    <glyph glyph-name="uni047F" unicode="&#x47f;" horiz-adv-x="512" 
 />
    <glyph glyph-name="uni0480" unicode="&#x480;" horiz-adv-x="512" 
 />
    <glyph glyph-name="uni0481" unicode="&#x481;" horiz-adv-x="512" 
 />
    <glyph glyph-name="uni0482" unicode="&#x482;" horiz-adv-x="512" 
 />
    <glyph glyph-name="uni0483" unicode="&#x483;" horiz-adv-x="512" 
 />
    <glyph glyph-name="uni0484" unicode="&#x484;" horiz-adv-x="512" 
 />
    <glyph glyph-name="uni0485" unicode="&#x485;" horiz-adv-x="512" 
 />
    <glyph glyph-name="uni0486" unicode="&#x486;" horiz-adv-x="512" 
 />
    <glyph glyph-name="afii10050" unicode="&#x490;" horiz-adv-x="512" 
 />
    <glyph glyph-name="afii10098" unicode="&#x491;" horiz-adv-x="512" 
 />
    <glyph glyph-name="uni0492" unicode="&#x492;" horiz-adv-x="512" 
 />
    <glyph glyph-name="uni0493" unicode="&#x493;" horiz-adv-x="512" 
 />
    <glyph glyph-name="uni0494" unicode="&#x494;" horiz-adv-x="512" 
 />
    <glyph glyph-name="uni0495" unicode="&#x495;" horiz-adv-x="512" 
 />
    <glyph glyph-name="uni0496" unicode="&#x496;" horiz-adv-x="512" 
 />
    <glyph glyph-name="uni0497" unicode="&#x497;" horiz-adv-x="512" 
 />
    <glyph glyph-name="uni0498" unicode="&#x498;" horiz-adv-x="512" 
 />
    <glyph glyph-name="uni0499" unicode="&#x499;" horiz-adv-x="512" 
 />
    <glyph glyph-name="uni049A" unicode="&#x49a;" horiz-adv-x="512" 
 />
    <glyph glyph-name="uni049B" unicode="&#x49b;" horiz-adv-x="512" 
 />
    <glyph glyph-name="uni049C" unicode="&#x49c;" horiz-adv-x="512" 
 />
    <glyph glyph-name="uni049D" unicode="&#x49d;" horiz-adv-x="512" 
 />
    <glyph glyph-name="uni049E" unicode="&#x49e;" horiz-adv-x="512" 
 />
    <glyph glyph-name="uni049F" unicode="&#x49f;" horiz-adv-x="512" 
 />
    <glyph glyph-name="uni04A0" unicode="&#x4a0;" horiz-adv-x="512" 
 />
    <glyph glyph-name="uni04A1" unicode="&#x4a1;" horiz-adv-x="512" 
 />
    <glyph glyph-name="uni04A2" unicode="&#x4a2;" horiz-adv-x="512" 
 />
    <glyph glyph-name="uni04A3" unicode="&#x4a3;" horiz-adv-x="512" 
 />
    <glyph glyph-name="uni04A4" unicode="&#x4a4;" horiz-adv-x="512" 
 />
    <glyph glyph-name="uni04A5" unicode="&#x4a5;" horiz-adv-x="512" 
 />
    <glyph glyph-name="uni04A6" unicode="&#x4a6;" horiz-adv-x="512" 
 />
    <glyph glyph-name="uni04A7" unicode="&#x4a7;" horiz-adv-x="512" 
 />
    <glyph glyph-name="uni04A8" unicode="&#x4a8;" horiz-adv-x="512" 
 />
    <glyph glyph-name="uni04A9" unicode="&#x4a9;" horiz-adv-x="512" 
 />
    <glyph glyph-name="uni04AA" unicode="&#x4aa;" horiz-adv-x="512" 
 />
    <glyph glyph-name="uni04AB" unicode="&#x4ab;" horiz-adv-x="512" 
 />
    <glyph glyph-name="uni04AC" unicode="&#x4ac;" horiz-adv-x="512" 
 />
    <glyph glyph-name="uni04AD" unicode="&#x4ad;" horiz-adv-x="512" 
 />
    <glyph glyph-name="uni04AE" unicode="&#x4ae;" horiz-adv-x="512" 
 />
    <glyph glyph-name="uni04AF" unicode="&#x4af;" horiz-adv-x="512" 
 />
    <glyph glyph-name="uni04B0" unicode="&#x4b0;" horiz-adv-x="512" 
 />
    <glyph glyph-name="uni04B1" unicode="&#x4b1;" horiz-adv-x="512" 
 />
    <glyph glyph-name="uni04B2" unicode="&#x4b2;" horiz-adv-x="512" 
 />
    <glyph glyph-name="uni04B3" unicode="&#x4b3;" horiz-adv-x="512" 
 />
    <glyph glyph-name="uni04B4" unicode="&#x4b4;" horiz-adv-x="512" 
 />
    <glyph glyph-name="uni04B5" unicode="&#x4b5;" horiz-adv-x="512" 
 />
    <glyph glyph-name="uni04B6" unicode="&#x4b6;" horiz-adv-x="512" 
 />
    <glyph glyph-name="uni04B7" unicode="&#x4b7;" horiz-adv-x="512" 
 />
    <glyph glyph-name="uni04B8" unicode="&#x4b8;" horiz-adv-x="512" 
 />
    <glyph glyph-name="uni04B9" unicode="&#x4b9;" horiz-adv-x="512" 
 />
    <glyph glyph-name="uni04BA" unicode="&#x4ba;" horiz-adv-x="512" 
 />
    <glyph glyph-name="uni04BB" unicode="&#x4bb;" horiz-adv-x="512" 
 />
    <glyph glyph-name="uni04BC" unicode="&#x4bc;" horiz-adv-x="512" 
 />
    <glyph glyph-name="uni04BD" unicode="&#x4bd;" horiz-adv-x="512" 
 />
    <glyph glyph-name="uni04BE" unicode="&#x4be;" horiz-adv-x="512" 
 />
    <glyph glyph-name="uni04BF" unicode="&#x4bf;" horiz-adv-x="512" 
 />
    <glyph glyph-name="uni04C0" unicode="&#x4c0;" horiz-adv-x="512" 
 />
    <glyph glyph-name="uni04C1" unicode="&#x4c1;" horiz-adv-x="512" 
 />
    <glyph glyph-name="uni04C2" unicode="&#x4c2;" horiz-adv-x="512" 
 />
    <glyph glyph-name="uni04C3" unicode="&#x4c3;" horiz-adv-x="512" 
 />
    <glyph glyph-name="uni04C4" unicode="&#x4c4;" horiz-adv-x="512" 
 />
    <glyph glyph-name="uni04C7" unicode="&#x4c7;" horiz-adv-x="512" 
 />
    <glyph glyph-name="uni04C8" unicode="&#x4c8;" horiz-adv-x="512" 
 />
    <glyph glyph-name="uni04CB" unicode="&#x4cb;" horiz-adv-x="512" 
 />
    <glyph glyph-name="uni04CC" unicode="&#x4cc;" horiz-adv-x="512" 
 />
    <glyph glyph-name="uni04D0" unicode="&#x4d0;" horiz-adv-x="512" 
 />
    <glyph glyph-name="uni04D1" unicode="&#x4d1;" horiz-adv-x="512" 
 />
    <glyph glyph-name="uni04D2" unicode="&#x4d2;" horiz-adv-x="512" 
 />
    <glyph glyph-name="uni04D3" unicode="&#x4d3;" horiz-adv-x="512" 
 />
    <glyph glyph-name="uni04D4" unicode="&#x4d4;" horiz-adv-x="512" 
 />
    <glyph glyph-name="uni04D5" unicode="&#x4d5;" horiz-adv-x="512" 
 />
    <glyph glyph-name="uni04D6" unicode="&#x4d6;" horiz-adv-x="512" 
 />
    <glyph glyph-name="uni04D7" unicode="&#x4d7;" horiz-adv-x="512" 
 />
    <glyph glyph-name="uni04D8" unicode="&#x4d8;" horiz-adv-x="512" 
 />
    <glyph glyph-name="afii10846" unicode="&#x4d9;" horiz-adv-x="512" 
 />
    <glyph glyph-name="uni04DA" unicode="&#x4da;" horiz-adv-x="512" 
 />
    <glyph glyph-name="uni04DB" unicode="&#x4db;" horiz-adv-x="512" 
 />
    <glyph glyph-name="uni04DC" unicode="&#x4dc;" horiz-adv-x="512" 
 />
    <glyph glyph-name="uni04DD" unicode="&#x4dd;" horiz-adv-x="512" 
 />
    <glyph glyph-name="uni04DE" unicode="&#x4de;" horiz-adv-x="512" 
 />
    <glyph glyph-name="uni04DF" unicode="&#x4df;" horiz-adv-x="512" 
 />
    <glyph glyph-name="uni04E0" unicode="&#x4e0;" horiz-adv-x="512" 
 />
    <glyph glyph-name="uni04E1" unicode="&#x4e1;" horiz-adv-x="512" 
 />
    <glyph glyph-name="uni04E2" unicode="&#x4e2;" horiz-adv-x="512" 
 />
    <glyph glyph-name="uni04E3" unicode="&#x4e3;" horiz-adv-x="512" 
 />
    <glyph glyph-name="uni04E4" unicode="&#x4e4;" horiz-adv-x="512" 
 />
    <glyph glyph-name="uni04E5" unicode="&#x4e5;" horiz-adv-x="512" 
 />
    <glyph glyph-name="uni04E6" unicode="&#x4e6;" horiz-adv-x="512" 
 />
    <glyph glyph-name="uni04E7" unicode="&#x4e7;" horiz-adv-x="512" 
 />
    <glyph glyph-name="uni04E8" unicode="&#x4e8;" horiz-adv-x="512" 
 />
    <glyph glyph-name="uni04E9" unicode="&#x4e9;" horiz-adv-x="512" 
 />
    <glyph glyph-name="uni04EA" unicode="&#x4ea;" horiz-adv-x="512" 
 />
    <glyph glyph-name="uni04EB" unicode="&#x4eb;" horiz-adv-x="512" 
 />
    <glyph glyph-name="uni04EE" unicode="&#x4ee;" horiz-adv-x="512" 
 />
    <glyph glyph-name="uni04EF" unicode="&#x4ef;" horiz-adv-x="512" 
 />
    <glyph glyph-name="uni04F0" unicode="&#x4f0;" horiz-adv-x="512" 
 />
    <glyph glyph-name="uni04F1" unicode="&#x4f1;" horiz-adv-x="512" 
 />
    <glyph glyph-name="uni04F2" unicode="&#x4f2;" horiz-adv-x="512" 
 />
    <glyph glyph-name="uni04F3" unicode="&#x4f3;" horiz-adv-x="512" 
 />
    <glyph glyph-name="uni04F4" unicode="&#x4f4;" horiz-adv-x="512" 
 />
    <glyph glyph-name="uni04F5" unicode="&#x4f5;" horiz-adv-x="512" 
 />
    <glyph glyph-name="uni04F8" unicode="&#x4f8;" horiz-adv-x="512" 
 />
    <glyph glyph-name="uni04F9" unicode="&#x4f9;" horiz-adv-x="512" 
 />
    <glyph glyph-name="Wgrave" unicode="&#x1e80;" horiz-adv-x="512" 
 />
    <glyph glyph-name="wgrave" unicode="&#x1e81;" horiz-adv-x="512" 
 />
    <glyph glyph-name="Wacute" unicode="&#x1e82;" horiz-adv-x="512" 
 />
    <glyph glyph-name="wacute" unicode="&#x1e83;" horiz-adv-x="512" 
 />
    <glyph glyph-name="Wdieresis" unicode="&#x1e84;" horiz-adv-x="512" 
 />
    <glyph glyph-name="wdieresis" unicode="&#x1e85;" horiz-adv-x="512" 
 />
    <glyph glyph-name="Ygrave" unicode="&#x1ef2;" horiz-adv-x="512" 
 />
    <glyph glyph-name="ygrave" unicode="&#x1ef3;" horiz-adv-x="512" 
 />
    <glyph glyph-name="uni2000" unicode="&#x2000;" horiz-adv-x="512" 
 />
    <glyph glyph-name="uni2001" unicode="&#x2001;" 
 />
    <glyph glyph-name="uni2002" unicode="&#x2002;" horiz-adv-x="512" 
 />
    <glyph glyph-name="uni2003" unicode="&#x2003;" 
 />
    <glyph glyph-name="uni2004" unicode="&#x2004;" horiz-adv-x="512" 
 />
    <glyph glyph-name="uni2005" unicode="&#x2005;" horiz-adv-x="512" 
 />
    <glyph glyph-name="uni2006" unicode="&#x2006;" horiz-adv-x="512" 
 />
    <glyph glyph-name="uni2007" unicode="&#x2007;" horiz-adv-x="512" 
 />
    <glyph glyph-name="uni2008" unicode="&#x2008;" horiz-adv-x="512" 
 />
    <glyph glyph-name="uni2009" unicode="&#x2009;" horiz-adv-x="512" 
 />
    <glyph glyph-name="uni200A" unicode="&#x200a;" horiz-adv-x="512" 
 />
    <glyph glyph-name="uni200B" unicode="&#x200b;" horiz-adv-x="512" 
 />
    <glyph glyph-name="afii61664" unicode="&#x200c;" horiz-adv-x="512" 
 />
    <glyph glyph-name="afii301" unicode="&#x200d;" horiz-adv-x="512" 
 />
    <glyph glyph-name="afii299" unicode="&#x200e;" horiz-adv-x="512" 
 />
    <glyph glyph-name="afii300" unicode="&#x200f;" horiz-adv-x="512" 
 />
    <glyph glyph-name="uni2010" unicode="&#x2010;" horiz-adv-x="692" 
d="M367 344l-129 27l-5 26q10 11 23.5 11h24.5q27 -11 59 -11t64 -5l65 5l10 -32q-21 -16 -53.5 -18.5t-58.5 -2.5z" />
    <glyph glyph-name="uni2011" unicode="&#x2011;" horiz-adv-x="512" 
 />
    <glyph glyph-name="figuredash" unicode="&#x2012;" horiz-adv-x="512" 
 />
    <glyph glyph-name="endash" unicode="&#x2013;" horiz-adv-x="512" 
 />
    <glyph glyph-name="emdash" unicode="&#x2014;" horiz-adv-x="512" 
 />
    <glyph glyph-name="afii00208" unicode="&#x2015;" 
d="M86 360l-32 16l-6 27l32 11l145 -6l199 6l128 -6l48 11h349l16 -38l-11 -10h-354q-37 -11 -82.5 -11h-88.5l-198 5z" />
    <glyph glyph-name="underscoredbl" unicode="&#x2017;" horiz-adv-x="512" 
 />
    <glyph glyph-name="quoteleft" unicode="&#x2018;" horiz-adv-x="696" 
d="M468 569l-38 43v16l11 43l-6 37l59 70h22l10 -32l-37 -48q21 5 40 -3t35 -24l11 -54l-43 -37z" />
    <glyph glyph-name="quoteright" unicode="&#x2019;" horiz-adv-x="700" 
d="M188 542l-11 32l64 54h-16l-64 -16l-38 16l-16 59q6 21 24.5 34.5t34.5 24.5h48q33 -32 54.5 -67t21.5 -78q-11 -21 -30 -32t-35 -21z" />
    <glyph glyph-name="quotesinglbase" unicode="&#x201a;" horiz-adv-x="512" 
 />
    <glyph glyph-name="quotereversed" unicode="&#x201b;" horiz-adv-x="512" 
 />
    <glyph glyph-name="quotedblleft" unicode="&#x201c;" horiz-adv-x="696" 
d="M502 568q-16 5 -27 15.5t-16 27.5q0 42 -18.5 77t-18.5 78l32 32h43l10 -32l-26 -16l-6 -38l22 -10l53 5l22 -11q10 -16 18 -37.5t3 -47.5l-21 -27zM336 584l-38 32v21q-16 0 -21.5 19t-15.5 30l-11 53l43 48h43l10 -32l-37 -16l-5 -37l5 -11h11l53 11l54 -27l5 -54
q-21 -21 -45 -29t-51 -8z" />
    <glyph glyph-name="quotedblright" unicode="&#x201d;" horiz-adv-x="704" 
d="M198 569l-10 32l42 22v21l-21 16l-75 -27l-48 38v32l53 75h38l43 -27q16 -32 40 -61.5t19 -72.5l-16 -27zM375 590l-11 33l49 48h-16l-49 -5l-42 42l-6 33l48 59h22l37 -22l16 -53l22 -11q11 -16 16 -35t0 -40q-16 -22 -37.5 -35.5t-48.5 -13.5z" />
    <glyph glyph-name="quotedblbase" unicode="&#x201e;" horiz-adv-x="512" 
 />
    <glyph glyph-name="uni201F" unicode="&#x201f;" horiz-adv-x="512" 
 />
    <glyph glyph-name="dagger" unicode="&#x2020;" horiz-adv-x="820" 
d="M403 -34l-11 5l-11 22v262l-32 156l5 70h-21l-70 -6l-70 49v16l11 21q16 16 37.5 24t48.5 3l80 -27v11l-26 96l42 75l54 11q11 -27 13.5 -59t2.5 -64l-21 -81h10q27 16 62 24t72 8l43 -26l6 -43l-38 -38q-21 -10 -45.5 -15.5t-50.5 -0.5l-59 11v-16q10 -27 10 -64.5
v-69.5l-16 -27v-290l6 -26z" />
    <glyph glyph-name="daggerdbl" unicode="&#x2021;" horiz-adv-x="780" 
d="M383 -62l-38 43l-11 96l6 16h-16l-49 -10l-75 21l-10 27l48 53h96q6 59 22 113t5 118l-16 5l-16 59l16 59q-37 0 -69.5 3t-59.5 24l-10 27l16 21l21 6q16 27 45.5 27h56.5q-5 26 5.5 50.5t26.5 45.5l48 11q22 -22 19.5 -56.5t-2.5 -67.5h26l70 6l38 -22l10 -59
q-21 -26 -50.5 -37t-61.5 -11l-49 16q6 -59 -7.5 -107t-8.5 -107q22 -27 22 -62v-67l-6 -21h22q21 16 48 16h54q16 -16 18.5 -35t2.5 -40q-16 -16 -37.5 -19t-42.5 -3l-65 6v-11l6 -75l-22 -48z" />
    <glyph glyph-name="bullet" unicode="&#x2022;" horiz-adv-x="512" 
 />
    <glyph glyph-name="uni2023" unicode="&#x2023;" horiz-adv-x="512" 
 />
    <glyph glyph-name="onedotenleader" unicode="&#x2024;" horiz-adv-x="512" 
 />
    <glyph glyph-name="twodotenleader" unicode="&#x2025;" 
d="M745 258l-37 32q5 22 -0.5 40.5t-10.5 34.5l37 59h33q21 -21 40 -42.5t13 -53.5l-53 -65zM247 280l-38 32l-5 37l32 65l37 10l33 -32v-59l-33 -48z" />
    <glyph glyph-name="ellipsis" unicode="&#x2026;" 
d="M193 301q-27 5 -40.5 26.5t-7.5 48.5l10 21q17 6 30 22t35 11q11 -22 21.5 -43.5t5.5 -47.5l-24.5 -24.5t-29.5 -13.5zM483 306q-17 6 -27.5 19.5t-10.5 34.5l21 43l38 11l48 -33v-32l-37 -37zM820 312l-37 16l-11 32l27 48q11 16 27 16h32l16 -48l-22 -54z" />
    <glyph glyph-name="uni2027" unicode="&#x2027;" horiz-adv-x="512" 
 />
    <glyph glyph-name="uni2028" unicode="&#x2028;" horiz-adv-x="512" 
 />
    <glyph glyph-name="uni2029" unicode="&#x2029;" horiz-adv-x="512" 
 />
    <glyph glyph-name="uni202A" unicode="&#x202a;" horiz-adv-x="512" 
 />
    <glyph glyph-name="uni202B" unicode="&#x202b;" horiz-adv-x="512" 
 />
    <glyph glyph-name="afii61573" unicode="&#x202c;" horiz-adv-x="512" 
 />
    <glyph glyph-name="afii61574" unicode="&#x202d;" horiz-adv-x="512" 
 />
    <glyph glyph-name="afii61575" unicode="&#x202e;" horiz-adv-x="512" 
 />
    <glyph glyph-name="perthousand" unicode="&#x2030;" 
d="M558 66q-22 6 -40.5 14t-34.5 29l-27 86q5 43 26.5 75t48.5 65q11 10 27 13t32 3l21 -11l11 -32l59 -59l5 -75h11q-5 37 11 64t43 48q16 11 32 19t37 3l22 -11l5 -27l59 -32q22 -16 22 -43v-53l-38 -59l-59 -11q-32 5 -64 10.5t-54 37.5l-16 48h-16q0 -21 -16 -40
t-32 -35q-16 -10 -35 -18.5t-40 -8.5zM595 125q27 17 38 43.5t5 58.5q-16 22 -32 30t-43 2l-43 -16l-16 -75l32 -43l43 -10zM863 125q16 11 16 32.5v37.5q-16 27 -42.5 35t-53.5 19q-27 -16 -35 -40.5t-3 -50.5q22 -27 51.5 -30t61.5 -8zM300 136l-10 38q59 107 123 211.5
t129 206.5h21l11 -32q-65 -102 -126.5 -206.5t-120.5 -211.5zM231 329l-108 54q-10 16 -18 32t-3 37q5 43 29.5 78t56.5 67q11 11 29.5 13.5t34.5 2.5l27 -27l5 -16l54 -53q11 -22 16 -48.5t0 -53.5l-38 -70q-16 -16 -40 -16h-45zM284 383q22 16 22 40v51l-43 54
q-11 10 -27 13t-32 3q-27 -22 -40.5 -51.5t-13.5 -66.5q27 -27 59 -38t70 -11z" />
    <glyph glyph-name="uni2031" unicode="&#x2031;" horiz-adv-x="512" 
 />
    <glyph glyph-name="minute" unicode="&#x2032;" horiz-adv-x="800" 
d="M182 505l-10 32l128 204h22l10 -33l-128 -203h-22z" />
    <glyph glyph-name="second" unicode="&#x2033;" horiz-adv-x="800" 
d="M161 607l-11 32l102 134h21l11 -32l-102 -134h-21zM316 607l-10 32q26 32 45 72t51 67h22l10 -32q-32 -32 -50.5 -69.5t-45.5 -69.5h-22z" />
    <glyph glyph-name="uni2034" unicode="&#x2034;" horiz-adv-x="512" 
 />
    <glyph glyph-name="uni2035" unicode="&#x2035;" horiz-adv-x="512" 
 />
    <glyph glyph-name="uni2036" unicode="&#x2036;" horiz-adv-x="512" 
 />
    <glyph glyph-name="uni2037" unicode="&#x2037;" horiz-adv-x="512" 
 />
    <glyph glyph-name="uni2038" unicode="&#x2038;" horiz-adv-x="512" 
 />
    <glyph glyph-name="guilsinglleft" unicode="&#x2039;" horiz-adv-x="512" 
 />
    <glyph glyph-name="guilsinglright" unicode="&#x203a;" horiz-adv-x="512" 
 />
    <glyph glyph-name="uni203B" unicode="&#x203b;" horiz-adv-x="904" 
d="M406 58q-27 6 -29.5 27.5t-7.5 42.5l16 32l37 16l6 16l32 6l27 -22q10 -21 15.5 -42.5t0.5 -48.5q-22 -21 -48.5 -18.5t-48.5 -8.5zM621 133q-43 11 -75.5 46t-69.5 67l-43 48h-16q-43 -48 -91 -85.5t-107 -37.5l-11 32q48 16 91 48t80 75l6 22q-54 69 -115.5 133.5
t-72.5 150.5l32 11q27 -75 83.5 -134t104.5 -124l16 -5q59 54 118 113t107 123h22l10 -32q-48 -70 -109.5 -131.5t-115.5 -120.5l156 -150h16l32 5l11 -32q-11 -11 -27 -16.5t-32 -5.5zM706 278l-69 38l-16 43l48 64h59l59 -54v-32l-32 -48zM192 283q-22 6 -32.5 24.5
t-21.5 34.5v17l27 48q21 10 48 15.5t54 0.5l21 -16v-54l-37 -53zM422 509l-48 21l-21 64q10 27 29 48.5t46 32.5h26l38 -22q5 -16 18.5 -34.5t8.5 -40.5l-59 -64z" />
    <glyph glyph-name="exclamdbl" unicode="&#x203c;" horiz-adv-x="512" 
 />
    <glyph glyph-name="uni203D" unicode="&#x203d;" horiz-adv-x="512" 
 />
    <glyph glyph-name="uni203E" unicode="&#x203e;" horiz-adv-x="512" 
 />
    <glyph glyph-name="uni203F" unicode="&#x203f;" horiz-adv-x="512" 
 />
    <glyph glyph-name="uni2040" unicode="&#x2040;" horiz-adv-x="512" 
 />
    <glyph glyph-name="uni2041" unicode="&#x2041;" horiz-adv-x="512" 
 />
    <glyph glyph-name="uni2042" unicode="&#x2042;" horiz-adv-x="512" 
 />
    <glyph glyph-name="uni2043" unicode="&#x2043;" horiz-adv-x="512" 
 />
    <glyph glyph-name="fraction" unicode="&#x2044;" horiz-adv-x="512" 
 />
    <glyph glyph-name="uni2045" unicode="&#x2045;" horiz-adv-x="512" 
 />
    <glyph glyph-name="uni2046" unicode="&#x2046;" horiz-adv-x="512" 
 />
    <glyph glyph-name="uni2070" unicode="&#x2070;" horiz-adv-x="512" 
 />
    <glyph glyph-name="uni2074" unicode="&#x2074;" horiz-adv-x="512" 
 />
    <glyph glyph-name="uni2075" unicode="&#x2075;" horiz-adv-x="512" 
 />
    <glyph glyph-name="uni2076" unicode="&#x2076;" horiz-adv-x="512" 
 />
    <glyph glyph-name="uni2077" unicode="&#x2077;" horiz-adv-x="512" 
 />
    <glyph glyph-name="uni2078" unicode="&#x2078;" horiz-adv-x="512" 
 />
    <glyph glyph-name="uni2079" unicode="&#x2079;" horiz-adv-x="512" 
 />
    <glyph glyph-name="uni207A" unicode="&#x207a;" horiz-adv-x="512" 
 />
    <glyph glyph-name="uni207B" unicode="&#x207b;" horiz-adv-x="512" 
 />
    <glyph glyph-name="uni207C" unicode="&#x207c;" horiz-adv-x="512" 
 />
    <glyph glyph-name="uni207D" unicode="&#x207d;" horiz-adv-x="512" 
 />
    <glyph glyph-name="uni207E" unicode="&#x207e;" horiz-adv-x="512" 
 />
    <glyph glyph-name="uni207F" unicode="&#x207f;" horiz-adv-x="512" 
 />
    <glyph glyph-name="uni2080" unicode="&#x2080;" horiz-adv-x="512" 
 />
    <glyph glyph-name="uni2081" unicode="&#x2081;" horiz-adv-x="512" 
 />
    <glyph glyph-name="uni2082" unicode="&#x2082;" horiz-adv-x="512" 
 />
    <glyph glyph-name="uni2083" unicode="&#x2083;" horiz-adv-x="512" 
 />
    <glyph glyph-name="uni2084" unicode="&#x2084;" horiz-adv-x="512" 
 />
    <glyph glyph-name="uni2085" unicode="&#x2085;" horiz-adv-x="512" 
 />
    <glyph glyph-name="uni2086" unicode="&#x2086;" horiz-adv-x="512" 
 />
    <glyph glyph-name="uni2087" unicode="&#x2087;" horiz-adv-x="512" 
 />
    <glyph glyph-name="uni2088" unicode="&#x2088;" horiz-adv-x="512" 
 />
    <glyph glyph-name="uni2089" unicode="&#x2089;" horiz-adv-x="512" 
 />
    <glyph glyph-name="uni208A" unicode="&#x208a;" horiz-adv-x="512" 
 />
    <glyph glyph-name="uni208B" unicode="&#x208b;" horiz-adv-x="512" 
 />
    <glyph glyph-name="uni208C" unicode="&#x208c;" horiz-adv-x="512" 
 />
    <glyph glyph-name="uni208D" unicode="&#x208d;" horiz-adv-x="512" 
 />
    <glyph glyph-name="uni208E" unicode="&#x208e;" horiz-adv-x="512" 
 />
    <glyph glyph-name="uni20A0" unicode="&#x20a0;" horiz-adv-x="512" 
 />
    <glyph glyph-name="colonmonetary" unicode="&#x20a1;" horiz-adv-x="512" 
 />
    <glyph glyph-name="uni20A2" unicode="&#x20a2;" horiz-adv-x="512" 
 />
    <glyph glyph-name="franc" unicode="&#x20a3;" horiz-adv-x="512" 
 />
    <glyph glyph-name="lira" unicode="&#x20a4;" horiz-adv-x="512" 
 />
    <glyph glyph-name="uni20A5" unicode="&#x20a5;" horiz-adv-x="512" 
 />
    <glyph glyph-name="uni20A6" unicode="&#x20a6;" horiz-adv-x="512" 
 />
    <glyph glyph-name="peseta" unicode="&#x20a7;" horiz-adv-x="512" 
 />
    <glyph glyph-name="uni20A8" unicode="&#x20a8;" horiz-adv-x="512" 
 />
    <glyph glyph-name="uni20A9" unicode="&#x20a9;" horiz-adv-x="512" 
 />
    <glyph glyph-name="afii57636" unicode="&#x20aa;" horiz-adv-x="512" 
 />
    <glyph glyph-name="uni2100" unicode="&#x2100;" horiz-adv-x="512" 
 />
    <glyph glyph-name="uni2101" unicode="&#x2101;" horiz-adv-x="512" 
 />
    <glyph glyph-name="uni2102" unicode="&#x2102;" horiz-adv-x="512" 
 />
    <glyph glyph-name="uni2103" unicode="&#x2103;" horiz-adv-x="820" 
d="M558 103q-38 10 -72.5 29t-61.5 46q-38 53 -56.5 109.5t-18.5 126.5q5 37 24 69t40 65q32 32 72.5 40t88.5 2q21 -16 48 -16t48 -10l6 -27l-38 -16q-32 11 -69.5 19t-80.5 2q-27 -16 -45.5 -40t-34.5 -51l-11 -96q11 -43 27 -83.5t48 -72.5q21 -16 45.5 -29.5t50.5 -18.5
q27 0 51.5 18.5t50.5 18.5l11 -32q-27 -27 -59 -37.5t-64 -15.5zM258 446q-27 5 -48.5 13t-43.5 24q-10 22 -21 43.5t-5 47.5l32 65q32 21 61.5 40t72.5 13l59 -26q16 -27 18.5 -59.5t2.5 -64.5l-59 -80zM295 499q32 22 40 54t3 70q-16 10 -37.5 10t-42.5 6
q-22 -11 -40.5 -27t-29.5 -38v-37l43 -38l59 -5z" />
    <glyph glyph-name="uni2104" unicode="&#x2104;" horiz-adv-x="512" 
 />
    <glyph glyph-name="afii61248" unicode="&#x2105;" horiz-adv-x="512" 
 />
    <glyph glyph-name="uni2106" unicode="&#x2106;" horiz-adv-x="512" 
 />
    <glyph glyph-name="uni2107" unicode="&#x2107;" horiz-adv-x="512" 
 />
    <glyph glyph-name="uni2108" unicode="&#x2108;" horiz-adv-x="512" 
 />
    <glyph glyph-name="uni2109" unicode="&#x2109;" horiz-adv-x="512" 
 />
    <glyph glyph-name="uni210A" unicode="&#x210a;" horiz-adv-x="512" 
 />
    <glyph glyph-name="uni210B" unicode="&#x210b;" horiz-adv-x="512" 
 />
    <glyph glyph-name="uni210C" unicode="&#x210c;" horiz-adv-x="512" 
 />
    <glyph glyph-name="uni210D" unicode="&#x210d;" horiz-adv-x="512" 
 />
    <glyph glyph-name="uni210E" unicode="&#x210e;" horiz-adv-x="512" 
 />
    <glyph glyph-name="uni210F" unicode="&#x210f;" horiz-adv-x="512" 
 />
    <glyph glyph-name="uni2110" unicode="&#x2110;" horiz-adv-x="512" 
 />
    <glyph glyph-name="Ifraktur" unicode="&#x2111;" horiz-adv-x="512" 
 />
    <glyph glyph-name="uni2112" unicode="&#x2112;" horiz-adv-x="512" 
 />
    <glyph glyph-name="afii61289" unicode="&#x2113;" horiz-adv-x="512" 
 />
    <glyph glyph-name="uni2114" unicode="&#x2114;" horiz-adv-x="512" 
 />
    <glyph glyph-name="uni2115" unicode="&#x2115;" horiz-adv-x="512" 
 />
    <glyph glyph-name="afii61352" unicode="&#x2116;" 
d="M434 70q-21 6 -32 27.5t-21 37.5l-124 284h-10q0 -86 -11 -166.5t-48 -149.5l-33 -6l-10 32q27 43 35 91.5t18 96.5v263l-5 21l16 22h22q32 -124 88 -239t105 -233h10q22 96 35.5 195.5t13.5 201.5l26 5q22 -27 19 -67t-3 -78q-10 -86 -26 -169t-43 -158zM820 76l-21 11
l-6 37l27 38h38q16 -11 16 -27v-32zM611 97q-16 6 -32 14t-21 29l-6 70l43 86l22 16l5 21l48 6l27 -17q21 -21 29 -53t3 -65q0 -26 -10.5 -50.5t-37.5 -40.5zM654 156q22 22 24.5 48.5t2.5 58.5l-22 11l-37 -21q-16 -22 -21.5 -43.5t-0.5 -47.5l6 -16h32z" />
    <glyph glyph-name="uni2117" unicode="&#x2117;" horiz-adv-x="512" 
 />
    <glyph glyph-name="weierstrass" unicode="&#x2118;" horiz-adv-x="512" 
 />
    <glyph glyph-name="uni2119" unicode="&#x2119;" horiz-adv-x="512" 
 />
    <glyph glyph-name="uni211A" unicode="&#x211a;" horiz-adv-x="512" 
 />
    <glyph glyph-name="uni211B" unicode="&#x211b;" horiz-adv-x="512" 
 />
    <glyph glyph-name="Rfraktur" unicode="&#x211c;" horiz-adv-x="512" 
 />
    <glyph glyph-name="uni211D" unicode="&#x211d;" horiz-adv-x="512" 
 />
    <glyph glyph-name="prescription" unicode="&#x211e;" horiz-adv-x="512" 
 />
    <glyph glyph-name="uni211F" unicode="&#x211f;" horiz-adv-x="512" 
 />
    <glyph glyph-name="uni2120" unicode="&#x2120;" horiz-adv-x="512" 
 />
    <glyph glyph-name="uni2121" unicode="&#x2121;" 
d="M813 40q-32 5 -61.5 15.5t-56.5 26.5q0 65 -5 126.5t-21 120.5l32 11q27 -48 35 -107t2 -124l108 -21l53 21l11 -32q-22 -16 -46 -26.5t-51 -10.5zM529 66l-43 22l-16 21l-21 6l-6 32l6 155l-38 22v21l32 11q38 -16 81 -27t91 -11l5 -26q-16 -17 -40 -17h-45l-38 11v-37
q32 -6 59 -24.5t59 -18.5l5 -27l-37 -16l-86 37v-37l16 -5l11 -38l37 -5l54 21l11 -32q-22 -16 -46 -27t-51 -11zM304 93q-16 16 -16 40.5v45.5l5 214l-5 118l16 49q-48 -6 -91 7.5t-80 34.5l-6 27l32 11l86 -32h247l96 16l11 -32q-54 -27 -118 -29.5t-129 -2.5
q-16 -38 -16 -78v-83l6 -215l-11 -85z" />
    <glyph glyph-name="trademark" unicode="&#x2122;" horiz-adv-x="512" 
 />
    <glyph glyph-name="uni2123" unicode="&#x2123;" horiz-adv-x="512" 
 />
    <glyph glyph-name="uni2124" unicode="&#x2124;" horiz-adv-x="512" 
 />
    <glyph glyph-name="uni2125" unicode="&#x2125;" horiz-adv-x="512" 
 />
    <glyph glyph-name="uni2126" unicode="&#x2126;" horiz-adv-x="512" 
 />
    <glyph glyph-name="uni2127" unicode="&#x2127;" horiz-adv-x="512" 
 />
    <glyph glyph-name="uni2128" unicode="&#x2128;" horiz-adv-x="512" 
 />
    <glyph glyph-name="uni2129" unicode="&#x2129;" horiz-adv-x="512" 
 />
    <glyph glyph-name="uni212A" unicode="&#x212a;" horiz-adv-x="512" 
 />
    <glyph glyph-name="uni212B" unicode="&#x212b;" horiz-adv-x="840" 
d="M632 11l-54 118q-64 32 -142 32t-148 10q-16 -32 -26.5 -64t-21.5 -64l-27 -6l-10 43q43 113 93.5 223t99.5 222q-27 22 -43 48.5t-22 59.5l32 58q27 22 54 35.5t64 7.5q27 -16 48.5 -42.5t37.5 -53.5v-70l-32 -53l-59 -22v-16q48 -113 102 -225.5t86 -230.5zM551 188v10
q-32 65 -61.5 134.5t-56.5 139.5h-16q-21 -65 -53.5 -126.5t-48.5 -125.5q59 -16 120.5 -13.5t115.5 -18.5zM503 547v10q16 11 16 30v40l-54 59h-26l-59 -53v-17l37 -42l38 -11q5 -16 18.5 -16h29.5z" />
    <glyph glyph-name="uni212C" unicode="&#x212c;" horiz-adv-x="512" 
 />
    <glyph glyph-name="uni212D" unicode="&#x212d;" horiz-adv-x="512" 
 />
    <glyph glyph-name="estimated" unicode="&#x212e;" horiz-adv-x="512" 
 />
    <glyph glyph-name="uni212F" unicode="&#x212f;" horiz-adv-x="512" 
 />
    <glyph glyph-name="uni2130" unicode="&#x2130;" horiz-adv-x="512" 
 />
    <glyph glyph-name="uni2131" unicode="&#x2131;" horiz-adv-x="512" 
 />
    <glyph glyph-name="uni2132" unicode="&#x2132;" horiz-adv-x="512" 
 />
    <glyph glyph-name="uni2133" unicode="&#x2133;" horiz-adv-x="512" 
 />
    <glyph glyph-name="uni2134" unicode="&#x2134;" horiz-adv-x="512" 
 />
    <glyph glyph-name="aleph" unicode="&#x2135;" horiz-adv-x="512" 
 />
    <glyph glyph-name="uni2136" unicode="&#x2136;" horiz-adv-x="512" 
 />
    <glyph glyph-name="uni2137" unicode="&#x2137;" horiz-adv-x="512" 
 />
    <glyph glyph-name="uni2138" unicode="&#x2138;" horiz-adv-x="512" 
 />
    <glyph glyph-name="onethird" unicode="&#x2153;" horiz-adv-x="512" 
 />
    <glyph glyph-name="twothirds" unicode="&#x2154;" horiz-adv-x="512" 
 />
    <glyph glyph-name="uni2155" unicode="&#x2155;" horiz-adv-x="512" 
 />
    <glyph glyph-name="uni2156" unicode="&#x2156;" horiz-adv-x="512" 
 />
    <glyph glyph-name="uni2157" unicode="&#x2157;" horiz-adv-x="512" 
 />
    <glyph glyph-name="uni2158" unicode="&#x2158;" horiz-adv-x="512" 
 />
    <glyph glyph-name="uni2159" unicode="&#x2159;" horiz-adv-x="512" 
 />
    <glyph glyph-name="uni215A" unicode="&#x215a;" horiz-adv-x="512" 
 />
    <glyph glyph-name="oneeighth" unicode="&#x215b;" horiz-adv-x="512" 
 />
    <glyph glyph-name="threeeighths" unicode="&#x215c;" horiz-adv-x="512" 
 />
    <glyph glyph-name="fiveeighths" unicode="&#x215d;" horiz-adv-x="512" 
 />
    <glyph glyph-name="seveneighths" unicode="&#x215e;" horiz-adv-x="512" 
 />
    <glyph glyph-name="uni215F" unicode="&#x215f;" horiz-adv-x="512" 
 />
    <glyph glyph-name="uni2160" unicode="&#x2160;" horiz-adv-x="700" 
d="M345 65l-53 27l-6 27l27 10l16 129v247l-11 53l-16 6l-10 37l32 11l37 -22l6 -16l64 -21l5 -27q-10 -11 -23.5 -11h-24.5l-16 6v-11l5 -5v-247l-16 -145h32l27 6l11 -32q-16 -22 -40 -22h-46z" />
    <glyph glyph-name="uni2161" unicode="&#x2161;" horiz-adv-x="696" 
d="M467 33l-102 37l-53 -16l-97 43l-5 32l32 11l16 -5v246l5 193l-26 11l-11 38l32 10q27 -16 51 -32t56 -16l38 11l59 -11l37 11l11 -32q-11 -16 -29.5 -21.5t-34.5 -5.5l-16 -429l37 -21l27 5l11 -32l-16 -22zM333 108l16 27l32 5l16 408h-26l-38 -11l-21 5l-6 -161v-268
l22 -10z" />
    <glyph glyph-name="uni2162" unicode="&#x2162;" horiz-adv-x="840" 
d="M598 38q-32 0 -64 8t-64 19l-43 -5l-70 27q-16 -16 -37.5 -16h-42.5l-70 26l-5 33l32 10l32 -5q11 59 11 126v131l-11 177l-32 11l-11 37l38 11q26 0 50.5 -13.5t50.5 -18.5l11 32l27 5l21 -42q22 -11 51.5 -11t56.5 -11l26 5q11 -16 27 -10.5t27 -5.5l5 -26l-59 -22
v-418l70 -5l27 5l11 -32q-11 -16 -27 -19t-38 -3zM502 97l5 6v413q-11 16 -27 16h-32l-11 -145v-279h33t26 -16zM357 119l32 11v257l11 166h-16l-43 -11l-27 11v-86q11 -64 11 -136.5v-142.5l-5 -69l32 -6z" />
    <glyph glyph-name="uni2163" unicode="&#x2163;" horiz-adv-x="888" 
d="M290 52q-21 10 -42.5 18t-27.5 30v21l16 22v246q-5 70 -7.5 139.5t-29.5 128.5l32 11q21 -11 40 -29.5t46 -13.5l32 6l11 -43l112 -22l6 -26l-54 -17l-21 6v-11q26 -80 29 -171.5t13 -182.5h11q38 91 75.5 182.5t58.5 187.5l-37 16l-6 27l33 11l85 -27l43 5l11 -32
q-16 -16 -37.5 -21.5t-43.5 0.5q-26 -102 -66.5 -201.5t-83.5 -195.5h38l27 5l10 -32q-21 -21 -50.5 -21h-56.5l-43 27q-26 96 -26 208.5t-27 209.5l-22 5l-16 59h-48v-86l11 -102v-262l-6 -16l27 -11l38 11l10 -33z" />
    <glyph glyph-name="uni2164" unicode="&#x2164;" horiz-adv-x="832" 
d="M362 85l-37 32v22l5 27q-11 96 -40.5 190t-66.5 180l-22 16v21l33 11q26 -16 58.5 -13.5t58.5 -2.5l6 -27q-11 -16 -29.5 -16h-40.5v-16q32 -86 56.5 -174.5t34.5 -184.5h11q54 91 99.5 184.5t66.5 195.5l-32 16l-11 43l32 11l11 -22h22l26 6l11 -27l48 -5l6 -27
q-11 -11 -29.5 -13.5t-35.5 -2.5q-26 -91 -66.5 -182.5t-83.5 -176.5l32 -6l6 -27q-27 -21 -59 -26.5t-70 -5.5z" />
    <glyph glyph-name="uni2165" unicode="&#x2165;" horiz-adv-x="940" 
d="M358 69q-65 102 -78 241.5t-51 262.5l-32 32v22l32 10q21 -26 53.5 -29t64.5 -8l5 -27q-10 -16 -29 -16h-40v-37q32 -86 45.5 -180t29.5 -185h10q65 96 102.5 203.5t58.5 225.5l-16 37l16 22h65q32 -16 72 -21.5t72 -21.5l6 -27l-38 -11l-16 6l-27 -440h22l27 6l10 -33
q-16 -16 -37.5 -18.5t-48.5 -2.5l-48 43v21l27 11q0 107 10.5 206.5t16.5 206.5h-11l-37 -11l-17 5q-21 -112 -61 -219.5t-99 -208.5l32 -6l5 -27q-21 -16 -45.5 -26.5t-50.5 -5.5z" />
    <glyph glyph-name="uni2166" unicode="&#x2166;" horiz-adv-x="912" 
d="M299 66q-16 6 -27 16.5t-11 26.5l17 49q-17 112 -35.5 222t-61.5 212q-16 5 -27 16t-5 32l53 16l11 -27h54l27 6l10 -32q-10 -17 -26.5 -19.5t-32.5 -2.5v-32q33 -91 49 -187.5t26 -193.5h11q70 91 107.5 196t74.5 212l-16 5l-5 27q11 16 32.5 13.5t37.5 -2.5
q10 -16 29 -13.5t30 -2.5l10 26l27 6l16 -27l43 -11l27 6l11 -33q-16 -16 -32.5 -18.5t-37.5 -2.5v-311l-11 -107l91 -22l6 -26l-43 -11q-22 16 -51.5 13.5t-55.5 2.5l-6 11h-10l-70 -11l-32 21v22l21 11l5 21v300h-10q-22 -96 -67.5 -179.5t-88.5 -168.5l27 -6l5 -26
q-16 -17 -42.5 -17h-53.5zM621 120v16q10 22 10 48.5t6 53.5v343l-6 11h-10l-6 -22l-43 -16v-21l6 -5v-365l-6 -27l33 -5l10 -16z" />
    <glyph glyph-name="uni2167" unicode="&#x2167;" horiz-adv-x="944" 
d="M570 40l-22 53h-10q-16 -16 -35 -13t-40 3l-22 16v21q22 70 22 145t5 150h-11q-32 -70 -50.5 -145t-45.5 -144l43 -11l5 -27q-21 -16 -50.5 -13.5t-56.5 2.5l-22 16v22l6 21q-11 113 -40.5 220t-67.5 209l-26 5l-6 27q11 11 24.5 13.5t29.5 2.5l64 -16l6 -27l-38 -16v-21
q38 -80 62 -166t29 -177h11q21 96 56 187.5t67 182.5l-21 53l32 11l43 -32l27 5l10 -5l11 32l48 5l11 -32l64 -16v11l-5 27l32 10q22 -26 46 -39.5t56 -13.5l5 -27l-48 -16l-37 16l-16 -37v-279l-6 -91l91 -11l6 -27l-43 -16l-32 5l-59 -10l-16 5l-6 -16l-48 -11l-5 -16z
M656 109v6l10 118v316h-16l-27 -5l-21 5l-11 -418l11 -22l48 -5zM543 120v188l11 252h-11l-27 -11q0 -107 -2.5 -211.5t-13.5 -206.5l38 -16z" />
    <glyph glyph-name="uni2168" unicode="&#x2168;" horiz-adv-x="876" 
d="M245 66l-37 27v22l21 10q11 65 13.5 129t2.5 134l-16 209l-27 16v22q11 10 24.5 10h24.5l43 -16l5 -26l-21 -11v-32l16 -301l-16 -134h21l27 6l10 -32q-21 -16 -42.5 -21.5t-48.5 -11.5zM562 66q-22 0 -38 11t-21 32h-11q-21 -10 -45.5 -13t-51.5 -3l-32 32v22l43 11
q16 21 29.5 45t13.5 56q-27 81 -45.5 166.5t-45.5 166.5l-32 11l-6 26l38 11l80 -16l6 -27l-38 -16v-16q27 -59 40.5 -126t34.5 -131h11l107 230l-37 11l-6 27q22 10 46 13t45 8l49 -11l5 -26l-48 -16q-32 -86 -75 -166.5t-70 -166.5l27 -64l21 -11l6 -21h26l49 16l10 -32
q-21 -16 -40 -27t-45 -6zM481 147v16l-16 5l-5 -21h21z" />
    <glyph glyph-name="uni2169" unicode="&#x2169;" horiz-adv-x="880" 
d="M351 62l-53 27l-11 43l16 22h21l22 -11l54 107q-43 81 -88.5 158.5t-67.5 168.5l-37 11l-6 27q11 10 27 10h32l81 -16l5 -27l-54 -16v-10q22 -65 62 -126.5t67 -125.5l16 -6q32 75 77.5 147.5t61.5 153.5l43 5q16 -22 35 -22t40 -5l6 -27l-48 -16l-38 6l-155 -306
l91 -113h16l43 11l10 -32q-21 -11 -40 -19t-45 -8q-38 22 -59.5 56.5t-48.5 56.5q-10 -16 -23.5 -35t-13.5 -40l21 -6l6 -26q-11 -11 -30 -14t-35 -3z" />
    <glyph glyph-name="uni216A" unicode="&#x216a;" 
 />
    <glyph glyph-name="uni216B" unicode="&#x216b;" 
 />
    <glyph glyph-name="uni216C" unicode="&#x216c;" 
 />
    <glyph glyph-name="uni216D" unicode="&#x216d;" 
 />
    <glyph glyph-name="uni216E" unicode="&#x216e;" 
 />
    <glyph glyph-name="uni216F" unicode="&#x216f;" 
 />
    <glyph glyph-name="uni2170" unicode="&#x2170;" 
 />
    <glyph glyph-name="uni2171" unicode="&#x2171;" 
 />
    <glyph glyph-name="uni2172" unicode="&#x2172;" 
 />
    <glyph glyph-name="uni2173" unicode="&#x2173;" 
 />
    <glyph glyph-name="uni2174" unicode="&#x2174;" 
 />
    <glyph glyph-name="uni2175" unicode="&#x2175;" 
 />
    <glyph glyph-name="uni2176" unicode="&#x2176;" 
 />
    <glyph glyph-name="uni2177" unicode="&#x2177;" 
 />
    <glyph glyph-name="uni2178" unicode="&#x2178;" 
 />
    <glyph glyph-name="uni2179" unicode="&#x2179;" 
 />
    <glyph glyph-name="uni217A" unicode="&#x217a;" 
 />
    <glyph glyph-name="uni217B" unicode="&#x217b;" 
 />
    <glyph glyph-name="uni217C" unicode="&#x217c;" 
 />
    <glyph glyph-name="uni217D" unicode="&#x217d;" 
 />
    <glyph glyph-name="uni217E" unicode="&#x217e;" 
 />
    <glyph glyph-name="uni217F" unicode="&#x217f;" 
 />
    <glyph glyph-name="uni2180" unicode="&#x2180;" 
 />
    <glyph glyph-name="uni2181" unicode="&#x2181;" 
 />
    <glyph glyph-name="uni2182" unicode="&#x2182;" 
 />
    <glyph glyph-name="arrowleft" unicode="&#x2190;" 
d="M319 253l-54 32q-10 27 -34.5 45.5t-24.5 50.5q49 27 86.5 70t90.5 54l11 -32l-54 -59q75 -17 155.5 -22t161.5 -5q37 5 74.5 18.5t75.5 18.5l10 -32q-59 -32 -123 -45.5t-139 -7.5q-70 0 -137 13t-137 19l-5 -22l43 -48l27 -11l5 -27z" />
    <glyph glyph-name="arrowup" unicode="&#x2191;" 
d="M493 108l-16 43l11 118v279h-11l-91 -33l-21 17v21q42 5 80 32t80 38l70 -97l43 -21l5 -27l-37 -11l-54 32l-5 11h-11v-247l-16 -150z" />
    <glyph glyph-name="arrowright" unicode="&#x2192;" 
d="M627 215l-16 32l54 59q21 0 34.5 16.5t34.5 16.5v16l-26 5q-70 -16 -142.5 -16t-141.5 -5q-49 16 -105 16t-105 26l-5 27l43 11q54 -16 110 -21.5t115 -10.5l193 16v11l-48 42l-11 43l32 11l11 -21l80 -65l38 -43l54 -21l5 -27q-43 -16 -83 -37.5t-78 -48.5l-21 -32h-22z
" />
    <glyph glyph-name="arrowdown" unicode="&#x2193;" 
d="M491 87l-27 26q0 43 -32 72.5t-38 72.5l32 11l49 -48v198l-6 171l16 22h22q16 -43 13 -94t3 -99v-247h11q21 27 50.5 43t61.5 16l11 -32q-48 -16 -85.5 -53.5t-80.5 -58.5z" />
    <glyph glyph-name="arrowboth" unicode="&#x2194;" horiz-adv-x="512" 
 />
    <glyph glyph-name="arrowupdn" unicode="&#x2195;" horiz-adv-x="512" 
 />
    <glyph glyph-name="uni2196" unicode="&#x2196;" horiz-adv-x="512" 
 />
    <glyph glyph-name="uni2197" unicode="&#x2197;" horiz-adv-x="512" 
 />
    <glyph glyph-name="uni2198" unicode="&#x2198;" horiz-adv-x="512" 
 />
    <glyph glyph-name="uni2199" unicode="&#x2199;" horiz-adv-x="512" 
 />
    <glyph glyph-name="uni219A" unicode="&#x219a;" horiz-adv-x="512" 
 />
    <glyph glyph-name="uni219B" unicode="&#x219b;" horiz-adv-x="512" 
 />
    <glyph glyph-name="uni219C" unicode="&#x219c;" horiz-adv-x="512" 
 />
    <glyph glyph-name="uni219D" unicode="&#x219d;" horiz-adv-x="512" 
 />
    <glyph glyph-name="uni219E" unicode="&#x219e;" horiz-adv-x="512" 
 />
    <glyph glyph-name="uni219F" unicode="&#x219f;" horiz-adv-x="512" 
 />
    <glyph glyph-name="uni21A0" unicode="&#x21a0;" horiz-adv-x="512" 
 />
    <glyph glyph-name="uni21A1" unicode="&#x21a1;" horiz-adv-x="512" 
 />
    <glyph glyph-name="uni21A2" unicode="&#x21a2;" horiz-adv-x="512" 
 />
    <glyph glyph-name="uni21A3" unicode="&#x21a3;" horiz-adv-x="512" 
 />
    <glyph glyph-name="uni21A4" unicode="&#x21a4;" horiz-adv-x="512" 
 />
    <glyph glyph-name="uni21A5" unicode="&#x21a5;" horiz-adv-x="512" 
 />
    <glyph glyph-name="uni21A6" unicode="&#x21a6;" horiz-adv-x="512" 
 />
    <glyph glyph-name="uni21A7" unicode="&#x21a7;" horiz-adv-x="512" 
 />
    <glyph glyph-name="arrowupdnbse" unicode="&#x21a8;" horiz-adv-x="512" 
 />
    <glyph glyph-name="uni21A9" unicode="&#x21a9;" horiz-adv-x="512" 
 />
    <glyph glyph-name="uni21AA" unicode="&#x21aa;" horiz-adv-x="512" 
 />
    <glyph glyph-name="uni21AB" unicode="&#x21ab;" horiz-adv-x="512" 
 />
    <glyph glyph-name="uni21AC" unicode="&#x21ac;" horiz-adv-x="512" 
 />
    <glyph glyph-name="uni21AD" unicode="&#x21ad;" horiz-adv-x="512" 
 />
    <glyph glyph-name="uni21AE" unicode="&#x21ae;" horiz-adv-x="512" 
 />
    <glyph glyph-name="uni21AF" unicode="&#x21af;" horiz-adv-x="512" 
 />
    <glyph glyph-name="uni21B0" unicode="&#x21b0;" horiz-adv-x="512" 
 />
    <glyph glyph-name="uni21B1" unicode="&#x21b1;" horiz-adv-x="512" 
 />
    <glyph glyph-name="uni21B2" unicode="&#x21b2;" horiz-adv-x="512" 
 />
    <glyph glyph-name="uni21B3" unicode="&#x21b3;" horiz-adv-x="512" 
 />
    <glyph glyph-name="uni21B4" unicode="&#x21b4;" horiz-adv-x="512" 
 />
    <glyph glyph-name="carriagereturn" unicode="&#x21b5;" horiz-adv-x="512" 
 />
    <glyph glyph-name="uni21B6" unicode="&#x21b6;" horiz-adv-x="512" 
 />
    <glyph glyph-name="uni21B7" unicode="&#x21b7;" horiz-adv-x="512" 
 />
    <glyph glyph-name="uni21B8" unicode="&#x21b8;" horiz-adv-x="512" 
 />
    <glyph glyph-name="uni21B9" unicode="&#x21b9;" horiz-adv-x="512" 
 />
    <glyph glyph-name="uni21BA" unicode="&#x21ba;" horiz-adv-x="512" 
 />
    <glyph glyph-name="uni21BB" unicode="&#x21bb;" horiz-adv-x="512" 
 />
    <glyph glyph-name="uni21BC" unicode="&#x21bc;" horiz-adv-x="512" 
 />
    <glyph glyph-name="uni21BD" unicode="&#x21bd;" horiz-adv-x="512" 
 />
    <glyph glyph-name="uni21BE" unicode="&#x21be;" horiz-adv-x="512" 
 />
    <glyph glyph-name="uni21BF" unicode="&#x21bf;" horiz-adv-x="512" 
 />
    <glyph glyph-name="uni21C0" unicode="&#x21c0;" horiz-adv-x="512" 
 />
    <glyph glyph-name="uni21C1" unicode="&#x21c1;" horiz-adv-x="512" 
 />
    <glyph glyph-name="uni21C2" unicode="&#x21c2;" horiz-adv-x="512" 
 />
    <glyph glyph-name="uni21C3" unicode="&#x21c3;" horiz-adv-x="512" 
 />
    <glyph glyph-name="uni21C4" unicode="&#x21c4;" horiz-adv-x="512" 
 />
    <glyph glyph-name="uni21C5" unicode="&#x21c5;" horiz-adv-x="512" 
 />
    <glyph glyph-name="uni21C6" unicode="&#x21c6;" horiz-adv-x="512" 
 />
    <glyph glyph-name="uni21C7" unicode="&#x21c7;" horiz-adv-x="512" 
 />
    <glyph glyph-name="uni21C8" unicode="&#x21c8;" horiz-adv-x="512" 
 />
    <glyph glyph-name="uni21C9" unicode="&#x21c9;" horiz-adv-x="512" 
 />
    <glyph glyph-name="uni21CA" unicode="&#x21ca;" horiz-adv-x="512" 
 />
    <glyph glyph-name="uni21CB" unicode="&#x21cb;" horiz-adv-x="512" 
 />
    <glyph glyph-name="uni21CC" unicode="&#x21cc;" horiz-adv-x="512" 
 />
    <glyph glyph-name="uni21CD" unicode="&#x21cd;" horiz-adv-x="512" 
 />
    <glyph glyph-name="uni21CE" unicode="&#x21ce;" horiz-adv-x="512" 
 />
    <glyph glyph-name="uni21CF" unicode="&#x21cf;" horiz-adv-x="512" 
 />
    <glyph glyph-name="arrowdblleft" unicode="&#x21d0;" horiz-adv-x="512" 
 />
    <glyph glyph-name="arrowdblup" unicode="&#x21d1;" horiz-adv-x="512" 
 />
    <glyph glyph-name="arrowdblright" unicode="&#x21d2;" horiz-adv-x="920" 
d="M605 134l-11 37l64 97h-85q-97 -17 -201.5 -22t-211.5 -5l-11 32q129 16 260 24t265 19l16 -6l11 38l-43 43l-498 27l-6 26q38 22 83.5 19.5t88.5 -2.5l284 -22v11q-27 32 -53.5 64t-32.5 75l32 11q49 -70 110.5 -134t99.5 -139q-43 -43 -72.5 -94t-67.5 -99h-21z" />
    <glyph glyph-name="arrowdbldown" unicode="&#x21d3;" horiz-adv-x="512" 
 />
    <glyph glyph-name="arrowdblboth" unicode="&#x21d4;" horiz-adv-x="964" 
d="M400 135q-70 43 -137 94t-115 120v27q48 59 112 104.5t113 109.5h21l11 -32l-70 -85q75 -6 153 -6t153 -11v11q-27 22 -48.5 48.5t-21.5 58.5l32 11q43 -64 107.5 -115t117.5 -110v-21q-48 -38 -74.5 -86.5t-59.5 -96.5l-5 -16l-27 -5l-10 37l26 54l-289 5l-27 -5v-11
l64 -37l6 -27zM716 274v11l48 75q-102 64 -233 59t-255 16l-75 -75l91 -91h54q59 11 120.5 11h126.5z" />
    <glyph glyph-name="uni21D5" unicode="&#x21d5;" horiz-adv-x="512" 
 />
    <glyph glyph-name="uni21D6" unicode="&#x21d6;" horiz-adv-x="512" 
 />
    <glyph glyph-name="uni21D7" unicode="&#x21d7;" horiz-adv-x="512" 
 />
    <glyph glyph-name="uni21D8" unicode="&#x21d8;" horiz-adv-x="512" 
 />
    <glyph glyph-name="uni21D9" unicode="&#x21d9;" horiz-adv-x="512" 
 />
    <glyph glyph-name="uni21DA" unicode="&#x21da;" horiz-adv-x="512" 
 />
    <glyph glyph-name="uni21DB" unicode="&#x21db;" horiz-adv-x="512" 
 />
    <glyph glyph-name="uni21DC" unicode="&#x21dc;" horiz-adv-x="512" 
 />
    <glyph glyph-name="uni21DD" unicode="&#x21dd;" horiz-adv-x="512" 
 />
    <glyph glyph-name="uni21DE" unicode="&#x21de;" horiz-adv-x="512" 
 />
    <glyph glyph-name="uni21DF" unicode="&#x21df;" horiz-adv-x="512" 
 />
    <glyph glyph-name="uni21E0" unicode="&#x21e0;" horiz-adv-x="512" 
 />
    <glyph glyph-name="uni21E1" unicode="&#x21e1;" horiz-adv-x="512" 
 />
    <glyph glyph-name="uni21E2" unicode="&#x21e2;" horiz-adv-x="512" 
 />
    <glyph glyph-name="uni21E3" unicode="&#x21e3;" horiz-adv-x="512" 
 />
    <glyph glyph-name="uni21E4" unicode="&#x21e4;" horiz-adv-x="512" 
 />
    <glyph glyph-name="uni21E5" unicode="&#x21e5;" horiz-adv-x="512" 
 />
    <glyph glyph-name="uni21E6" unicode="&#x21e6;" horiz-adv-x="512" 
 />
    <glyph glyph-name="uni21E7" unicode="&#x21e7;" horiz-adv-x="512" 
 />
    <glyph glyph-name="uni21E8" unicode="&#x21e8;" horiz-adv-x="512" 
 />
    <glyph glyph-name="uni21E9" unicode="&#x21e9;" horiz-adv-x="512" 
 />
    <glyph glyph-name="uni21EA" unicode="&#x21ea;" horiz-adv-x="512" 
 />
    <glyph glyph-name="universal" unicode="&#x2200;" horiz-adv-x="888" 
d="M425 71l-10 5q-76 134 -148 268t-121 279l33 11l80 -177q75 -11 153 -16.5t153 -10.5l37 5l91 199l43 10l11 -32q-16 -11 -24 -24t-19 -30q-48 -128 -120.5 -243.5t-131.5 -238.5zM436 162v5q32 54 67 105t56 110l-262 21v-16l64 -118t70 -113z" />
    <glyph glyph-name="uni2201" unicode="&#x2201;" horiz-adv-x="512" 
 />
    <glyph glyph-name="partialdiff" unicode="&#x2202;" horiz-adv-x="808" 
d="M325 28l-102 43q-16 21 -19 50.5t-3 61.5q11 32 30 61.5t45 56.5q49 32 100 51t115 8l53 -32l6 -16h16l11 145l-65 171l-43 6q-26 -6 -50.5 -24.5t-45.5 -40.5l-11 -37l-27 -6l-16 49q22 37 54 61t70 41l75 5q16 -11 29.5 -21.5t18.5 -26.5q21 -65 42.5 -129t16.5 -139
q-11 -70 -40.5 -137t-88.5 -121q-37 -32 -80 -50.5t-91 -29.5zM394 98q33 16 62 40t56 56v27l-10 80q-22 16 -51.5 13.5t-56.5 -2.5q-26 -11 -55.5 -27t-51.5 -43q-27 -27 -35 -59t-2 -69q21 -22 48 -30t59 -3z" />
    <glyph glyph-name="existential" unicode="&#x2203;" horiz-adv-x="832" 
d="M590 73l-21 16v32h-64l-274 -16l-21 16v22q91 11 182 19t188 8v139l-97 11h-241l-22 16v21l11 11h252l97 -11l5 225l-182 11l-38 -5l-171 32l-6 27q11 11 27 11h32q32 -17 72.5 -17t77.5 -5l81 5l155 -16l6 -43l-11 -53v-359l11 -32l-27 -54z" />
    <glyph glyph-name="uni2204" unicode="&#x2204;" horiz-adv-x="512" 
 />
    <glyph glyph-name="emptyset" unicode="&#x2205;" horiz-adv-x="512" 
 />
    <glyph glyph-name="uni2206" unicode="&#x2206;" horiz-adv-x="512" 
 />
    <glyph glyph-name="gradient" unicode="&#x2207;" horiz-adv-x="880" 
d="M421 76q-75 139 -150 276t-134 281l16 22h22l10 -22h11l5 6h220l32 -11h301l10 -32l-21 -32q-59 -86 -115.5 -180t-120.5 -179q-11 -33 -32.5 -62.5t-26.5 -61.5zM443 183q59 91 118 182.5t107 187.5h-91l-306 -11v-26q43 -86 83 -169t73 -169h10z" />
    <glyph glyph-name="element" unicode="&#x2208;" horiz-adv-x="820" 
d="M516 107q-85 5 -168.5 13t-147.5 73q-21 32 -37.5 67t-21.5 72q16 54 40 105t67 93q65 59 145 67t172 3l43 -21l5 -27l-32 -11q-49 16 -99.5 13.5t-104.5 -2.5q-54 -22 -99.5 -62t-66.5 -94v-16l445 -21l5 -27q-21 -16 -53.5 -16h-64.5q-86 5 -169 5t-163 22l-6 16h-10
l-6 -54l59 -91q70 -48 161 -51t177 -8l80 16l11 -32q-32 -21 -75 -26.5t-86 -5.5z" />
    <glyph glyph-name="notelement" unicode="&#x2209;" horiz-adv-x="512" 
 />
    <glyph glyph-name="uni220A" unicode="&#x220a;" horiz-adv-x="512" 
 />
    <glyph glyph-name="suchthat" unicode="&#x220b;" horiz-adv-x="856" 
d="M327 78l-123 22l-5 27l5 10l32 6l118 -16q59 10 123.5 18.5t107.5 56.5q16 21 21.5 45t5.5 51l-108 16h-262l-32 -5l-11 32l43 22h262l108 -16v53q-6 38 -27.5 64.5t-47.5 53.5q-70 16 -134.5 43t-139.5 21l-37 -16q-11 6 -16.5 16.5t-5.5 26.5q27 22 64.5 22h75.5
q64 -33 139 -46t129 -72q32 -43 42.5 -99.5t10.5 -115.5q-11 -48 -27 -91t-53 -75q-59 -27 -123.5 -37.5t-134.5 -16.5z" />
    <glyph glyph-name="uni220C" unicode="&#x220c;" horiz-adv-x="512" 
 />
    <glyph glyph-name="uni220D" unicode="&#x220d;" horiz-adv-x="512" 
 />
    <glyph glyph-name="uni220E" unicode="&#x220e;" horiz-adv-x="512" 
 />
    <glyph glyph-name="product" unicode="&#x220f;" horiz-adv-x="512" 
 />
    <glyph glyph-name="uni2210" unicode="&#x2210;" horiz-adv-x="512" 
 />
    <glyph glyph-name="summation" unicode="&#x2211;" horiz-adv-x="812" 
d="M469 77q-69 11 -139 13.5t-139 19.5l-6 37q43 38 83.5 86t72.5 96v22q-43 53 -94 107t-51 129q107 10 217 15.5t223 5.5l10 -32l-69 -75h-22l-10 32l10 27h-43l-262 -11v-11q37 -53 85.5 -104t64.5 -115l-134 -172q86 -5 166 -16t166 -5q16 16 13.5 40t-2.5 45l-5 27
l32 11q26 -32 23.5 -72.5t-2.5 -77.5q-37 -22 -88 -22h-100z" />
    <glyph glyph-name="minus" unicode="&#x2212;" horiz-adv-x="512" 
 />
    <glyph glyph-name="uni2213" unicode="&#x2213;" horiz-adv-x="512" 
 />
    <glyph glyph-name="uni2214" unicode="&#x2214;" horiz-adv-x="512" 
 />
    <glyph glyph-name="uni2215" unicode="&#x2215;" horiz-adv-x="512" 
 />
    <glyph glyph-name="uni2216" unicode="&#x2216;" horiz-adv-x="512" 
 />
    <glyph glyph-name="asteriskmath" unicode="&#x2217;" horiz-adv-x="512" 
 />
    <glyph glyph-name="uni2218" unicode="&#x2218;" horiz-adv-x="512" 
 />
    <glyph glyph-name="uni2219" unicode="&#x2219;" horiz-adv-x="512" 
 />
    <glyph glyph-name="radical" unicode="&#x221a;" 
d="M221 -2q-21 81 -34.5 164t-61.5 153l32 10q38 -32 54 -74.5t21 -91.5h16q27 102 48.5 209.5t48.5 208.5l43 11l10 -32q-43 -134 -75 -276t-75 -276zM323 594l-21 16v21q27 22 64.5 24.5t69.5 7.5h439l16 -37l-10 -11h-445q-32 0 -59 -8t-54 -13z" />
    <glyph glyph-name="uni221B" unicode="&#x221b;" horiz-adv-x="512" 
 />
    <glyph glyph-name="uni221C" unicode="&#x221c;" horiz-adv-x="512" 
 />
    <glyph glyph-name="proportional" unicode="&#x221d;" 
d="M678 158q-38 5 -70 21t-59 43l-16 32h-10l-65 -64l-75 -6q-59 11 -118 16.5t-107 48.5q-21 32 -29.5 69.5t-2.5 80.5q21 54 66.5 86t94.5 53q26 11 55.5 11h56.5q32 -11 64.5 -29.5t59.5 -45.5l32 -27q16 22 32 46t43 35l123 5l59 -27l32 -32v-21l-32 -11l-43 37l-123 6
q-43 -38 -62 -83.5t-24 -99.5l38 -59q32 -32 80 -34.5t96 -2.5q33 5 62.5 29.5t61.5 29.5l11 -32q-43 -49 -102 -65t-129 -10zM442 238q16 22 37.5 40.5t21.5 45.5l-11 32q16 11 16 27v32l-80 75l-107 11q-38 -16 -67.5 -37.5t-61.5 -48.5q-16 -16 -16 -43v-53l38 -54
q53 -16 109.5 -24t115.5 -8z" />
    <glyph glyph-name="infinity" unicode="&#x221e;" 
d="M295 188q-38 11 -72.5 24.5t-61.5 45.5q-16 27 -27 62t-5 72q26 48 64 85.5t86 54.5q27 10 56.5 10h61.5q27 -10 51 -26.5t45 -42.5l16 -33l27 -5l5 16q43 43 97 51t113 3l112 -59q27 -32 27 -78v-88q-11 -22 -29.5 -40.5t-40.5 -29.5q-43 -11 -85.5 -16.5t-91.5 0.5
q-37 16 -69.5 40t-42.5 62l-11 59h-11q-21 -43 -50.5 -80.5t-72.5 -64.5zM810 258q32 22 32 56.5v72.5q-11 21 -24.5 34.5t-34.5 24.5q-32 10 -72.5 10h-77.5l-65 -48v-69q6 -22 14 -40.5t29 -35.5q27 -21 62 -21h72zM381 263q37 33 64 70.5t21 90.5l-69 70h-91
q-38 -16 -67.5 -45.5l-61.5 -61.5v-59l37 -54q22 -16 49 -26.5t59 -10.5z" />
    <glyph glyph-name="orthogonal" unicode="&#x221f;" 
d="M150 -19l-16 43l6 5v413l5 5v236l16 38l27 5l11 -38l-6 -5v-236l-5 -5v-413h364l6 5h332l11 -32l-27 -16h-316l-6 -5h-402z" />
    <glyph glyph-name="angle" unicode="&#x2220;" horiz-adv-x="824" 
d="M660 88l-54 11h-300l-139 -6l-22 16v33q113 117 236.5 232.5t240.5 238.5h22l11 -32q-102 -112 -217.5 -219.5t-217.5 -219.5h81l5 5h300l86 -16l6 -27z" />
    <glyph glyph-name="uni2221" unicode="&#x2221;" horiz-adv-x="512" 
 />
    <glyph glyph-name="uni2222" unicode="&#x2222;" horiz-adv-x="512" 
 />
    <glyph glyph-name="uni2223" unicode="&#x2223;" horiz-adv-x="512" 
 />
    <glyph glyph-name="uni2224" unicode="&#x2224;" horiz-adv-x="512" 
 />
    <glyph glyph-name="uni2225" unicode="&#x2225;" horiz-adv-x="804" 
d="M275 -80q-10 75 -15.5 155.5t-11.5 155.5v290l-21 220l16 21h22q10 -59 18 -120.5t14 -120.5v-290l16 -284l-11 -21zM522 -69q-16 86 -19 177t-8 182l11 118v279l16 59l27 5q10 -10 10 -26.5v-32.5l-5 -5v-279l-11 -182l11 -284z" />
    <glyph glyph-name="uni2226" unicode="&#x2226;" horiz-adv-x="512" 
 />
    <glyph glyph-name="logicaland" unicode="&#x2227;" horiz-adv-x="872" 
d="M645 64q-64 118 -115 238.5t-89 249.5h-10q-54 -113 -118.5 -220t-133.5 -209l-33 -5l-10 32q86 118 155.5 241t133.5 252l27 5q48 -144 104.5 -289t120.5 -284z" />
    <glyph glyph-name="logicalor" unicode="&#x2228;" horiz-adv-x="812" 
d="M357 81l-21 11q-48 134 -102 268t-97 268l17 21h21l27 -21v-21l-6 -27q43 -107 86 -212t75 -212h11q96 113 158 241.5t110 262.5l27 6l11 -43q-49 -145 -121 -276.5t-164 -254.5z" />
    <glyph glyph-name="intersection" unicode="&#x2229;" horiz-adv-x="884" 
d="M646 73l-21 16v27l5 182q-10 70 -23.5 137t-67.5 115q-27 27 -64.5 35t-80.5 3l-37 -16l-5 -16l-22 -6q-48 -85 -59 -187t-16 -209l11 -38l-32 -11q-22 22 -24.5 48.5t-2.5 59.5q5 107 26.5 203.5t80.5 176.5h11v11q32 27 75 32t86 0q37 -16 69 -37.5t59 -53.5
q48 -97 59 -206.5t6 -227.5l-11 -27z" />
    <glyph glyph-name="union" unicode="&#x222a;" horiz-adv-x="844" 
d="M417 65q-37 16 -72 35t-67 40q-70 91 -72.5 212t-2.5 238l16 43l27 6l10 -43l-5 -182q0 -65 8 -126.5t51 -109.5q37 -27 75 -48.5t86 -16.5l37 16q91 108 99.5 244.5t18.5 275.5l27 6q11 -48 11 -104.5v-110.5q-11 -91 -29.5 -179.5t-88.5 -157.5q-27 -22 -59 -32.5
t-70 -5.5z" />
    <glyph glyph-name="integral" unicode="&#x222b;" horiz-adv-x="744" 
d="M289 -39q-22 10 -43.5 29t-31.5 40l-11 49l32 10l54 -75l16 -5q21 37 29 74.5t14 80.5v311l-16 118q0 32 10.5 59t32.5 54q16 11 34.5 11h40.5q32 -11 69.5 -19t64.5 -35l10 -38l-32 -10q-27 37 -69.5 42.5t-85.5 10.5q-22 -27 -24.5 -61.5t-2.5 -66.5l16 -65v-311
q-5 -48 -18.5 -96t-35.5 -91z" />
    <glyph glyph-name="uni222C" unicode="&#x222c;" horiz-adv-x="892" 
d="M598 -27l-70 37l-11 38l32 10l59 -37q27 43 27 99v110q-16 102 -16 209t-5 215l37 64q16 11 32.5 13.5t37.5 2.5l38 -27l10 -37l-32 -11l-21.5 21.5t-26.5 5.5q-32 -22 -29.5 -56.5t2.5 -67.5q0 -118 11 -235.5t11 -235.5l-38 -102zM206 -17l-48 27l-11 38l33 10
q10 -16 26 -24t38 -2l37 37l6 16v359l-11 193q11 27 27 54t48 38h70l37 -38v-21l-32 -11q-11 16 -27 18.5t-37 2.5q-32 -21 -37.5 -53t-0.5 -65l11 -118v-359l-37 -75q-22 -16 -43.5 -24t-48.5 -3z" />
    <glyph glyph-name="uni222D" unicode="&#x222d;" horiz-adv-x="512" 
 />
    <glyph glyph-name="uni222E" unicode="&#x222e;" 
d="M447 -22l-26 27v27l32 10l21 -10q16 32 24 67t3 72q-43 0 -83 11t-67 48q-16 27 -27 56.5t-5 61.5q11 43 27 86t48 80l91 38q0 43 13.5 83t45.5 72q16 11 35 19t40 3l21 -11l6 -27q-16 -16 -43 -10.5t-38 -21.5q-21 -21 -26.5 -53.5t-5.5 -64.5q38 -16 70 -32t64 -43
q22 -32 38 -67t11 -78q-6 -32 -19.5 -59t-39.5 -48q-22 -16 -49 -27t-59 -16q6 -48 -5 -88.5t-27 -82.5zM501 219v38q-11 54 -13.5 115.5t-2.5 120.5h-38q-26 -16 -39.5 -40.5t-24.5 -45.5l-16 -107l48 -65q22 -10 43.5 -13t42.5 -3zM603 235l59 65l5 75q-16 37 -45.5 64
t-66.5 43h-22v-134l16 -129h16z" />
    <glyph glyph-name="uni222F" unicode="&#x222f;" horiz-adv-x="512" 
 />
    <glyph glyph-name="uni2230" unicode="&#x2230;" horiz-adv-x="512" 
 />
    <glyph glyph-name="uni2231" unicode="&#x2231;" horiz-adv-x="512" 
 />
    <glyph glyph-name="uni2232" unicode="&#x2232;" horiz-adv-x="512" 
 />
    <glyph glyph-name="uni2233" unicode="&#x2233;" horiz-adv-x="512" 
 />
    <glyph glyph-name="therefore" unicode="&#x2234;" horiz-adv-x="860" 
d="M625 97l-48 38v37l16 22l69 10q17 -16 14 -37t-3 -43q-11 -11 -21.5 -19t-26.5 -8zM239 103l-38 32v21l49 59h32l21 -16v-21q-5 -16 -7.5 -35t-24.5 -30zM416 548l-38 32v21l22 32l53 11l27 -21v-33l-37 -37z" />
    <glyph glyph-name="uni2235" unicode="&#x2235;" horiz-adv-x="928" 
d="M483 82l-32 17l-11 53q5 27 26.5 40.5t53.5 7.5l22 -10l5 -54l-43 -48zM702 506l-21 11l-11 37l32 75l27 6l43 -33l6 -58l-27 -11l-6 -16zM193 522l-43 38v26q11 22 32.5 32.5t48.5 10.5l32 -37v-32l-27 -33z" />
    <glyph glyph-name="uni2236" unicode="&#x2236;" horiz-adv-x="512" 
 />
    <glyph glyph-name="uni2237" unicode="&#x2237;" horiz-adv-x="512" 
 />
    <glyph glyph-name="uni2238" unicode="&#x2238;" horiz-adv-x="512" 
 />
    <glyph glyph-name="uni2239" unicode="&#x2239;" horiz-adv-x="512" 
 />
    <glyph glyph-name="uni223A" unicode="&#x223a;" horiz-adv-x="512" 
 />
    <glyph glyph-name="uni223B" unicode="&#x223b;" horiz-adv-x="512" 
 />
    <glyph glyph-name="similar" unicode="&#x223c;" horiz-adv-x="512" 
 />
    <glyph glyph-name="uni223D" unicode="&#x223d;" 
d="M713 159q-32 11 -59 24.5t-48 39.5l-5 27l32 11q21 -16 42.5 -32t48.5 -22q32 6 59 16.5t48 37.5l11 64q-5 32 -18.5 59t-35.5 49q-21 26 -53.5 29t-64.5 3q-85 -49 -149.5 -124t-134.5 -139l-86 -11q-37 6 -66.5 24.5t-56.5 50.5q-11 22 -24 46t-13 51q5 37 23.5 69.5
t40.5 64.5q27 16 53.5 24t58.5 3l43 -27l6 -27l-32 -11q-17 16 -35.5 16h-39.5q-22 -10 -32.5 -31.5t-26.5 -37.5l-11 -65q11 -32 37.5 -56t53.5 -40l75 -5q75 69 144.5 147t161.5 126h96q27 -16 56.5 -37.5t45.5 -53.5t24 -67t8 -73q-5 -21 -18.5 -45t-34.5 -40
q-27 -16 -59.5 -24.5t-64.5 -13.5z" />
    <glyph glyph-name="uni223E" unicode="&#x223e;" horiz-adv-x="512" 
 />
    <glyph glyph-name="uni223F" unicode="&#x223f;" horiz-adv-x="512" 
 />
    <glyph glyph-name="uni2240" unicode="&#x2240;" horiz-adv-x="512" 
 />
    <glyph glyph-name="uni2241" unicode="&#x2241;" horiz-adv-x="512" 
 />
    <glyph glyph-name="uni2242" unicode="&#x2242;" horiz-adv-x="512" 
 />
    <glyph glyph-name="uni2243" unicode="&#x2243;" horiz-adv-x="512" 
 />
    <glyph glyph-name="uni2244" unicode="&#x2244;" horiz-adv-x="512" 
 />
    <glyph glyph-name="congruent" unicode="&#x2245;" horiz-adv-x="512" 
 />
    <glyph glyph-name="uni2246" unicode="&#x2246;" horiz-adv-x="512" 
 />
    <glyph glyph-name="uni2247" unicode="&#x2247;" horiz-adv-x="512" 
 />
    <glyph glyph-name="approxequal" unicode="&#x2248;" horiz-adv-x="512" 
 />
    <glyph glyph-name="uni2249" unicode="&#x2249;" horiz-adv-x="512" 
 />
    <glyph glyph-name="uni224A" unicode="&#x224a;" horiz-adv-x="512" 
 />
    <glyph glyph-name="uni224B" unicode="&#x224b;" horiz-adv-x="512" 
 />
    <glyph glyph-name="uni224C" unicode="&#x224c;" horiz-adv-x="512" 
 />
    <glyph glyph-name="uni224D" unicode="&#x224d;" horiz-adv-x="512" 
 />
    <glyph glyph-name="uni224E" unicode="&#x224e;" horiz-adv-x="512" 
 />
    <glyph glyph-name="uni224F" unicode="&#x224f;" horiz-adv-x="512" 
 />
    <glyph glyph-name="uni2250" unicode="&#x2250;" horiz-adv-x="512" 
 />
    <glyph glyph-name="uni2251" unicode="&#x2251;" horiz-adv-x="512" 
 />
    <glyph glyph-name="uni2252" unicode="&#x2252;" horiz-adv-x="832" 
d="M597 26l-48 27l-11 48l21 32h38l48 -27l5 -53zM248 211l-10 32q91 32 195.5 35t206.5 8l10 -32q-96 -21 -200.5 -24t-201.5 -19zM570 399l-338 16l-5 27q27 21 64.5 18.5t74.5 -2.5l247 -16l5 -27zM227 557q-16 16 -18.5 35t-2.5 40l37 43h21l38 -27v-64z" />
    <glyph glyph-name="uni2253" unicode="&#x2253;" horiz-adv-x="512" 
 />
    <glyph glyph-name="uni2254" unicode="&#x2254;" horiz-adv-x="512" 
 />
    <glyph glyph-name="uni2255" unicode="&#x2255;" horiz-adv-x="512" 
 />
    <glyph glyph-name="uni2256" unicode="&#x2256;" horiz-adv-x="512" 
 />
    <glyph glyph-name="uni2257" unicode="&#x2257;" horiz-adv-x="512" 
 />
    <glyph glyph-name="uni2258" unicode="&#x2258;" horiz-adv-x="512" 
 />
    <glyph glyph-name="uni2259" unicode="&#x2259;" horiz-adv-x="512" 
 />
    <glyph glyph-name="uni225A" unicode="&#x225a;" horiz-adv-x="512" 
 />
    <glyph glyph-name="uni225B" unicode="&#x225b;" horiz-adv-x="512" 
 />
    <glyph glyph-name="uni225C" unicode="&#x225c;" horiz-adv-x="512" 
 />
    <glyph glyph-name="uni225D" unicode="&#x225d;" horiz-adv-x="512" 
 />
    <glyph glyph-name="uni225E" unicode="&#x225e;" horiz-adv-x="512" 
 />
    <glyph glyph-name="uni225F" unicode="&#x225f;" horiz-adv-x="512" 
 />
    <glyph glyph-name="notequal" unicode="&#x2260;" horiz-adv-x="844" 
d="M302 32l-11 32l43 112l-112 11l-6 27q32 16 72.5 10.5t77.5 5.5l59 150q-64 0 -125.5 5.5t-104.5 37.5v21l32 11q48 -21 101.5 -24t112.5 -3q22 43 40.5 86t34.5 91l27 6q11 -11 11 -24.5v-24.5l-54 -128h27l118 10l11 -32q-38 -21 -83.5 -21t-88.5 -11l-64 -150h43
q43 5 85.5 16t91.5 5l10 -32q-64 -16 -128.5 -26.5t-128.5 -16.5l-64 -139z" />
    <glyph glyph-name="equivalence" unicode="&#x2261;" horiz-adv-x="832" 
d="M163 92l-16 37q16 17 37.5 11.5t37.5 5.5h482l11 -33l-27 -16h-466zM570 333l-37 11h-365l-21 16v21l10 11h376q37 -11 80 -11t86 -5l5 -27q-27 -21 -64.5 -18.5t-69.5 2.5zM377 569q-48 16 -104.5 16t-109.5 5l-6 33q38 16 81 13t85 -3l54 -16h327l11 -32l-27 -16h-311z
" />
    <glyph glyph-name="uni2262" unicode="&#x2262;" horiz-adv-x="512" 
 />
    <glyph glyph-name="uni2263" unicode="&#x2263;" horiz-adv-x="512" 
 />
    <glyph glyph-name="lessequal" unicode="&#x2264;" horiz-adv-x="512" 
 />
    <glyph glyph-name="greaterequal" unicode="&#x2265;" horiz-adv-x="512" 
 />
    <glyph glyph-name="uni2266" unicode="&#x2266;" horiz-adv-x="860" 
d="M284 77l-85 32l-6 27l32 11q54 -27 115.5 -24.5t126.5 2.5l214 6l11 -32q-97 -16 -201.5 -19t-206.5 -3zM547 190l-5 5h-263l-48 22l-6 26l33 11l21 -11h263l91 -10l5 -27q-16 -16 -40 -16h-51zM552 297q-85 54 -168.5 110t-174.5 88l-5 33q91 42 185 71.5t174 83.5
l11 -32q-65 -54 -134.5 -83.5t-149.5 -45.5v-16q80 -27 149.5 -75t139.5 -91l6 -32z" />
    <glyph glyph-name="uni2267" unicode="&#x2267;" horiz-adv-x="860" 
d="M478 48l-258 26l-5 27q27 16 59 13.5t64 -2.5q65 -11 132 -13.5t136 -7.5l6 -27q-27 -22 -64.5 -19t-69.5 3zM376 128l-150 11l-6 27q32 21 72.5 18.5t77.5 -2.5l6 -6h214l11 -32q-48 -21 -107 -18.5t-118 2.5zM268 208l-21 17v21q86 16 166.5 48t149.5 97l6 16
q-91 53 -185 104t-180 121v21l32 11q97 -70 199 -128.5t203 -107.5l6 -32q-81 -80 -174.5 -125.5t-201.5 -62.5z" />
    <glyph glyph-name="uni2268" unicode="&#x2268;" horiz-adv-x="512" 
 />
    <glyph glyph-name="uni2269" unicode="&#x2269;" horiz-adv-x="512" 
 />
    <glyph glyph-name="uni226A" unicode="&#x226a;" horiz-adv-x="904" 
d="M489 80q-75 53 -144.5 128.5t-139.5 139.5v21q70 59 137 118t126 124h21l11 -33q-54 -64 -115.5 -117.5t-115.5 -112.5l247 -231l5 -26zM677 128q-75 43 -142 107.5t-142 96.5l-6 27l6 10q80 43 152.5 107.5t158.5 96.5l10 -32q-64 -43 -125.5 -91.5t-115.5 -101.5
q59 -43 115.5 -94t120.5 -88v-27z" />
    <glyph glyph-name="uni226B" unicode="&#x226b;" horiz-adv-x="832" 
d="M390 64l-10 37q53 65 109.5 126.5t88.5 136.5q-48 70 -112.5 134t-101.5 139l37 11q59 -80 131.5 -152.5t104.5 -163.5q-54 -65 -110 -134.5t-115 -133.5h-22zM256 117l-10 33l10 21l156 161v16q-59 59 -120.5 118t-94.5 134l33 11l32 -27q37 -54 88 -105l99 -99l27 -21
v-27l-198 -215h-22z" />
    <glyph glyph-name="uni226C" unicode="&#x226c;" horiz-adv-x="512" 
 />
    <glyph glyph-name="uni226D" unicode="&#x226d;" horiz-adv-x="512" 
 />
    <glyph glyph-name="uni226E" unicode="&#x226e;" horiz-adv-x="512" 
 />
    <glyph glyph-name="uni226F" unicode="&#x226f;" horiz-adv-x="512" 
 />
    <glyph glyph-name="uni2270" unicode="&#x2270;" horiz-adv-x="512" 
 />
    <glyph glyph-name="uni2271" unicode="&#x2271;" horiz-adv-x="512" 
 />
    <glyph glyph-name="uni2272" unicode="&#x2272;" horiz-adv-x="512" 
 />
    <glyph glyph-name="uni2273" unicode="&#x2273;" horiz-adv-x="512" 
 />
    <glyph glyph-name="uni2274" unicode="&#x2274;" horiz-adv-x="512" 
 />
    <glyph glyph-name="uni2275" unicode="&#x2275;" horiz-adv-x="512" 
 />
    <glyph glyph-name="uni2276" unicode="&#x2276;" horiz-adv-x="512" 
 />
    <glyph glyph-name="uni2277" unicode="&#x2277;" horiz-adv-x="512" 
 />
    <glyph glyph-name="uni2278" unicode="&#x2278;" horiz-adv-x="512" 
 />
    <glyph glyph-name="uni2279" unicode="&#x2279;" horiz-adv-x="512" 
 />
    <glyph glyph-name="uni227A" unicode="&#x227a;" horiz-adv-x="512" 
 />
    <glyph glyph-name="uni227B" unicode="&#x227b;" horiz-adv-x="512" 
 />
    <glyph glyph-name="uni227C" unicode="&#x227c;" horiz-adv-x="512" 
 />
    <glyph glyph-name="uni227D" unicode="&#x227d;" horiz-adv-x="512" 
 />
    <glyph glyph-name="uni227E" unicode="&#x227e;" horiz-adv-x="512" 
 />
    <glyph glyph-name="uni227F" unicode="&#x227f;" horiz-adv-x="512" 
 />
    <glyph glyph-name="uni2280" unicode="&#x2280;" horiz-adv-x="512" 
 />
    <glyph glyph-name="uni2281" unicode="&#x2281;" horiz-adv-x="512" 
 />
    <glyph glyph-name="propersubset" unicode="&#x2282;" horiz-adv-x="788" 
d="M413 100q-59 11 -115.5 35t-109.5 61q-27 43 -37.5 94t-5.5 110q11 48 32.5 94t58.5 83l75 43h215l85 -22l6 -26l-38 -16q-59 21 -126 18.5t-131 -2.5l-70 -49q-37 -42 -50.5 -93t-8.5 -110l38 -97q75 -53 163.5 -69.5t184.5 -5.5l81 6l10 -33q-59 -21 -126 -21h-131z
" />
    <glyph glyph-name="propersuperset" unicode="&#x2283;" horiz-adv-x="804" 
d="M168 101l-22 16v22q108 16 226 16t214 48q16 27 16 56.5v61.5q0 48 -16 94t-54 78q-64 43 -141.5 64t-163.5 16l-27 -5l-21 16v21q26 22 63.5 19t70.5 -3q69 -16 139 -37.5t129 -69.5q48 -53 58.5 -125.5t10.5 -147.5l-37 -75q-97 -59 -215 -59t-230 -6z" />
    <glyph glyph-name="notsubset" unicode="&#x2284;" horiz-adv-x="512" 
 />
    <glyph glyph-name="uni2285" unicode="&#x2285;" horiz-adv-x="512" 
 />
    <glyph glyph-name="reflexsubset" unicode="&#x2286;" horiz-adv-x="872" 
d="M544 52q-21 10 -50.5 10h-56.5l-188 -5l-21 16v22q69 10 144.5 10t150.5 6q26 -11 58.5 -11h64.5l27 5l10 -32q-26 -27 -63.5 -24t-75.5 3zM630 170q-102 10 -201 26t-180 81q-27 37 -40 74.5t-13 86.5q21 32 31.5 75t48.5 64q75 32 161 45.5t177 8.5l43 -16l5 -27
q-11 -11 -24.5 -11h-23.5l-150 5q-43 -10 -88.5 -21t-88.5 -32q-11 -32 -27 -64.5t-16 -69.5q11 -27 24 -54t35 -48q80 -43 174 -56.5t190 -18.5l6 -32z" />
    <glyph glyph-name="reflexsuperset" unicode="&#x2287;" horiz-adv-x="860" 
d="M231 85l-11 32l22 16h219l204 11l11 -32q-48 -22 -104.5 -22t-110.5 -5h-230zM220 203l-21 16v22q96 10 195 15.5t175 69.5q21 27 31.5 56.5t5.5 67.5q-5 26 -18.5 47.5t-35.5 37.5q-75 27 -152.5 38t-157.5 27l-6 27l32 10q91 -10 182.5 -23.5t166.5 -72.5
q21 -32 29 -67t8 -73q-5 -42 -29 -77t-56 -67q-81 -38 -166.5 -48.5t-182.5 -5.5z" />
    <glyph glyph-name="uni2288" unicode="&#x2288;" horiz-adv-x="512" 
 />
    <glyph glyph-name="uni2289" unicode="&#x2289;" horiz-adv-x="512" 
 />
    <glyph glyph-name="uni228A" unicode="&#x228a;" horiz-adv-x="512" 
 />
    <glyph glyph-name="uni228B" unicode="&#x228b;" horiz-adv-x="512" 
 />
    <glyph glyph-name="uni228C" unicode="&#x228c;" horiz-adv-x="512" 
 />
    <glyph glyph-name="uni228D" unicode="&#x228d;" horiz-adv-x="512" 
 />
    <glyph glyph-name="uni228E" unicode="&#x228e;" horiz-adv-x="512" 
 />
    <glyph glyph-name="uni228F" unicode="&#x228f;" horiz-adv-x="512" 
 />
    <glyph glyph-name="uni2290" unicode="&#x2290;" horiz-adv-x="512" 
 />
    <glyph glyph-name="uni2291" unicode="&#x2291;" horiz-adv-x="512" 
 />
    <glyph glyph-name="uni2292" unicode="&#x2292;" horiz-adv-x="512" 
 />
    <glyph glyph-name="uni2293" unicode="&#x2293;" horiz-adv-x="512" 
 />
    <glyph glyph-name="uni2294" unicode="&#x2294;" horiz-adv-x="512" 
 />
    <glyph glyph-name="circleplus" unicode="&#x2295;" horiz-adv-x="512" 
 />
    <glyph glyph-name="uni2296" unicode="&#x2296;" horiz-adv-x="512" 
 />
    <glyph glyph-name="circlemultiply" unicode="&#x2297;" horiz-adv-x="512" 
 />
    <glyph glyph-name="uni2298" unicode="&#x2298;" horiz-adv-x="512" 
 />
    <glyph glyph-name="uni2299" unicode="&#x2299;" horiz-adv-x="512" 
 />
    <glyph glyph-name="uni229A" unicode="&#x229a;" horiz-adv-x="512" 
 />
    <glyph glyph-name="uni229B" unicode="&#x229b;" horiz-adv-x="512" 
 />
    <glyph glyph-name="uni229C" unicode="&#x229c;" horiz-adv-x="512" 
 />
    <glyph glyph-name="uni229D" unicode="&#x229d;" horiz-adv-x="512" 
 />
    <glyph glyph-name="uni229E" unicode="&#x229e;" horiz-adv-x="512" 
 />
    <glyph glyph-name="uni229F" unicode="&#x229f;" horiz-adv-x="512" 
 />
    <glyph glyph-name="uni22A0" unicode="&#x22a0;" horiz-adv-x="512" 
 />
    <glyph glyph-name="uni22A1" unicode="&#x22a1;" horiz-adv-x="512" 
 />
    <glyph glyph-name="uni22A2" unicode="&#x22a2;" horiz-adv-x="512" 
 />
    <glyph glyph-name="uni22A3" unicode="&#x22a3;" horiz-adv-x="512" 
 />
    <glyph glyph-name="uni22A4" unicode="&#x22a4;" horiz-adv-x="512" 
 />
    <glyph glyph-name="perpendicular" unicode="&#x22a5;" horiz-adv-x="876" 
d="M665 74l-220 11l-26 -5l-6 5h-246l-22 16v22l11 10h246q11 124 14 252.5t24 246.5l27 5l10 -43l-26 -461l300 -16l5 -27q-16 -16 -40 -16h-51z" />
    <glyph glyph-name="uni22A6" unicode="&#x22a6;" horiz-adv-x="512" 
 />
    <glyph glyph-name="uni22A7" unicode="&#x22a7;" horiz-adv-x="512" 
 />
    <glyph glyph-name="uni22A8" unicode="&#x22a8;" horiz-adv-x="512" 
 />
    <glyph glyph-name="uni22A9" unicode="&#x22a9;" horiz-adv-x="512" 
 />
    <glyph glyph-name="uni22AA" unicode="&#x22aa;" horiz-adv-x="512" 
 />
    <glyph glyph-name="uni22AB" unicode="&#x22ab;" horiz-adv-x="512" 
 />
    <glyph glyph-name="uni22AC" unicode="&#x22ac;" horiz-adv-x="512" 
 />
    <glyph glyph-name="uni22AD" unicode="&#x22ad;" horiz-adv-x="512" 
 />
    <glyph glyph-name="uni22AE" unicode="&#x22ae;" horiz-adv-x="512" 
 />
    <glyph glyph-name="uni22AF" unicode="&#x22af;" horiz-adv-x="512" 
 />
    <glyph glyph-name="uni22B0" unicode="&#x22b0;" horiz-adv-x="512" 
 />
    <glyph glyph-name="uni22B1" unicode="&#x22b1;" horiz-adv-x="512" 
 />
    <glyph glyph-name="uni22B2" unicode="&#x22b2;" horiz-adv-x="512" 
 />
    <glyph glyph-name="uni22B3" unicode="&#x22b3;" horiz-adv-x="512" 
 />
    <glyph glyph-name="uni22B4" unicode="&#x22b4;" horiz-adv-x="512" 
 />
    <glyph glyph-name="uni22B5" unicode="&#x22b5;" horiz-adv-x="512" 
 />
    <glyph glyph-name="uni22B6" unicode="&#x22b6;" horiz-adv-x="512" 
 />
    <glyph glyph-name="uni22B7" unicode="&#x22b7;" horiz-adv-x="512" 
 />
    <glyph glyph-name="uni22B8" unicode="&#x22b8;" horiz-adv-x="512" 
 />
    <glyph glyph-name="uni22B9" unicode="&#x22b9;" horiz-adv-x="512" 
 />
    <glyph glyph-name="uni22BA" unicode="&#x22ba;" horiz-adv-x="512" 
 />
    <glyph glyph-name="uni22BB" unicode="&#x22bb;" horiz-adv-x="512" 
 />
    <glyph glyph-name="uni22BC" unicode="&#x22bc;" horiz-adv-x="512" 
 />
    <glyph glyph-name="uni22BD" unicode="&#x22bd;" horiz-adv-x="512" 
 />
    <glyph glyph-name="uni22BE" unicode="&#x22be;" horiz-adv-x="512" 
 />
    <glyph glyph-name="uni22BF" unicode="&#x22bf;" 
d="M820 -11l-16 32h-118l-96 -5l-6 5h-230l-204 -5l-11 32q145 198 338 353.5t365 316.5h21q16 -32 13.5 -75t-2.5 -81l-11 -37v-338l-16 -193zM809 69v118l6 5v333l11 96h-11q-134 -118 -276 -230.5t-266 -251.5l-48 -75h123l6 5h230l97 -5z" />
    <glyph glyph-name="uni22C0" unicode="&#x22c0;" horiz-adv-x="512" 
 />
    <glyph glyph-name="uni22C1" unicode="&#x22c1;" horiz-adv-x="512" 
 />
    <glyph glyph-name="uni22C2" unicode="&#x22c2;" horiz-adv-x="512" 
 />
    <glyph glyph-name="uni22C3" unicode="&#x22c3;" horiz-adv-x="512" 
 />
    <glyph glyph-name="uni22C4" unicode="&#x22c4;" horiz-adv-x="512" 
 />
    <glyph glyph-name="dotmath" unicode="&#x22c5;" horiz-adv-x="512" 
 />
    <glyph glyph-name="uni22C6" unicode="&#x22c6;" horiz-adv-x="512" 
 />
    <glyph glyph-name="uni22C7" unicode="&#x22c7;" horiz-adv-x="512" 
 />
    <glyph glyph-name="uni22C8" unicode="&#x22c8;" horiz-adv-x="512" 
 />
    <glyph glyph-name="uni22C9" unicode="&#x22c9;" horiz-adv-x="512" 
 />
    <glyph glyph-name="uni22CA" unicode="&#x22ca;" horiz-adv-x="512" 
 />
    <glyph glyph-name="uni22CB" unicode="&#x22cb;" horiz-adv-x="512" 
 />
    <glyph glyph-name="uni22CC" unicode="&#x22cc;" horiz-adv-x="512" 
 />
    <glyph glyph-name="uni22CD" unicode="&#x22cd;" horiz-adv-x="512" 
 />
    <glyph glyph-name="uni22CE" unicode="&#x22ce;" horiz-adv-x="512" 
 />
    <glyph glyph-name="uni22CF" unicode="&#x22cf;" horiz-adv-x="512" 
 />
    <glyph glyph-name="uni22D0" unicode="&#x22d0;" horiz-adv-x="512" 
 />
    <glyph glyph-name="uni22D1" unicode="&#x22d1;" horiz-adv-x="512" 
 />
    <glyph glyph-name="uni22D2" unicode="&#x22d2;" horiz-adv-x="512" 
 />
    <glyph glyph-name="uni22D3" unicode="&#x22d3;" horiz-adv-x="512" 
 />
    <glyph glyph-name="uni22D4" unicode="&#x22d4;" horiz-adv-x="512" 
 />
    <glyph glyph-name="uni22D5" unicode="&#x22d5;" horiz-adv-x="512" 
 />
    <glyph glyph-name="uni22D6" unicode="&#x22d6;" horiz-adv-x="512" 
 />
    <glyph glyph-name="uni22D7" unicode="&#x22d7;" horiz-adv-x="512" 
 />
    <glyph glyph-name="uni22D8" unicode="&#x22d8;" horiz-adv-x="512" 
 />
    <glyph glyph-name="uni22D9" unicode="&#x22d9;" horiz-adv-x="512" 
 />
    <glyph glyph-name="uni22DA" unicode="&#x22da;" horiz-adv-x="512" 
 />
    <glyph glyph-name="uni22DB" unicode="&#x22db;" horiz-adv-x="512" 
 />
    <glyph glyph-name="uni22DC" unicode="&#x22dc;" horiz-adv-x="512" 
 />
    <glyph glyph-name="uni22DD" unicode="&#x22dd;" horiz-adv-x="512" 
 />
    <glyph glyph-name="uni22DE" unicode="&#x22de;" horiz-adv-x="512" 
 />
    <glyph glyph-name="uni22DF" unicode="&#x22df;" horiz-adv-x="512" 
 />
    <glyph glyph-name="uni22E0" unicode="&#x22e0;" horiz-adv-x="512" 
 />
    <glyph glyph-name="uni22E1" unicode="&#x22e1;" horiz-adv-x="512" 
 />
    <glyph glyph-name="uni22E2" unicode="&#x22e2;" horiz-adv-x="512" 
 />
    <glyph glyph-name="uni22E3" unicode="&#x22e3;" horiz-adv-x="512" 
 />
    <glyph glyph-name="uni22E4" unicode="&#x22e4;" horiz-adv-x="512" 
 />
    <glyph glyph-name="uni22E5" unicode="&#x22e5;" horiz-adv-x="512" 
 />
    <glyph glyph-name="uni22E6" unicode="&#x22e6;" horiz-adv-x="512" 
 />
    <glyph glyph-name="uni22E7" unicode="&#x22e7;" horiz-adv-x="512" 
 />
    <glyph glyph-name="uni22E8" unicode="&#x22e8;" horiz-adv-x="512" 
 />
    <glyph glyph-name="uni22E9" unicode="&#x22e9;" horiz-adv-x="512" 
 />
    <glyph glyph-name="uni22EA" unicode="&#x22ea;" horiz-adv-x="512" 
 />
    <glyph glyph-name="uni22EB" unicode="&#x22eb;" horiz-adv-x="512" 
 />
    <glyph glyph-name="uni22EC" unicode="&#x22ec;" horiz-adv-x="512" 
 />
    <glyph glyph-name="uni22ED" unicode="&#x22ed;" horiz-adv-x="512" 
 />
    <glyph glyph-name="uni22EE" unicode="&#x22ee;" horiz-adv-x="512" 
 />
    <glyph glyph-name="uni22EF" unicode="&#x22ef;" horiz-adv-x="512" 
 />
    <glyph glyph-name="uni22F0" unicode="&#x22f0;" horiz-adv-x="512" 
 />
    <glyph glyph-name="uni22F1" unicode="&#x22f1;" horiz-adv-x="512" 
 />
    <glyph glyph-name="house" unicode="&#x2302;" horiz-adv-x="512" 
 />
    <glyph glyph-name="revlogicalnot" unicode="&#x2310;" horiz-adv-x="512" 
 />
    <glyph glyph-name="uni2312" unicode="&#x2312;" horiz-adv-x="940" 
d="M797 478q-80 86 -187 112.5t-231 16.5q-64 -6 -117.5 -35.5t-112.5 -50.5l-11 32q86 64 187.5 88.5t214.5 13.5q80 -11 150 -43t129 -91l5 -27z" />
    <glyph glyph-name="integraltp" unicode="&#x2320;" horiz-adv-x="512" 
 />
    <glyph glyph-name="integralbt" unicode="&#x2321;" horiz-adv-x="512" 
 />
    <glyph glyph-name="uni2460" unicode="&#x2460;" 
d="M401 7q-38 10 -70 31.5t-59 48.5q-38 54 -54 113t-16 123q16 86 53.5 161t107.5 139q38 22 80.5 30t91.5 2q59 -10 112.5 -37t101.5 -70q43 -48 53.5 -115t5.5 -137q-16 -54 -40 -104.5t-72 -93.5q-65 -43 -137.5 -67t-157.5 -24zM615 103q38 21 70 56t53 73q22 43 22 91
v102q-6 32 -22 58.5t-42 48.5q-54 43 -118.5 61.5t-139.5 13.5q-27 -5 -51 -29.5t-45 -45.5q-43 -59 -67 -126t-24 -142q5 -48 23.5 -94t61.5 -78q27 -21 64.5 -32t75.5 -5zM438 135l-16 32l75 236l-32 6l-5 26l5 11l48 22l11 26l27 6l16 -48l-102 -311z" />
    <glyph glyph-name="uni2461" unicode="&#x2461;" 
d="M413 5q-54 21 -102 69.5t-70 101.5q-21 43 -32 91.5t-11 101.5q6 59 30 113t67 96q59 49 131.5 67.5t157.5 8.5q49 -17 97 -41t86 -67q42 -53 50.5 -123t2.5 -145q-11 -53 -37.5 -98.5t-69.5 -83.5q-54 -32 -110 -51t-126 -13l-5 -22zM413 64v21l32 11q27 -21 61.5 -18.5
t67.5 2.5q42 11 82.5 37.5t72.5 64.5q38 48 40.5 115t2.5 131q-11 38 -29.5 67.5t-50.5 56.5q-49 43 -116 51t-136 2q-38 -16 -73 -37.5t-67 -53.5q-32 -43 -42.5 -96.5t-10.5 -112.5q10 -59 37 -112.5t75 -96.5l48 -38zM397 160l-22 11l-11 48q22 11 46 13.5t40 29.5
q43 48 75 99t27 116q-11 16 -32 13t-38 -3l-37 -5l-11 32q22 16 51.5 19t61.5 3l32 -16q21 -22 21 -49v-53q-16 -54 -45.5 -99.5t-61.5 -88.5l156 -27l5 -27l-38 -16q-42 16 -85 21.5t-91 0.5z" />
    <glyph glyph-name="uni2462" unicode="&#x2462;" 
d="M474 2q-37 6 -69.5 16.5t-58.5 42.5q-59 70 -97 147.5t-32 174.5q21 59 50.5 115t78.5 105q42 43 93 67t116 19q59 -17 104.5 -57t88.5 -83q53 -53 64 -125.5t5 -153.5q-16 -53 -45.5 -101.5t-77.5 -85.5q-48 -32 -101.5 -56.5t-118.5 -24.5zM624 93q38 27 73 62t56 72
q16 38 16 86v97q-11 53 -45.5 93.5t-77.5 77.5q-32 32 -72.5 51t-88.5 8q-43 -10 -75 -42.5t-64 -64.5q-38 -48 -62 -99t-19 -115q0 -65 32 -113t75 -96l27 -11l16 -27q22 -16 51.5 -18.5t55.5 -2.5zM447 110q-26 10 -50.5 26t-29.5 49l32 32h22l10 -32l-5 -17l54 -10l59 43
q10 16 10 37.5v42.5l-37 59l-43 16l-6 32q27 11 59.5 11t48.5 32l5 32q-27 33 -56.5 54t-66.5 16l-6 27q11 16 30 16h35q27 -11 51 -32.5t45 -42.5q11 -16 13.5 -35t2.5 -40l-37 -48l-22 -27q16 -32 27 -64.5t5 -75.5l-48 -69q-27 -11 -48 -21.5t-54 -10.5z" />
    <glyph glyph-name="uni2463" unicode="&#x2463;" 
d="M444 -15l-86 37l-22 43q-43 22 -77.5 62t-50.5 83l-16 123q16 91 64 171.5t118 150.5q37 32 85.5 45.5t101.5 8.5q54 -11 99.5 -43t88.5 -75q48 -70 72.5 -145t18.5 -166q-16 -49 -42.5 -97t-69.5 -91q-65 -48 -134.5 -77.5t-149.5 -29.5zM626 81q48 22 88 65t62 91
q16 32 16 69.5v75.5q-11 64 -45.5 123t-88.5 107q-38 32 -83.5 43t-98.5 5q-32 -10 -59 -34.5t-54 -50.5q-53 -65 -91 -137.5t-32 -163.5q5 -48 32 -85.5t64 -69.5l75 -48l6 -27l75 -11q37 5 69.5 16t64.5 32zM465 156q-11 11 -11 27v32q11 16 19 35t8 40l-107 43
q-11 16 -19 32.5t-3 37.5l54 145l27 5l11 -32q-17 -32 -30 -69.5t-13 -75.5q21 -21 50.5 -29t61.5 -14q22 49 40.5 99.5t50.5 93.5h22l11 -32q-27 -43 -46 -86t-35 -91l150 -32l6 -27q-11 -16 -30 -13t-35 3l-118 26l-37 -112z" />
    <glyph glyph-name="uni2464" unicode="&#x2464;" 
d="M433 -5q-48 16 -96.5 32.5t-85.5 58.5q-38 76 -59.5 161.5t-15.5 182.5q10 48 31.5 93.5t53.5 88.5q54 59 132 69.5t158 5.5q59 -16 115 -40t99 -78q43 -59 67.5 -128.5t13.5 -150.5q-6 -53 -32.5 -99t-69.5 -83q-64 -54 -142 -83.5t-169 -29.5zM347 81l27 5l11 -26
q27 -11 53.5 -16.5t58.5 0.5q75 10 139.5 47.5t118.5 96.5q37 43 40 96.5t3 112.5q-11 33 -22 59.5t-27 53.5l-16 5q-59 -10 -120.5 -10t-120.5 -6l-38 6l-10 -118q37 5 69.5 -5.5t58.5 -43.5q11 -21 13.5 -45t2.5 -51q-16 -38 -45.5 -70t-71.5 -48l-49 -5l-27 37l17 22h21
l21 -11q27 11 51 35t35 51v48q-16 21 -37.5 32t-48.5 5l-48 -48h-21l-11 32q27 59 29.5 123.5t24.5 123.5l26 5l11 -21l91 -5l145 5v11q-59 59 -134 69.5t-155 5.5q-38 -6 -70 -27.5t-64 -53.5q-33 -48 -46 -107t-8 -123q16 -59 26.5 -118t53.5 -107l38 -27z" />
    <glyph glyph-name="uni2465" unicode="&#x2465;" 
d="M458 16q-27 10 -56.5 15.5t-50.5 32.5q-43 75 -78 155.5t-35 176.5q11 59 38 115.5t70 104.5q37 38 88 46t110 2q54 -16 102 -37.5t91 -64.5q43 -64 56.5 -139t7.5 -161q-16 -48 -40 -91t-61 -80q-54 -38 -113 -59.5t-129 -15.5zM587 80q48 21 91 61.5t64 88.5
q16 43 13.5 88.5t-2.5 93.5q-11 43 -27 78t-53 67l-102 48v-10l5 -27q-37 -48 -66.5 -99t-51.5 -110q43 5 78 -3t62 -46q16 -16 16 -34.5v-40.5l-32 -43q-33 -21 -65 -31.5t-69 -10.5l-54 16q-16 21 -19 48t-3 54q27 85 67.5 165.5t88.5 155.5l37 11v11l-123 5
q-27 -11 -48.5 -27t-42.5 -37q-32 -43 -48 -94t-16 -110q5 -70 34.5 -131.5t72.5 -115.5l21 -10l6 -16l118 -11zM528 214l37 32v27q-21 37 -53 37h-70q-16 -21 -18.5 -48t-2.5 -59l69 -5z" />
    <glyph glyph-name="uni2466" unicode="&#x2466;" 
d="M433 9l-75 59v11l-32 21q-59 65 -80.5 145t-16.5 172q5 59 29.5 112.5t72.5 96.5q48 37 107 40t123 3q49 -17 94.5 -46.5t82.5 -71.5q38 -65 59.5 -132t10.5 -147q-11 -43 -32.5 -86t-63.5 -75q-54 -43 -118.5 -53.5t-128.5 -16.5l-5 -27zM476 100l-22 16v27
q43 81 72.5 161t56.5 166l-123 11l-22 -5l-21 -140l-27 -5q-16 10 -16 26.5v32.5q11 43 19 85.5t29 80.5l27 5l11 -32q48 5 88 -3t78 -29l5 -48l-134 -338zM653 127q26 21 53 48t43 59q11 32 11 72.5v77.5q-16 54 -37.5 99.5t-69.5 83.5q-43 48 -105 53.5t-126 -0.5l-75 -48
q-54 -54 -64.5 -123.5t-5.5 -144.5q6 -54 32.5 -99.5t64.5 -82.5q27 -32 64.5 -32h74.5q32 10 69.5 13t70.5 24z" />
    <glyph glyph-name="uni2467" unicode="&#x2467;" 
d="M407 15q-48 37 -88.5 82.5t-66.5 93.5q-6 38 -22 75.5t-11 80.5q6 64 30 123t67 113q54 59 123.5 83t149.5 13q38 -10 70 -29t64 -51q59 -59 70 -134t5 -161q-16 -48 -34.5 -96.5t-61.5 -85.5q-48 -38 -107 -54t-124 -16l-37 11v-11l5 -27zM402 95v11l32 10
q21 -10 45.5 -13t50.5 -3q49 6 89 24.5t72 56.5q49 53 57 120t2 142q0 43 -26.5 78t-59.5 67q-32 32 -80 40t-96 3q-49 -5 -83.5 -37.5t-72.5 -64.5q-37 -48 -50.5 -109.5t-13.5 -126.5q16 -59 48 -110t80 -93zM455 132l-37 33l-6 32q6 32 27.5 61.5t37.5 61.5
q-16 22 -24 48.5t-8 58.5l59 113q26 21 53 32t65 5l53 -48q6 -21 14 -48t2 -54q-21 -37 -56 -66.5t-67 -51.5v-26l5 -65l-37 -53q-16 -16 -37.5 -21.5t-43.5 -11.5zM498 197q22 11 24.5 35t2.5 45h-11q-21 -21 -37 -42.5t-16 -48.5h21zM552 358l91 80v43l-32 43l-38 5
q-21 -11 -40 -29.5t-29 -39.5l-11 -65l16 -37l38 -6z" />
    <glyph glyph-name="uni2468" unicode="&#x2468;" 
d="M435 25q-32 16 -67 35t-61 46q-38 64 -59.5 136.5t-16.5 152.5q22 59 49 112.5t80 96.5q43 32 96.5 40t112.5 3q48 -16 91 -40t81 -67q48 -54 64 -123.5t16 -144.5q-11 -43 -37.5 -80.5t-64.5 -69.5q-53 -33 -112 -51.5t-124 -23.5l-5 -17zM414 95v11q32 53 50.5 114.5
t51.5 115.5q-33 5 -70.5 8t-63.5 19q-11 16 -19 37.5t-3 48.5q16 43 48.5 77.5t74.5 50.5l81 11l70 -54q16 -26 24 -53t2 -59l-26 -43l-17 -5l-5 -17l-91 -107l-48 -155h32q70 11 131.5 35t109.5 88q22 27 24.5 62t2.5 72q-5 64 -37.5 115t-85.5 94q-38 32 -89 37.5
t-104 0.5q-33 -6 -59.5 -30t-53.5 -51q-32 -48 -53.5 -101.5t-10.5 -117.5q10 -49 26.5 -94.5t53.5 -82.5l48 -33zM580 400l32 27v54l-53 59h-43q-27 -11 -46 -27t-40 -38q-11 -16 -19 -32t-3 -37q33 -22 75.5 -19t80.5 3z" />
    <glyph glyph-name="uni2469" unicode="&#x2469;" 
d="M422 -17q-38 11 -70 32.5t-59 53.5q-53 81 -88 166.5t-30 187.5q16 48 35 96.5t62 85.5q53 43 123 54t145 5q64 -16 128.5 -45.5t112.5 -88.5q48 -64 67 -142t14 -163q-11 -43 -27 -80.5t-49 -70.5q-64 -42 -136.5 -69t-157.5 -22l-38 11zM406 42v11l16 21h21l16 -26
q22 -16 54 -16h64q54 10 105 34.5t94 66.5q27 38 35 86t2 102q-5 70 -37 129t-91 107q-59 37 -131.5 50.5t-153.5 8.5q-32 -11 -64 -27t-59 -48q-27 -38 -40 -80.5t-13 -91.5q5 -91 45 -168.5t105 -142.5zM545 128l-48 54l-5 102q16 59 40 117.5t67 107.5l27 5
q26 -21 53 -29t49 -41q10 -16 10 -42.5v-48.5q-16 -48 -37.5 -91t-64.5 -80q-21 -16 -40 -37.5t-51 -16.5zM331 155l-11 37q11 81 37.5 156t48.5 150l-27 5l-5 27l26 27l54 5q11 -10 11 -23.5v-29.5q-32 -81 -61.5 -166.5t-35.5 -176.5zM567 187q32 27 64 59t48 70l11 96
q-16 22 -35 30t-40 8q-38 -49 -56.5 -105t-18.5 -120l21 -43z" />
    <glyph glyph-name="uni246A" unicode="&#x246a;" 
d="M430 11l-37 27v32q-43 11 -78 35t-67 57q-32 42 -51 93t-19 110q16 65 48.5 124t91.5 107q48 37 104 50.5t121 8.5q64 -16 125.5 -40.5t110.5 -77.5q37 -48 53 -102t11 -118q-16 -59 -37.5 -118t-75.5 -102q-69 -37 -144 -56t-156 -30zM693 129q64 54 85.5 123.5
t16.5 150.5l-22 59l-16 5l-129 -311l-26 -5l-11 37l118 279l-59 6l-5 26q16 16 34.5 16h40.5v11q-59 54 -129 70t-150 11q-48 -11 -83 -43t-73 -70q-26 -38 -45 -80.5t-14 -96.5q11 -43 30 -80.5t56 -69.5l134 -80l6 -27h16q59 16 115 29.5t110 39.5zM344 167l-16 37
q16 70 45.5 137t40.5 142l-32 6l-6 26q11 17 27 17h32l22 -11l5 -70q-27 -70 -51 -137t-40 -142z" />
    <glyph glyph-name="uni246B" unicode="&#x246b;" 
d="M418 1l-32 16l-11 37q-37 0 -69.5 19t-58.5 51q-38 64 -59.5 131.5t-21.5 147.5q22 64 54 128.5t91 112.5q59 38 123.5 56.5t139.5 8.5q53 -11 106.5 -32.5t91.5 -69.5q59 -65 83 -145.5t14 -176.5q-17 -48 -41 -93.5t-67 -83.5q-80 -48 -166 -72t-177 -35zM697 124
q32 16 56 45.5t46 56.5q21 43 21 91v97q-10 59 -42.5 107t-80.5 91q-48 38 -112.5 46t-128.5 2q-54 -10 -97 -39.5t-80 -78.5q-27 -43 -46 -85.5t-19 -96.5q6 -70 30 -134t83 -113q16 -10 40 -10t46 -6l11 -43l48 -5q59 16 115 32t110 43zM316 162l-10 32l96 273l-27 6
l-5 26q16 17 35 17h40l11 -43q-32 -75 -59 -150.5t-54 -155.5zM531 199l-22 16v27l6 11q53 0 88 35t73 67q16 21 24 48t8 54q-11 21 -35 21h-46l-5 -16l-27 -5l-11 32l33 37h69l59 -37l11 -65q-11 -37 -29.5 -74.5t-56.5 -69.5l-16 -22l91 -11l6 -26l-43 -16l-140 5z" />
    <glyph glyph-name="uni246C" unicode="&#x246c;" 
d="M425 5q-81 37 -123.5 109.5t-80.5 142.5q-11 32 -19 61.5t-8 66.5q16 65 43 121t81 99q53 43 117.5 59t133.5 11q54 -16 102.5 -37.5t85.5 -69.5q48 -65 72.5 -140t18.5 -160q-10 -43 -31.5 -83.5t-59.5 -72.5q-70 -54 -155.5 -75t-176.5 -32zM682 117q32 22 61.5 51.5
t45.5 61.5l11 123q-16 65 -45.5 126.5t-88.5 109.5q-38 22 -80.5 32.5t-91.5 5.5q-59 0 -107 -32.5t-91 -80.5q-27 -37 -40.5 -80t-13.5 -91q6 -33 19.5 -62.5t29.5 -61.5h16l91 252h-16l-27 -5l-11 32q22 16 43.5 21.5t47.5 5.5l17 -48q-27 -86 -64.5 -164t-48.5 -169
l70 -69l32 -6l5 -16h16q54 11 113 24.5t107 39.5zM527 166l-38 21l-5 38l32 10q11 -16 27 -18.5t37 -2.5l59 37l11 54l-32 22l-22 -6l-32 16l-5 38q16 16 34.5 13t40.5 -3l16 -5l48 43v32q-21 38 -56 43t-67 16l-6 27q17 16 35.5 13.5t40.5 -2.5q32 -11 58.5 -32.5
t42.5 -53.5v-48l-42 -59l-17 -27l11 -70l-37 -59q-27 -21 -62 -32t-72 -5z" />
    <glyph glyph-name="uni246D" unicode="&#x246d;" 
d="M398 53q-48 22 -91 59.5t-70 85.5q-21 43 -32 86t-11 91q11 64 40.5 117.5t72.5 102.5q53 42 120 42h137q64 -21 126 -48t110 -80q32 -48 40 -104.5t3 -115.5q-16 -48 -43 -91t-70 -81q-75 -42 -160.5 -47.5t-171.5 -16.5zM392 117v6l33 11l21 -27h27q75 10 147.5 18.5
t120.5 72.5q43 43 51 99t3 115l-33 65l-16 5q-10 -48 -39.5 -85.5t-40.5 -86.5l86 -10l5 -27q-16 -16 -35 -16h-40l-54 11l-59 -124l-26 -5l-11 37l48 108l-102 53l-10 32l26 102l27 6q11 -11 11 -27v-32l-11 -54q22 -16 46 -24t51 -13l91 166l21 5v11q-69 59 -152.5 75
t-179.5 5l-70 -43q-37 -43 -64 -93.5t-22 -115.5l16 -80h17q10 48 29 88t24 89l-16 37q16 16 35 27t40 11l11 -38q-22 -69 -51.5 -133.5t-29.5 -139.5q17 -11 11.5 -24.5t5.5 -23.5l53 -38z" />
    <glyph glyph-name="uni246E" unicode="&#x246e;" 
d="M498 3q-48 11 -96 24.5t-80 56.5l-49 80l-21 11q-11 70 -38 131.5t-27 136.5l70 156q59 59 137 64t163 0q54 -16 105 -45.5t94 -72.5q48 -59 69.5 -128.5t10.5 -150.5q-11 -48 -32 -96.5t-64 -85.5q-54 -38 -113 -59.5t-129 -21.5zM659 89q38 16 67.5 48.5t45.5 69.5
q16 38 16 81v85l-27 75l-182 6l-11 -59h16q22 11 46 11h51q27 -22 45.5 -48.5t7.5 -64.5q-32 -48 -75 -85.5t-91 -64.5l-48 -5l-32 32v26l16 22h21l11 -32h11q37 21 74.5 53.5t64.5 69.5v22q-11 21 -35 23.5t-45 2.5q-27 -5 -48.5 -24t-48.5 -24l-11 32q22 43 32.5 94
t21.5 99l27 6l11 -38h128v11q-64 80 -152.5 96t-190.5 6l-96 -65q-16 -32 -29.5 -69.5t-13.5 -80.5l27 -107h10l81 225l-16 6l-6 26q11 11 27 11h32q16 -11 13.5 -29.5t-2.5 -34.5l-102 -284q11 -33 32.5 -65t53.5 -59q37 -16 77.5 -26.5t83.5 -10.5z" />
    <glyph glyph-name="uni246F" unicode="&#x246f;" 
d="M452 17q-59 11 -113 48.5t-102 80.5q-37 53 -61.5 112t-18.5 134q16 48 45.5 94t72.5 83q64 54 144.5 75.5t171.5 10.5q59 -11 110 -40.5t99 -72.5q54 -59 72.5 -128.5t7.5 -155.5q-16 -37 -32 -74.5t-48 -70.5q-75 -53 -166 -69t-182 -27zM553 119l-53 43l-11 75l5 27
q-10 5 -13 18.5t-3 23.5l43 22q11 53 38 99t69 89q17 16 35.5 24t45.5 2v11q-54 43 -121 51t-136 3q-49 -11 -89 -35t-78 -62q-43 -43 -67 -91t-13 -113q16 -37 32 -72t48 -62l65 263h-11l-38 -11l-10 33q27 21 53.5 34.5t64.5 7.5l10 -32q-26 -69 -47.5 -147t-43.5 -153
l-27 -5v-11q43 -38 94 -62t116 -24q75 22 150 35t128 72q38 43 43.5 99.5t-0.5 115.5q-11 37 -32 69.5t-48 64.5l-27 11l-5 -27l-70 -38q-27 -27 -48.5 -59t-26.5 -69q43 5 83 -3t67 -40q11 -11 13.5 -27t2.5 -32l-43 -65q-32 -21 -67 -37t-78 -16zM634 188l59 54v16
q-27 38 -67 35t-78 -3l-11 -96l22 -27h27z" />
    <glyph glyph-name="uni2470" unicode="&#x2470;" 
d="M434 -23l-80 37l-22 48q-48 33 -93.5 70.5t-67.5 90.5q-16 27 -18.5 62t-2.5 72q11 81 51 145t94 129q53 43 117.5 61.5t139.5 7.5q64 -16 120.5 -53.5t104.5 -90.5q54 -70 75.5 -153t15.5 -180q-16 -43 -40 -85.5t-62 -80.5q-69 -54 -155 -70t-177 -10zM654 46
q48 16 85.5 54t64.5 80q16 33 16 73v83l-16 64h-11q-37 -86 -85.5 -166t-96.5 -161l-27 -5l-11 37q54 86 105 172t88 182q-26 22 -63.5 30t-75.5 8l-38 -22l-21 -80l-27 -6l-16 38l59 145l38 10l10 -37l86 -11v11q-53 59 -120 88.5t-153 18.5q-38 -5 -72.5 -26.5
t-61.5 -48.5q-54 -64 -89 -136.5t-24 -163.5q11 -27 27 -56.5t43 -50.5q32 -27 67 -54t72 -48v-32q32 -11 67 -11h73zM300 180q-16 16 -16 40.5v45.5q16 43 26.5 86t27.5 86l-27 5l-6 27l54 54h21l27 -11l6 -27q-33 -70 -57 -145t-29 -155z" />
    <glyph glyph-name="uni2471" unicode="&#x2471;" 
d="M453 -2l-27 27v11q-43 21 -86 42.5t-80 64.5q-43 70 -62 147.5t-13 168.5q16 49 37.5 94.5t64.5 82.5q69 48 152.5 75t179.5 16q38 -16 75.5 -34.5t69.5 -56.5q53 -70 66.5 -155.5t8.5 -176.5q-16 -65 -53.5 -118.5t-91.5 -101.5q-54 -38 -112.5 -62t-128.5 -24zM624 95
q49 32 89 77.5t67 93.5q11 38 11 83.5v88.5l-6 43h-11q0 -22 -13 -38t-29 -32l-102 -64l-11 -32q21 -22 24 -49t3 -59l-43 -43l-91 -21l-43 48v32q21 33 45.5 65t34.5 69q-26 43 -29 94t-3 105q11 21 19 42.5t29 37.5q16 16 40.5 16h45.5v11q-37 21 -80 18.5t-86 -2.5
q-59 -16 -112.5 -43t-96.5 -80q-27 -38 -37.5 -83.5t-5.5 -93.5q0 -59 19 -110t51 -94q-6 59 5 112.5t22 107.5l-22 11l-5 26q21 17 50.5 25t56.5 18l11 -32l-11 -27l-32 -37q-11 -48 -21.5 -94t-5.5 -99l5 -32l-16 -11v-11q32 -16 64.5 -37.5t69.5 -21.5l6 -21h53zM581 207
q17 11 17 27v32l-27 11l-54 -75l43 -5zM619 395q27 16 53.5 32t48.5 43l5 59l-43 59q-16 16 -37.5 16h-42.5q-38 -27 -38 -64.5v-80.5l22 -75h16z" />
    <glyph glyph-name="uni2472" unicode="&#x2472;" 
d="M394 -14l-27 27l-5 32l-22 11q-69 75 -112 163.5t-43 190.5q11 53 37.5 101.5t74.5 91.5q54 32 110.5 48t125.5 5q65 -16 126.5 -43t109.5 -75q48 -59 61.5 -134t8.5 -155q-16 -43 -40 -86t-67 -80q-75 -54 -161 -73t-177 -24zM673 99q37 26 66.5 61t45.5 73l6 160
q-11 17 -13.5 41t-24.5 29q5 -21 -5.5 -34.5t-15.5 -29.5l10 -32q-48 -65 -99 -126.5t-83 -131.5l-27 -5l-10 38q26 53 61 104t73 99q-54 0 -102 5.5t-86 42.5q-11 11 -13.5 30t-2.5 35l37 43q33 16 70.5 24t80.5 3l91 -27v5q-65 64 -145 85.5t-172 16.5q-37 -11 -72 -35
t-67 -62q-27 -32 -35 -66.5t-8 -77.5q11 -81 51 -150.5t99 -133.5l59 -11l6 -32h10q59 5 112.5 18.5t102.5 40.5zM319 190q-16 16 -16 34.5v40.5l37 123l-26 5l-6 27q11 22 29.5 32.5t34.5 21.5l38 5l11 -32q-32 -59 -51 -120.5t-24 -131.5zM657 393v17l43 48
q-27 16 -62 18.5t-73 2.5l-58 -27l-6 -21q27 -32 70 -35t86 -3z" />
    <glyph glyph-name="uni2473" unicode="&#x2473;" 
d="M478 1q-64 32 -128.5 64t-117.5 97q-38 53 -65 109.5t-21 126.5q11 53 43 96t75 81q64 53 142 74.5t169 10.5q64 -21 125.5 -50.5t115.5 -83.5q43 -69 67 -144t13 -167q-16 -32 -29.5 -61.5t-39.5 -50.5q-81 -48 -169.5 -69.5t-179.5 -32.5zM773 124q27 16 45.5 40.5
t29.5 50.5v134l-21 59h-11q11 -59 -13.5 -104.5t-72.5 -82.5q-16 -16 -34.5 -24t-45.5 -8l-59 32q-16 21 -16 50.5v56.5q10 32 29 64t46 59q21 16 50.5 13.5t56.5 -2.5l54 -32v16q-27 48 -72.5 85.5t-94.5 59.5q-48 21 -101.5 21h-107.5q-59 -16 -107 -51t-91 -83
q-27 -27 -37.5 -64.5t-5.5 -80.5q5 -32 18.5 -56t29.5 -51h11q21 16 50.5 10.5t46.5 21.5q26 43 53 86t22 102q-17 21 -38 34.5t-43 19.5l-5 26q11 11 24 11h29l65 -54q10 -21 15.5 -42.5t0.5 -48.5q-16 -43 -37.5 -80.5t-37.5 -80.5l134 -16l5 -26q-11 -17 -29.5 -17h-40.5
l-117 17l-49 -17v-10q32 -38 69.5 -56.5t80.5 -18.5l6 -32l48 -6q70 11 137 27t131 48zM677 242l85 86l6 70q-16 21 -40.5 18.5t-45.5 -2.5q-32 -32 -48 -69.5t-11 -86.5l48 -21z" />
    <glyph glyph-name="uni2474" unicode="&#x2474;" 
 />
    <glyph glyph-name="uni2475" unicode="&#x2475;" 
 />
    <glyph glyph-name="uni2476" unicode="&#x2476;" 
 />
    <glyph glyph-name="uni2477" unicode="&#x2477;" 
 />
    <glyph glyph-name="uni2478" unicode="&#x2478;" 
 />
    <glyph glyph-name="uni2479" unicode="&#x2479;" 
 />
    <glyph glyph-name="uni247A" unicode="&#x247a;" 
 />
    <glyph glyph-name="uni247B" unicode="&#x247b;" 
 />
    <glyph glyph-name="uni247C" unicode="&#x247c;" 
 />
    <glyph glyph-name="uni247D" unicode="&#x247d;" 
 />
    <glyph glyph-name="uni247E" unicode="&#x247e;" 
 />
    <glyph glyph-name="uni247F" unicode="&#x247f;" 
 />
    <glyph glyph-name="uni2480" unicode="&#x2480;" 
 />
    <glyph glyph-name="uni2481" unicode="&#x2481;" 
 />
    <glyph glyph-name="uni2482" unicode="&#x2482;" 
 />
    <glyph glyph-name="uni2483" unicode="&#x2483;" 
 />
    <glyph glyph-name="uni2484" unicode="&#x2484;" 
 />
    <glyph glyph-name="uni2485" unicode="&#x2485;" 
 />
    <glyph glyph-name="uni2486" unicode="&#x2486;" 
 />
    <glyph glyph-name="uni2487" unicode="&#x2487;" 
 />
    <glyph glyph-name="uni2488" unicode="&#x2488;" 
 />
    <glyph glyph-name="uni2489" unicode="&#x2489;" 
 />
    <glyph glyph-name="uni248A" unicode="&#x248a;" 
 />
    <glyph glyph-name="uni248B" unicode="&#x248b;" 
 />
    <glyph glyph-name="uni248C" unicode="&#x248c;" 
 />
    <glyph glyph-name="uni248D" unicode="&#x248d;" 
 />
    <glyph glyph-name="uni248E" unicode="&#x248e;" 
 />
    <glyph glyph-name="uni248F" unicode="&#x248f;" 
 />
    <glyph glyph-name="uni2490" unicode="&#x2490;" 
 />
    <glyph glyph-name="uni2491" unicode="&#x2491;" 
 />
    <glyph glyph-name="uni2492" unicode="&#x2492;" 
 />
    <glyph glyph-name="uni2493" unicode="&#x2493;" 
 />
    <glyph glyph-name="uni2494" unicode="&#x2494;" 
 />
    <glyph glyph-name="uni2495" unicode="&#x2495;" 
 />
    <glyph glyph-name="uni2496" unicode="&#x2496;" 
 />
    <glyph glyph-name="uni2497" unicode="&#x2497;" 
 />
    <glyph glyph-name="uni2498" unicode="&#x2498;" 
 />
    <glyph glyph-name="uni2499" unicode="&#x2499;" 
 />
    <glyph glyph-name="uni249A" unicode="&#x249a;" 
 />
    <glyph glyph-name="uni249B" unicode="&#x249b;" 
 />
    <glyph glyph-name="uni249C" unicode="&#x249c;" 
 />
    <glyph glyph-name="uni249D" unicode="&#x249d;" 
 />
    <glyph glyph-name="uni249E" unicode="&#x249e;" 
 />
    <glyph glyph-name="uni249F" unicode="&#x249f;" 
 />
    <glyph glyph-name="uni24A0" unicode="&#x24a0;" 
 />
    <glyph glyph-name="uni24A1" unicode="&#x24a1;" 
 />
    <glyph glyph-name="uni24A2" unicode="&#x24a2;" 
 />
    <glyph glyph-name="uni24A3" unicode="&#x24a3;" 
 />
    <glyph glyph-name="uni24A4" unicode="&#x24a4;" 
 />
    <glyph glyph-name="uni24A5" unicode="&#x24a5;" 
 />
    <glyph glyph-name="uni24A6" unicode="&#x24a6;" 
 />
    <glyph glyph-name="uni24A7" unicode="&#x24a7;" 
 />
    <glyph glyph-name="uni24A8" unicode="&#x24a8;" 
 />
    <glyph glyph-name="uni24A9" unicode="&#x24a9;" 
 />
    <glyph glyph-name="uni24AA" unicode="&#x24aa;" 
 />
    <glyph glyph-name="uni24AB" unicode="&#x24ab;" 
 />
    <glyph glyph-name="uni24AC" unicode="&#x24ac;" 
 />
    <glyph glyph-name="uni24AD" unicode="&#x24ad;" 
 />
    <glyph glyph-name="uni24AE" unicode="&#x24ae;" 
 />
    <glyph glyph-name="uni24AF" unicode="&#x24af;" 
 />
    <glyph glyph-name="uni24B0" unicode="&#x24b0;" 
 />
    <glyph glyph-name="uni24B1" unicode="&#x24b1;" 
 />
    <glyph glyph-name="uni24B2" unicode="&#x24b2;" 
 />
    <glyph glyph-name="uni24B3" unicode="&#x24b3;" 
 />
    <glyph glyph-name="uni24B4" unicode="&#x24b4;" 
 />
    <glyph glyph-name="uni24B5" unicode="&#x24b5;" 
 />
    <glyph glyph-name="uni24B6" unicode="&#x24b6;" 
 />
    <glyph glyph-name="uni24B7" unicode="&#x24b7;" 
 />
    <glyph glyph-name="uni24B8" unicode="&#x24b8;" 
 />
    <glyph glyph-name="uni24B9" unicode="&#x24b9;" 
 />
    <glyph glyph-name="uni24BA" unicode="&#x24ba;" 
 />
    <glyph glyph-name="uni24BB" unicode="&#x24bb;" 
 />
    <glyph glyph-name="uni24BC" unicode="&#x24bc;" 
 />
    <glyph glyph-name="uni24BD" unicode="&#x24bd;" 
 />
    <glyph glyph-name="uni24BE" unicode="&#x24be;" 
 />
    <glyph glyph-name="uni24BF" unicode="&#x24bf;" 
 />
    <glyph glyph-name="uni24C0" unicode="&#x24c0;" 
 />
    <glyph glyph-name="uni24C1" unicode="&#x24c1;" 
 />
    <glyph glyph-name="uni24C2" unicode="&#x24c2;" 
 />
    <glyph glyph-name="uni24C3" unicode="&#x24c3;" 
 />
    <glyph glyph-name="uni24C4" unicode="&#x24c4;" 
 />
    <glyph glyph-name="uni24C5" unicode="&#x24c5;" 
 />
    <glyph glyph-name="uni24C6" unicode="&#x24c6;" 
 />
    <glyph glyph-name="uni24C7" unicode="&#x24c7;" 
 />
    <glyph glyph-name="uni24C8" unicode="&#x24c8;" 
 />
    <glyph glyph-name="uni24C9" unicode="&#x24c9;" 
 />
    <glyph glyph-name="uni24CA" unicode="&#x24ca;" 
 />
    <glyph glyph-name="uni24CB" unicode="&#x24cb;" 
 />
    <glyph glyph-name="uni24CC" unicode="&#x24cc;" 
 />
    <glyph glyph-name="uni24CD" unicode="&#x24cd;" 
 />
    <glyph glyph-name="uni24CE" unicode="&#x24ce;" 
 />
    <glyph glyph-name="uni24CF" unicode="&#x24cf;" 
 />
    <glyph glyph-name="uni24D0" unicode="&#x24d0;" 
 />
    <glyph glyph-name="uni24D1" unicode="&#x24d1;" 
 />
    <glyph glyph-name="uni24D2" unicode="&#x24d2;" 
 />
    <glyph glyph-name="uni24D3" unicode="&#x24d3;" 
 />
    <glyph glyph-name="uni24D4" unicode="&#x24d4;" 
 />
    <glyph glyph-name="uni24D5" unicode="&#x24d5;" 
 />
    <glyph glyph-name="uni24D6" unicode="&#x24d6;" 
 />
    <glyph glyph-name="uni24D7" unicode="&#x24d7;" 
 />
    <glyph glyph-name="uni24D8" unicode="&#x24d8;" 
 />
    <glyph glyph-name="uni24D9" unicode="&#x24d9;" 
 />
    <glyph glyph-name="uni24DA" unicode="&#x24da;" 
 />
    <glyph glyph-name="uni24DB" unicode="&#x24db;" 
 />
    <glyph glyph-name="uni24DC" unicode="&#x24dc;" 
 />
    <glyph glyph-name="uni24DD" unicode="&#x24dd;" 
 />
    <glyph glyph-name="uni24DE" unicode="&#x24de;" 
 />
    <glyph glyph-name="uni24DF" unicode="&#x24df;" 
 />
    <glyph glyph-name="uni24E0" unicode="&#x24e0;" 
 />
    <glyph glyph-name="uni24E1" unicode="&#x24e1;" 
 />
    <glyph glyph-name="uni24E2" unicode="&#x24e2;" 
 />
    <glyph glyph-name="uni24E3" unicode="&#x24e3;" 
 />
    <glyph glyph-name="uni24E4" unicode="&#x24e4;" 
 />
    <glyph glyph-name="uni24E5" unicode="&#x24e5;" 
 />
    <glyph glyph-name="uni24E6" unicode="&#x24e6;" 
 />
    <glyph glyph-name="uni24E7" unicode="&#x24e7;" 
 />
    <glyph glyph-name="uni24E8" unicode="&#x24e8;" 
 />
    <glyph glyph-name="uni24E9" unicode="&#x24e9;" 
 />
    <glyph glyph-name="uni24EA" unicode="&#x24ea;" 
 />
    <glyph glyph-name="SF100000" unicode="&#x2500;" 
d="M649 339l-161 16h-418l-22 16v21l11 11h429l300 -16l172 10l21 -16v-21q-80 -11 -163.5 -16t-168.5 -5z" />
    <glyph glyph-name="uni2501" unicode="&#x2501;" horiz-adv-x="936" 
d="M387 -11l-11 32q48 53 91 107t27 129q-48 53 -112.5 64t-139.5 5l-86 -21l-11 32q54 32 115.5 35t126.5 3q37 -11 69 -30t65 -45q21 -22 21 -57v-67q-16 -53 -51 -96t-78 -86zM757 407l-11 37l32 91l27 6q10 -11 10 -24.5v-23.5l-32 -81zM633 460q-16 16 -16 35v40l27 59
l27 6l10 -32q-16 -22 -16 -48.5t-5 -53.5zM328 493q-27 48 -40.5 99t-18.5 104l32 11q21 -48 34.5 -99t24.5 -105z" />
    <glyph glyph-name="SF110000" unicode="&#x2502;" 
d="M525 -112q-21 27 -23.5 59t-2.5 70q10 91 13 182t3 182q-22 102 -24.5 214.5t-13.5 220.5l16 32l27 5l11 -32l-6 -32q0 -145 21.5 -284.5t16.5 -289.5l-16 -252l11 -64z" />
    <glyph glyph-name="uni2503" unicode="&#x2503;" 
d="M294 56l-21 16v21l43 38v21q-38 91 -105 169t-61 185l27 54q21 16 45 24t51 2q38 -26 62 -61t40 -73q11 -32 21.5 -64t37.5 -48q75 80 160.5 134t198.5 48l80 -53q17 -22 19.5 -46t2.5 -51q-11 -27 -29.5 -48.5t-40.5 -42.5q-112 -64 -241 -93.5t-241 -99.5l-11 -22z
M412 249q-37 69 -64 144.5t-86 139.5l-32 5l-32 -32v-48q21 -81 83 -148t78 -152h11q112 59 240.5 83t225.5 120q11 11 11 30v35q-27 37 -64.5 45t-80.5 3q-70 -27 -129 -72.5t-112 -104.5l-22 -43z" />
    <glyph glyph-name="uni2504" unicode="&#x2504;" horiz-adv-x="512" 
 />
    <glyph glyph-name="uni2505" unicode="&#x2505;" horiz-adv-x="512" 
 />
    <glyph glyph-name="uni2506" unicode="&#x2506;" horiz-adv-x="512" 
 />
    <glyph glyph-name="uni2507" unicode="&#x2507;" horiz-adv-x="512" 
 />
    <glyph glyph-name="uni2508" unicode="&#x2508;" horiz-adv-x="512" 
 />
    <glyph glyph-name="uni2509" unicode="&#x2509;" horiz-adv-x="512" 
 />
    <glyph glyph-name="uni250A" unicode="&#x250a;" horiz-adv-x="512" 
 />
    <glyph glyph-name="uni250B" unicode="&#x250b;" horiz-adv-x="512" 
 />
    <glyph glyph-name="SF010000" unicode="&#x250c;" 
d="M488 -106q-16 32 -19 72t-3 83l6 5v285l-16 37q32 16 69.5 13.5t74.5 -2.5q97 0 193.5 -11t192.5 -11l6 -26q-43 -22 -96.5 -19.5t-102.5 2.5q-64 11 -133.5 11t-139.5 6v-295l-5 -49l5 -91z" />
    <glyph glyph-name="uni250D" unicode="&#x250d;" horiz-adv-x="512" 
 />
    <glyph glyph-name="uni250E" unicode="&#x250e;" horiz-adv-x="512" 
 />
    <glyph glyph-name="uni250F" unicode="&#x250f;" horiz-adv-x="980" 
d="M311 28l-21 16v21q10 16 10 40v46l-58 91q-22 11 -38 29.5t-27 40.5q-11 37 -24 77.5t-8 83.5l38 59h59q26 -11 42 -32.5t27 -48.5t16.5 -56.5t26.5 -45.5q75 65 158 105t180 51l91 -81l11 -85q-11 -33 -35 -57l-51 -51q-86 -59 -182.5 -83t-176.5 -88l-11 -22zM220 355
l5 16h-16v-16l6 -6zM225 478l-21 5v-10h16z" />
    <glyph glyph-name="SF030000" unicode="&#x2510;" 
d="M520 -112q-21 32 -16 72.5t-11 72.5v300q-107 -5 -206 8.5t-201 18.5l-48 -11l-11 32q32 27 75 27h86q75 -16 155.5 -21.5t160.5 -5.5l32 6l11 -32l-6 -6v-305q11 -33 11 -70.5v-74.5z" />
    <glyph glyph-name="uni2511" unicode="&#x2511;" horiz-adv-x="512" 
 />
    <glyph glyph-name="uni2512" unicode="&#x2512;" horiz-adv-x="512" 
 />
    <glyph glyph-name="uni2513" unicode="&#x2513;" 
d="M714 -37q-91 32 -147 115.5t-121 158.5h-11q-21 -59 -48 -115.5t-64 -110.5l-43 -10l-43 37v54q11 54 32.5 99.5t58.5 82.5l27 32q-54 0 -99.5 19t-88.5 46q-10 16 -18 34.5t-8 40.5l26 37h81q43 -16 88.5 -21.5t88.5 -21.5v38l-6 96q11 65 48.5 116t80.5 99l38 11
l37 -27l5 -75q-26 -81 -63.5 -161.5t-53.5 -165.5h10q70 32 137 64t153 27l43 -27q10 -21 21 -40t5 -46q-48 -43 -115 -45.5t-137 -2.5v-11q43 -21 83.5 -56t61.5 -78q16 -43 29.5 -85.5t8.5 -91.5q-16 -16 -43 -16h-54zM762 11v33q-10 48 -31.5 91t-64.5 75
q-48 32 -96.5 64t-107.5 38v-11q59 -75 115.5 -158t142.5 -132h42zM296 54q32 43 56 91.5t35 101.5h-16q-43 -37 -64.5 -85.5t-21.5 -107.5l6 -5zM403 360l11 5v11q-48 32 -107 43t-118 16v-11q16 -27 40 -40t51 -24l118 -5zM827 365l5 16l-27 33h-80l-129 -54v-11h150z
M484 462v5q27 65 59 132t37 142h-11q-53 -54 -82.5 -115.5t-18.5 -142.5l10 -27z" />
    <glyph glyph-name="SF020000" unicode="&#x2514;" 
d="M493 322l-16 22v477l16 21h22l16 -48l-6 -5v-408l172 -5l54 5l53 -5l81 11l96 -16l5 -27l-42 -16l-27 5l-27 -5l-54 11l-91 -11l-43 5l-37 -5l-140 5z" />
    <glyph glyph-name="uni2515" unicode="&#x2515;" horiz-adv-x="512" 
 />
    <glyph glyph-name="uni2516" unicode="&#x2516;" horiz-adv-x="512" 
 />
    <glyph glyph-name="uni2517" unicode="&#x2517;" 
d="M255 -124l-16 32l59 102h21l11 -32l-49 -96zM651 -76q-26 27 -45 56.5t-30 67.5l16 21h22q5 -37 34.5 -66.5t35.5 -67.5zM426 160q-27 6 -48.5 19t-42.5 35q-27 32 -37.5 67t-5.5 78q11 48 29.5 93.5t34.5 93.5l108 49l10 -22q33 0 65 -10.5t53 -37.5q43 -48 62 -102
t8 -123q-5 -27 -21 -48.5t-38 -37.5q-43 -22 -83 -40.5t-94 -13.5zM785 160l-10 32q26 22 64 19.5t70 -2.5l10 -33q-26 -21 -63.5 -18.5t-70.5 2.5zM512 219q27 11 56.5 30t45.5 51v107q-16 32 -37.5 61.5t-53.5 51.5l-102 5q-43 -48 -64.5 -107t-16.5 -129l70 -75l75 -5z
M142 268l-21 16v21q16 16 40 13.5t45 -2.5l11 -32q-16 -16 -35 -16h-40zM206 600q-26 32 -42.5 64t-10.5 75l16 22h27q10 -11 18 -19t3 -24l-16 -27l38 -80zM801 600l-10 32q16 22 34.5 48.5t45.5 37.5h27l11 -32l-38 -27l-48 -59h-22zM512 734q-11 11 -11 24v30l38 59h21
l11 -33q-16 -16 -19 -37.5t-13 -37.5z" />
    <glyph glyph-name="SF040000" unicode="&#x2518;" 
d="M247 322l-199 27l-5 27q16 16 35 13.5t40 -2.5q43 -11 91 -11t97 -5l171 5l6 209l-6 70q6 48 3 99t24 94l27 5l10 -32q-10 -54 -10 -113t-6 -112l6 -54l-6 -161l16 -5l6 -27q-64 -27 -144.5 -21.5t-155.5 -5.5z" />
    <glyph glyph-name="uni2519" unicode="&#x2519;" horiz-adv-x="512" 
 />
    <glyph glyph-name="uni251A" unicode="&#x251a;" horiz-adv-x="512" 
 />
    <glyph glyph-name="uni251B" unicode="&#x251b;" 
d="M749 -16q-91 59 -163.5 142t-120.5 174h-11q-32 -64 -64 -128.5t-91 -118.5l-33 -5l-10 5l-11 65q27 59 59 112.5t70 106.5q-59 11 -118 24.5t-113 34.5l-16 49l32 37h70l182 -37q-5 85 16.5 160.5t64.5 139.5l59 11q21 -27 21 -62v-67q-21 -54 -45.5 -105t-34.5 -104h10
q81 53 172 82.5t193 29.5l27 -21l5 -48l-54 -65q-59 -21 -126 -29t-131 -14v-10l97 -48q37 -70 66.5 -142.5t45.5 -152.5zM744 48v5l-22 49h-11v-11l27 -48zM706 139v5l-64 124l-27 10v-10q37 -27 45 -64.5t41 -69.5zM572 236v5l-11 5v-10l6 -6zM636 429l-16 5v-11h11z
M652 434l-16 5v-10h11zM727 455l-16 6v-11h11z" />
    <glyph glyph-name="SF080000" unicode="&#x251c;" 
d="M525 -112q-21 38 -21 86v96l11 70v279l-6 123l11 172l-11 123l16 22h22q16 -59 18.5 -123.5t2.5 -128.5l-10 -172l5 -54h96l193 11l113 -21l5 -27l-37 -16q-48 5 -94 13t-99 3l-177 -11q5 -96 -3 -187.5t-8 -182.5l6 -64z" />
    <glyph glyph-name="uni251D" unicode="&#x251d;" 
 />
    <glyph glyph-name="uni251E" unicode="&#x251e;" horiz-adv-x="512" 
 />
    <glyph glyph-name="uni251F" unicode="&#x251f;" horiz-adv-x="512" 
 />
    <glyph glyph-name="uni2520" unicode="&#x2520;" 
d="M938 -26l-16 11h-268l-86 -6q-96 6 -187 19t-193 13l-91 -10q-17 59 -17 126v131q17 91 19.5 187.5t18.5 187.5l27 6l5 -6h300q81 -16 164 -24t174 -2l102 5q11 -11 11 -24.5v-23.5l-16 -91l5 -33l21 -5l6 -27l-22 -11v-21l49 -348l32 -6l5 -27zM895 33v21
q-16 75 -24 155.5t-19 161.5h-10q-86 -49 -164 -108t-163 -96q-91 70 -182.5 145t-187.5 134q-6 -97 -14 -196t-2 -201h10q38 11 83.5 11h88.5q80 -16 166 -21.5t172 -10.5l5 5h241zM563 242q70 43 137 94t142 83v48l-6 43l11 54h-54l-166 -6l-177 27h-289
q-16 -16 -13.5 -40t2.5 -46q102 -53 193 -133.5t188 -139.5z" />
    <glyph glyph-name="uni2521" unicode="&#x2521;" horiz-adv-x="512" 
 />
    <glyph glyph-name="uni2522" unicode="&#x2522;" horiz-adv-x="512" 
 />
    <glyph glyph-name="uni2523" unicode="&#x2523;" 
d="M385 101l-70 38l-22 69h-16q-26 -16 -61 -18.5t-67 -2.5l-65 43q-16 27 -26.5 61.5t-5.5 72.5q38 75 110 128.5t148 91.5l91 5l43 -27l10 -32h11q54 48 115.5 75t141.5 16q27 -10 59 -18.5t54 -29.5l27 -59l48 -32q21 -32 32 -67t5 -78q-5 -21 -21 -40t-27 -40l86 -6
l5 -26q-166 5 -305.5 -56.5t-299.5 -67.5zM706 225l16 37q49 11 94.5 16.5t77.5 53.5l5 69l-37 59l-49 17q-5 16 -5 40t-21 35q-38 16 -78 18.5t-83 2.5q-54 -11 -94 -51t-94 -51l-11 6l-26 59l-70 5q-59 -27 -110 -67t-99 -83q-16 -22 -19 -46t-3 -51l49 -59h48l123 27
q22 -21 19 -50.5t24 -51.5l75 -10q70 10 137 29t131 46z" />
    <glyph glyph-name="SF090000" unicode="&#x2524;" 
d="M515 -112q-22 16 -22 37.5v43.5l6 112l-11 32v226q-22 16 -46 16h-51l-5 -6h-289l-27 6l-27 -6l-11 32l27 27h27l21 -11h274l85 6l17 -6l5 215l-5 80q10 38 5 83.5t16 77.5l27 6l10 -33l-10 -203l5 -183l-5 -85l5 -6v-225q11 -37 11 -77.5v-83.5l-6 -27l6 -37z" />
    <glyph glyph-name="uni2525" unicode="&#x2525;" 
d="M874 -50l-43 32l-112 -27l-156 59q-27 -21 -56.5 -24t-61.5 -8q-32 11 -67 24t-62 35l-32 37l-26 -32h-22l-11 32l22 43l-38 107q-43 -5 -80.5 8.5t-69.5 40.5l-16 43l59 112q27 22 56.5 43.5t66.5 15.5q6 32 16.5 64.5t37.5 53.5q21 16 42.5 24t48.5 3q22 -11 48.5 -11
t48.5 -5q37 16 77.5 18.5t82.5 2.5q38 -10 75.5 -18.5t64.5 -40.5l16 -53h16l38 5l53 -32q43 -43 62 -99.5t13 -120.5l-37 -59h-11v-11l5 -123l-37 -80l21 -49zM826 30l37 38q11 32 11 67v72l-5 21l48 59v81q-11 32 -29.5 59t-45.5 53l-38 6l-48 -6q-16 22 -18.5 49
t-29.5 43q-43 10 -86 18t-91 3l-43 -16v-38q27 0 51 -2.5t40 -23.5l11 -65q-16 -32 -43 -50.5t-54 -40.5l-134 -37l-91 48l-37 75l-27 5q-32 -21 -61.5 -48t-45.5 -64v-27q21 -22 45 -30t57 -2l53 21l6 27l32 5l10 -43l-42 -42v-33l37 -64l27 5q16 -16 16 -40t16 -40
q21 -21 50.5 -32t62.5 -11q37 0 64 19t64 19q32 -27 72.5 -46t83.5 -19zM220 320l-70 21l-5 27l43 11l59 -16l5 -27zM477 405l65 54v21q-22 17 -54 14t-59 -3l-11 -5v-11l11 -32l-43 -11q-11 6 -19 19t-8 29l22 43l59 16v17q-22 21 -51.5 21t-55.5 11l-54 -54l-5 -86
q10 -21 29 -42.5t40 -32.5l43 -5z" />
    <glyph glyph-name="uni2526" unicode="&#x2526;" horiz-adv-x="512" 
 />
    <glyph glyph-name="uni2527" unicode="&#x2527;" horiz-adv-x="512" 
 />
    <glyph glyph-name="uni2528" unicode="&#x2528;" 
 />
    <glyph glyph-name="uni2529" unicode="&#x2529;" horiz-adv-x="512" 
 />
    <glyph glyph-name="uni252A" unicode="&#x252a;" horiz-adv-x="512" 
 />
    <glyph glyph-name="uni252B" unicode="&#x252b;" 
d="M433 -117q-32 21 -72.5 29t-77.5 19l-59 -11q-32 27 -75 21.5t-75 11.5l-6 26q27 16 59.5 13.5t64.5 -2.5l37 -11v22l-10 64l5 43q-16 21 -43 42.5t-27 48.5l43 11l59 -54l43 54q-38 5 -70 29t-59 51q-10 16 -18.5 35t-8.5 40q6 59 24.5 110t56.5 94l118 64l32 156
q16 16 43 16h54q48 -22 93.5 -43t88.5 -59l5 -27l-21 -10l-38 -118q32 -38 45.5 -86t8.5 -102q-11 -32 -32.5 -59t-48.5 -54l-37 -16v-10l80 -22q27 22 54 38t64 16l11 -32l-86 -49v-10q22 -27 24.5 -59.5t2.5 -69.5l-11 -43l22 -11q64 16 131 19t137 8l10 -32
q-69 -27 -144 -27t-150 -11l-27 6q-54 -11 -107.5 -35t-112.5 -24zM599 -21q32 22 35 56.5t3 72.5l-54 54q-48 16 -99 21t-105 5l-80 -53q-11 -27 -24.5 -51t-7.5 -56l27 -49l171 -48q38 5 70 18.5t64 29.5zM830 226q-27 11 -46 29.5t-13 50.5l16 33q21 10 45.5 10h45.5
l21 -16l6 -48l-22 -43zM535 280q37 32 58.5 69.5t11.5 85.5l-27 64l-27 11l-11 27q-37 16 -74.5 32t-80.5 16l-6 -27l-26 -5l-17 27h-10q-38 -16 -67.5 -45.5t-45.5 -67.5q-11 -27 -13.5 -59t-7.5 -64q16 -27 42.5 -48.5t53.5 -37.5q38 -11 75.5 -16t80.5 -5zM851 274v11
l6 16l-27 5l-11 -26zM283 344l-11 32l32 11l11 -32zM519 349l-11 32l32 11l11 -32zM310 430l-59 26l-6 27q11 11 24.5 11h24.5l48 -32v-22zM449 430l-11 32l6 11l85 37l11 -32q-21 -11 -42.5 -29.5t-48.5 -18.5zM894 564q-27 10 -45.5 29t-13.5 56l43 70h75l27 -27v-59
l-32 -59zM562 585v11l32 91q-38 32 -83.5 53.5t-98.5 16.5l-22 -124h38l26 6q22 -16 48.5 -32.5t53.5 -26.5zM915 617q17 11 17 24.5v29.5l-33 5q-5 -16 -13 -29.5t-3 -29.5l27 -5zM122 660l-48 22q-16 16 -21.5 40t-0.5 51q11 32 40.5 32t56.5 5q27 -21 35 -50.5t2 -67.5
l-26 -26zM138 708v43l-37 11v-37z" />
    <glyph glyph-name="SF060000" unicode="&#x252c;" 
d="M515 -112l-16 22v402q-86 0 -169 10.5t-175 5.5l-117 -11l-11 43l16 21h32q11 -16 32.5 -13t37.5 3l203 5q43 -21 97 -18.5t102 2.5q96 32 206 32t217 5l49 -21l5 -27l-43 -10q-27 10 -64.5 10h-69.5q-80 0 -155 -8t-145 -24v-418z" />
    <glyph glyph-name="uni252D" unicode="&#x252d;" horiz-adv-x="512" 
 />
    <glyph glyph-name="uni252E" unicode="&#x252e;" horiz-adv-x="512" 
 />
    <glyph glyph-name="uni252F" unicode="&#x252f;" horiz-adv-x="888" 
d="M330 22q-22 22 -54 32.5t-53 37.5q-11 11 -13.5 27t-2.5 32q0 27 10.5 51t26.5 45q43 0 75 29.5t75 29.5l22 -10l5 -22l70 -11q21 -26 32 -61t5 -73l-37 -59q-32 -26 -75 -37t-86 -11zM625 296l-32 37v48l26 27l54 16q16 -16 16 -42.5v-53.5q-11 -16 -27 -27t-37 -5z
M185 451l-32 16q-11 16 -11 35v35l27 32h38l10 -27l16 -5l6 -59q-11 -11 -24.5 -21.5t-29.5 -5.5zM410 451l-26 27l-6 59l16 21h32l43 -16l11 -53l-11 -22z" />
    <glyph glyph-name="uni2530" unicode="&#x2530;" 
 />
    <glyph glyph-name="uni2531" unicode="&#x2531;" horiz-adv-x="512" 
 />
    <glyph glyph-name="uni2532" unicode="&#x2532;" horiz-adv-x="512" 
 />
    <glyph glyph-name="uni2533" unicode="&#x2533;" 
d="M302 -106l-32 37l-32 139l32 11l43 -128h10q22 96 62 184.5t62 184.5h-70q-22 -10 -38 -26t-43 -11l-10 32l21 43q-11 16 -32 13.5t-37 -2.5l-59 -59h-22q-11 10 -21.5 21t-5.5 27q59 80 139.5 142t166.5 99q27 11 53.5 16.5t58.5 -0.5l17 43l26 6l11 -33l-5 -32
q21 0 37 -18.5t32 -34.5q65 -75 91.5 -163.5t69.5 -169.5l-37 -11l-11 6l-21 37h-38q-16 -16 -32 -34.5t-38 -13.5q-16 11 -16 32.5t-16 31.5l-37 6q-22 -6 -38 -22t-37 -16l-11 27h-16q-32 -91 -67 -177t-57 -182zM736 296v10q-21 65 -50.5 129t-88.5 113l-16 5l-11 -16
h-22l-16 32h-48q-59 -27 -115 -56.5t-105 -77.5l-5 -16q27 5 51 -3t40 -29l5 -22h11l91 6l43 -27l11 -54h16q21 11 45.5 21.5t51.5 5.5l37 -27l5 -16h11zM843 451l-10 43l75 220l26 5l11 -43l-75 -220zM93 478l-11 32l145 332l27 6l10 -32q-43 -81 -75 -164t-69 -169z
M259 590l-11 33l91 209l27 5l11 -32l-91 -209zM672 623l-11 37l70 172l27 5l10 -32q-27 -43 -40 -88.5t-29 -88.5z" />
    <glyph glyph-name="SF070000" unicode="&#x2534;" 
d="M43 339l-11 32q81 16 172 16t177 10l118 -10v53q-11 49 -11 99.5v104.5q5 48 2.5 102t18.5 96l27 6l11 -43l-11 -306l11 -112h21l102 10h236q16 -10 40 -10t46 -6l5 -26q-16 -16 -34.5 -16h-40.5l-27 10h-225l-246 -10l-113 10l-54 -10h-214z" />
    <glyph glyph-name="uni2535" unicode="&#x2535;" horiz-adv-x="512" 
 />
    <glyph glyph-name="uni2536" unicode="&#x2536;" horiz-adv-x="512" 
 />
    <glyph glyph-name="uni2537" unicode="&#x2537;" 
 />
    <glyph glyph-name="uni2538" unicode="&#x2538;" 
d="M831 242q-16 16 -16 35v40l-193 5l-11 -59l-27 -5l-16 48l6 33q-49 10 -99.5 18t-104.5 3l-5 -75l-27 -5q-16 16 -16 40v45h-70l-129 -5v-21l11 -76l-32 -10q-16 21 -19 48t-8 54h-11l-60 -27l-4 37l64 38l11 64l27 6q16 -11 13.5 -30t-2.5 -35h134l69 6l11 42l27 6
q11 -11 11 -24.5v-23.5q59 0 112.5 -8.5t106.5 -18.5l11 43l27 5q16 -11 13.5 -29.5t-2.5 -34.5l187 -6l11 38l27 5l11 -37h10l91 16l11 43l27 5q11 -21 16 -51q-5 -29 0 -56l-32 -11l-11 22h-43l-75 -17l-5 -75z" />
    <glyph glyph-name="uni2539" unicode="&#x2539;" horiz-adv-x="512" 
 />
    <glyph glyph-name="uni253A" unicode="&#x253a;" horiz-adv-x="512" 
 />
    <glyph glyph-name="uni253B" unicode="&#x253b;" 
d="M214 -5l-21 16l-16 86v510l16 42l27 6q64 -22 139 -16.5t140 -15.5h353l11 -33q-21 -69 -24 -149.5t-3 -160.5l22 -220l21 -6l6 -26l-59 -22l-108 5l-107 -10l-112 5l-65 -11h-220zM810 60v10q-11 86 -16.5 174.5t-5.5 179.5l11 102h-16q-140 -112 -271 -243.5
t-276 -222.5v-16h198l172 10l48 -5zM241 108q134 107 260 230.5t260 225.5v10h-262q-65 22 -137 16.5t-137 10.5v-498h11z" />
    <glyph glyph-name="SF050000" unicode="&#x253c;" 
d="M525 -128q-16 16 -16 37.5v43.5l6 37l-6 5v220l-10 129h-220l-140 -16l-96 11l-5 26q21 16 48 16h53l54 -5l86 16h220v11l-11 64v359l16 22h21l11 -11v-364l11 -86l59 -6l145 6l198 -16l48 5l11 -32q-22 -16 -48.5 -19t-58.5 -3l-290 17l-48 -6l-16 6v-86l11 -32v-215
l5 -59l-11 -70z" />
    <glyph glyph-name="uni253D" unicode="&#x253d;" horiz-adv-x="512" 
 />
    <glyph glyph-name="uni253E" unicode="&#x253e;" horiz-adv-x="512" 
 />
    <glyph glyph-name="uni253F" unicode="&#x253f;" 
 />
    <glyph glyph-name="uni2540" unicode="&#x2540;" horiz-adv-x="512" 
 />
    <glyph glyph-name="uni2541" unicode="&#x2541;" horiz-adv-x="512" 
 />
    <glyph glyph-name="uni2542" unicode="&#x2542;" 
d="M458 -104q-91 27 -163.5 86t-147.5 123q-53 75 -85.5 155.5t-26.5 177.5q27 75 72.5 142t109.5 126t139 91t167 27q101 -6 184.5 -46t152.5 -120q70 -81 105 -177.5t29 -208.5q-10 -76 -47.5 -140t-96.5 -118q-81 -69 -180 -93.5t-212 -24.5zM710 -18q70 32 129 91
t91 129q5 32 13 69.5t3 75.5q-5 107 -58.5 192.5t-139.5 160.5q-65 49 -140 62t-155 13q-43 -5 -78 -21t-67 -37l-5 -17l16 -5q21 -37 56 -66.5t24 -78.5q-10 -21 -23.5 -37t-13.5 -43q16 -27 26.5 -59t10.5 -70l-16 -21l-86 -16l-21 16v21q16 11 35 13.5t40 2.5v27
q-11 27 -24 54t-13 59l37 85q-21 22 -42.5 43.5t-27.5 48.5l-21 5q-70 -70 -126 -145t-51 -177q16 -80 53.5 -147t101.5 -126q70 -48 137 -99t164 -40q43 5 88.5 13t82.5 24zM764 52l-16 32l32 134l27 5q10 -10 10 -26.5v-32.5l-26 -107zM533 89q-16 6 -32 14t-21 29v43
l16 43l27 5l10 -43l-5 -42l27 -6l5 -27zM196 293l-33 38v42l27 54l38 11l10 -32q-16 -11 -24 -27t-2 -38l16 -37zM496 309q-16 27 -16 64.5t-11 69.5l32 11q22 -27 27 -62t0 -72z" />
    <glyph glyph-name="uni2543" unicode="&#x2543;" horiz-adv-x="512" 
 />
    <glyph glyph-name="uni2544" unicode="&#x2544;" horiz-adv-x="512" 
 />
    <glyph glyph-name="uni2545" unicode="&#x2545;" horiz-adv-x="512" 
 />
    <glyph glyph-name="uni2546" unicode="&#x2546;" horiz-adv-x="512" 
 />
    <glyph glyph-name="uni2547" unicode="&#x2547;" horiz-adv-x="512" 
 />
    <glyph glyph-name="uni2548" unicode="&#x2548;" horiz-adv-x="512" 
 />
    <glyph glyph-name="uni2549" unicode="&#x2549;" horiz-adv-x="512" 
 />
    <glyph glyph-name="uni254A" unicode="&#x254a;" horiz-adv-x="512" 
 />
    <glyph glyph-name="uni254B" unicode="&#x254b;" 
d="M810 -15l-27 26h-113l-187 -10h-226l-43 -6q-16 70 -21 142.5t-16 142.5v310l-5 38l16 38l26 5l11 -32h145l5 5h295l209 5l11 -42q-27 -49 -29.5 -102.5t-8.5 -107.5v-251l-21 -151zM729 65q-139 102 -249 241.5t-255 246.5v-273q6 -59 16.5 -113t5.5 -118h236zM799 87
v53l5 6v251q6 54 8.5 105t18.5 99h-155l-6 -5h-295l-96 -6v-10q145 -118 254.5 -260t259.5 -239z" />
    <glyph glyph-name="uni254C" unicode="&#x254c;" horiz-adv-x="512" 
 />
    <glyph glyph-name="uni254D" unicode="&#x254d;" horiz-adv-x="512" 
 />
    <glyph glyph-name="uni254E" unicode="&#x254e;" horiz-adv-x="512" 
 />
    <glyph glyph-name="uni254F" unicode="&#x254f;" horiz-adv-x="512" 
 />
    <glyph glyph-name="SF430000" unicode="&#x2550;" horiz-adv-x="512" 
 />
    <glyph glyph-name="SF240000" unicode="&#x2551;" horiz-adv-x="512" 
 />
    <glyph glyph-name="SF510000" unicode="&#x2552;" horiz-adv-x="512" 
 />
    <glyph glyph-name="SF520000" unicode="&#x2553;" horiz-adv-x="512" 
 />
    <glyph glyph-name="SF390000" unicode="&#x2554;" horiz-adv-x="512" 
 />
    <glyph glyph-name="SF220000" unicode="&#x2555;" horiz-adv-x="512" 
 />
    <glyph glyph-name="SF210000" unicode="&#x2556;" horiz-adv-x="512" 
 />
    <glyph glyph-name="SF250000" unicode="&#x2557;" horiz-adv-x="512" 
 />
    <glyph glyph-name="SF500000" unicode="&#x2558;" horiz-adv-x="512" 
 />
    <glyph glyph-name="SF490000" unicode="&#x2559;" horiz-adv-x="512" 
 />
    <glyph glyph-name="SF380000" unicode="&#x255a;" horiz-adv-x="512" 
 />
    <glyph glyph-name="SF280000" unicode="&#x255b;" horiz-adv-x="512" 
 />
    <glyph glyph-name="SF270000" unicode="&#x255c;" horiz-adv-x="512" 
 />
    <glyph glyph-name="SF260000" unicode="&#x255d;" horiz-adv-x="512" 
 />
    <glyph glyph-name="SF360000" unicode="&#x255e;" horiz-adv-x="512" 
 />
    <glyph glyph-name="SF370000" unicode="&#x255f;" horiz-adv-x="512" 
 />
    <glyph glyph-name="SF420000" unicode="&#x2560;" horiz-adv-x="512" 
 />
    <glyph glyph-name="SF190000" unicode="&#x2561;" horiz-adv-x="512" 
 />
    <glyph glyph-name="SF200000" unicode="&#x2562;" horiz-adv-x="512" 
 />
    <glyph glyph-name="SF230000" unicode="&#x2563;" horiz-adv-x="512" 
 />
    <glyph glyph-name="SF470000" unicode="&#x2564;" horiz-adv-x="512" 
 />
    <glyph glyph-name="SF480000" unicode="&#x2565;" horiz-adv-x="512" 
 />
    <glyph glyph-name="SF410000" unicode="&#x2566;" horiz-adv-x="512" 
 />
    <glyph glyph-name="SF450000" unicode="&#x2567;" horiz-adv-x="512" 
 />
    <glyph glyph-name="SF460000" unicode="&#x2568;" horiz-adv-x="512" 
 />
    <glyph glyph-name="SF400000" unicode="&#x2569;" horiz-adv-x="512" 
 />
    <glyph glyph-name="SF540000" unicode="&#x256a;" horiz-adv-x="512" 
 />
    <glyph glyph-name="SF530000" unicode="&#x256b;" horiz-adv-x="512" 
 />
    <glyph glyph-name="SF440000" unicode="&#x256c;" horiz-adv-x="512" 
 />
    <glyph glyph-name="uni256D" unicode="&#x256d;" horiz-adv-x="512" 
 />
    <glyph glyph-name="uni256E" unicode="&#x256e;" horiz-adv-x="512" 
 />
    <glyph glyph-name="uni256F" unicode="&#x256f;" horiz-adv-x="512" 
 />
    <glyph glyph-name="uni2570" unicode="&#x2570;" horiz-adv-x="512" 
 />
    <glyph glyph-name="uni2571" unicode="&#x2571;" horiz-adv-x="512" 
 />
    <glyph glyph-name="uni2572" unicode="&#x2572;" horiz-adv-x="512" 
 />
    <glyph glyph-name="uni2573" unicode="&#x2573;" horiz-adv-x="512" 
 />
    <glyph glyph-name="uni2574" unicode="&#x2574;" horiz-adv-x="512" 
 />
    <glyph glyph-name="uni2575" unicode="&#x2575;" horiz-adv-x="512" 
 />
    <glyph glyph-name="uni2576" unicode="&#x2576;" horiz-adv-x="512" 
 />
    <glyph glyph-name="uni2577" unicode="&#x2577;" horiz-adv-x="512" 
 />
    <glyph glyph-name="uni2578" unicode="&#x2578;" horiz-adv-x="512" 
 />
    <glyph glyph-name="uni2579" unicode="&#x2579;" horiz-adv-x="512" 
 />
    <glyph glyph-name="uni257A" unicode="&#x257a;" horiz-adv-x="512" 
 />
    <glyph glyph-name="uni257B" unicode="&#x257b;" horiz-adv-x="512" 
 />
    <glyph glyph-name="uni257C" unicode="&#x257c;" horiz-adv-x="512" 
 />
    <glyph glyph-name="uni257D" unicode="&#x257d;" horiz-adv-x="512" 
 />
    <glyph glyph-name="uni257E" unicode="&#x257e;" horiz-adv-x="512" 
 />
    <glyph glyph-name="uni257F" unicode="&#x257f;" horiz-adv-x="512" 
 />
    <glyph glyph-name="upblock" unicode="&#x2580;" horiz-adv-x="512" 
 />
    <glyph glyph-name="uni2581" unicode="&#x2581;" horiz-adv-x="512" 
 />
    <glyph glyph-name="uni2582" unicode="&#x2582;" horiz-adv-x="512" 
 />
    <glyph glyph-name="uni2583" unicode="&#x2583;" horiz-adv-x="512" 
 />
    <glyph glyph-name="dnblock" unicode="&#x2584;" horiz-adv-x="512" 
 />
    <glyph glyph-name="uni2585" unicode="&#x2585;" horiz-adv-x="512" 
 />
    <glyph glyph-name="uni2586" unicode="&#x2586;" horiz-adv-x="512" 
 />
    <glyph glyph-name="uni2587" unicode="&#x2587;" horiz-adv-x="512" 
 />
    <glyph glyph-name="block" unicode="&#x2588;" horiz-adv-x="512" 
 />
    <glyph glyph-name="uni2589" unicode="&#x2589;" horiz-adv-x="512" 
 />
    <glyph glyph-name="uni258A" unicode="&#x258a;" horiz-adv-x="512" 
 />
    <glyph glyph-name="uni258B" unicode="&#x258b;" horiz-adv-x="512" 
 />
    <glyph glyph-name="lfblock" unicode="&#x258c;" horiz-adv-x="512" 
 />
    <glyph glyph-name="uni258D" unicode="&#x258d;" horiz-adv-x="512" 
 />
    <glyph glyph-name="uni258E" unicode="&#x258e;" horiz-adv-x="512" 
 />
    <glyph glyph-name="uni258F" unicode="&#x258f;" horiz-adv-x="512" 
 />
    <glyph glyph-name="rtblock" unicode="&#x2590;" horiz-adv-x="512" 
 />
    <glyph glyph-name="ltshade" unicode="&#x2591;" horiz-adv-x="512" 
 />
    <glyph glyph-name="shade" unicode="&#x2592;" horiz-adv-x="512" 
 />
    <glyph glyph-name="dkshade" unicode="&#x2593;" horiz-adv-x="512" 
 />
    <glyph glyph-name="uni2594" unicode="&#x2594;" horiz-adv-x="512" 
 />
    <glyph glyph-name="uni2595" unicode="&#x2595;" horiz-adv-x="512" 
 />
    <glyph glyph-name="filledbox" unicode="&#x25a0;" horiz-adv-x="892" 
d="M467 65q-70 5 -139.5 10.5t-134.5 27.5q-21 123 -24 254.5t-19 259.5l16 38l27 5l11 -37h225q80 -11 158 -22t158 -16l6 -27l-16 -16v-241l26 -188q-69 -26 -147 -29t-147 -19zM236 140v11h-11v-11l6 -5zM654 140l-16 6v-11h11zM713 140v16h-11l-10 -5v-11h21zM660 521
v21h-16v-21h16zM397 564l5 5l-27 5v-10l17 -6z" />
    <glyph glyph-name="H22073" unicode="&#x25a1;" horiz-adv-x="876" 
d="M689 76q-32 21 -77.5 24t-88.5 3q-75 -16 -155.5 -21.5t-166.5 -0.5l-32 38q0 134 -10.5 260t-10.5 260l16 21h21q134 -27 273.5 -29.5t279.5 -7.5l5 -27q-38 -86 -38 -190.5t-5 -206.5l16 -107zM662 151q-10 37 -10 80v86q5 64 7.5 134t19.5 129q-118 5 -236 7.5
t-236 8.5q-16 -22 -13.5 -48.5t2.5 -53.5q16 -86 16 -179.5t6 -185.5h176q54 11 105 16.5t110 5.5l48 -5z" />
    <glyph glyph-name="uni25A2" unicode="&#x25a2;" horiz-adv-x="512" 
 />
    <glyph glyph-name="uni25A3" unicode="&#x25a3;" horiz-adv-x="512" 
 />
    <glyph glyph-name="uni25A4" unicode="&#x25a4;" horiz-adv-x="512" 
 />
    <glyph glyph-name="uni25A5" unicode="&#x25a5;" horiz-adv-x="512" 
 />
    <glyph glyph-name="uni25A6" unicode="&#x25a6;" horiz-adv-x="512" 
 />
    <glyph glyph-name="uni25A7" unicode="&#x25a7;" horiz-adv-x="512" 
 />
    <glyph glyph-name="uni25A8" unicode="&#x25a8;" horiz-adv-x="512" 
 />
    <glyph glyph-name="uni25A9" unicode="&#x25a9;" horiz-adv-x="512" 
 />
    <glyph glyph-name="H18543" unicode="&#x25aa;" horiz-adv-x="512" 
 />
    <glyph glyph-name="H18551" unicode="&#x25ab;" horiz-adv-x="512" 
 />
    <glyph glyph-name="filledrect" unicode="&#x25ac;" horiz-adv-x="512" 
 />
    <glyph glyph-name="uni25AD" unicode="&#x25ad;" horiz-adv-x="512" 
 />
    <glyph glyph-name="uni25AE" unicode="&#x25ae;" horiz-adv-x="512" 
 />
    <glyph glyph-name="uni25AF" unicode="&#x25af;" horiz-adv-x="512" 
 />
    <glyph glyph-name="uni25B0" unicode="&#x25b0;" horiz-adv-x="512" 
 />
    <glyph glyph-name="uni25B1" unicode="&#x25b1;" horiz-adv-x="512" 
 />
    <glyph glyph-name="triagup" unicode="&#x25b2;" horiz-adv-x="876" 
d="M452 97q-21 11 -48 13.5t-54 2.5l-16 -5l-177 16l-11 27l16 48h11q48 113 107 220t129 209l27 5l32 -21q80 -102 147 -212t132 -217l27 -27v-27l-81 -32h-241zM221 162v10l6 16h-11l-5 -26h10zM693 167l6 5l-22 11v-21h11zM463 526v11l-16 5v-16h16z" />
    <glyph glyph-name="uni25B3" unicode="&#x25b3;" horiz-adv-x="884" 
d="M472 124q-32 11 -75 11h-81l-144 -6l-22 17v26q70 118 131.5 244t142.5 239l37 11q81 -129 150.5 -257.5t133.5 -262.5l-43 -22h-230zM686 172v11q-69 97 -117.5 201.5t-123.5 200.5l-16 5q-59 -101 -110 -205.5t-110 -206.5h102l134 5l27 -11h214z" />
    <glyph glyph-name="uni25B4" unicode="&#x25b4;" horiz-adv-x="512" 
 />
    <glyph glyph-name="uni25B5" unicode="&#x25b5;" horiz-adv-x="512" 
 />
    <glyph glyph-name="uni25B6" unicode="&#x25b6;" horiz-adv-x="512" 
 />
    <glyph glyph-name="uni25B7" unicode="&#x25b7;" horiz-adv-x="512" 
 />
    <glyph glyph-name="uni25B8" unicode="&#x25b8;" horiz-adv-x="512" 
 />
    <glyph glyph-name="uni25B9" unicode="&#x25b9;" horiz-adv-x="512" 
 />
    <glyph glyph-name="triagrt" unicode="&#x25ba;" horiz-adv-x="512" 
 />
    <glyph glyph-name="uni25BB" unicode="&#x25bb;" horiz-adv-x="512" 
 />
    <glyph glyph-name="triagdn" unicode="&#x25bc;" horiz-adv-x="904" 
d="M443 108q-22 54 -48.5 107.5t-42.5 106.5l-22 6q-21 91 -85.5 163.5t-101.5 157.5q10 11 23.5 11h24.5q139 -5 281 -16t276 -32l6 -38q-86 -112 -145 -232.5t-145 -233.5h-21z" />
    <glyph glyph-name="uni25BD" unicode="&#x25bd;" horiz-adv-x="880" 
d="M431 76q-22 11 -27 32t-11 43q-48 118 -109.5 228t-126.5 222l-16 6l-5 26l37 11q134 -32 276.5 -43t286.5 -21l6 -27q-81 -113 -140 -236t-144 -236zM452 156q65 91 113 190.5t102 195.5q-113 0 -223 11t-217 27v-16q70 -97 118 -201.5t91 -211.5h11z" />
    <glyph glyph-name="uni25BE" unicode="&#x25be;" horiz-adv-x="512" 
 />
    <glyph glyph-name="uni25BF" unicode="&#x25bf;" horiz-adv-x="512" 
 />
    <glyph glyph-name="uni25C0" unicode="&#x25c0;" horiz-adv-x="512" 
 />
    <glyph glyph-name="uni25C1" unicode="&#x25c1;" horiz-adv-x="512" 
 />
    <glyph glyph-name="uni25C2" unicode="&#x25c2;" horiz-adv-x="512" 
 />
    <glyph glyph-name="uni25C3" unicode="&#x25c3;" horiz-adv-x="512" 
 />
    <glyph glyph-name="triaglf" unicode="&#x25c4;" horiz-adv-x="512" 
 />
    <glyph glyph-name="uni25C5" unicode="&#x25c5;" horiz-adv-x="512" 
 />
    <glyph glyph-name="uni25C6" unicode="&#x25c6;" horiz-adv-x="892" 
d="M448 64q-70 75 -139.5 160.5t-150.5 160.5l-5 38l5 11q75 59 131.5 134t136.5 123h27l32 -27v-16l16 -5q11 -32 32.5 -56.5t48.5 -50.5l182 -129v-27q-59 -86 -136.5 -161t-158.5 -150zM442 139v16h-10v-16l5 -6zM394 267v17h-16v-11zM228 401v17h-11v-17l6 -5zM662 423
l-16 5v-10h11z" />
    <glyph glyph-name="uni25C7" unicode="&#x25c7;" horiz-adv-x="908" 
d="M445 60q-64 80 -141.5 155t-153.5 145v16l33 48h10v11q65 54 113 121t102 120h37q16 -37 48.5 -66.5t64.5 -61.5q54 -43 107.5 -83.5t101.5 -88.5v-21q-70 -81 -150.5 -148t-155.5 -142zM456 129q64 59 131 115.5t116 126.5l-16 5q-65 59 -134.5 112.5t-128.5 128.5h-16
q-38 -69 -94 -131t-105 -126q65 -48 124 -104.5t107 -120.5v-11h11z" />
    <glyph glyph-name="uni25C8" unicode="&#x25c8;" horiz-adv-x="512" 
 />
    <glyph glyph-name="uni25C9" unicode="&#x25c9;" horiz-adv-x="512" 
 />
    <glyph glyph-name="lozenge" unicode="&#x25ca;" horiz-adv-x="512" 
 />
    <glyph glyph-name="circle" unicode="&#x25cb;" horiz-adv-x="936" 
d="M408 28q-43 10 -88.5 21t-83.5 48q-43 54 -69.5 113t-26.5 134q0 64 34.5 115t72.5 99l129 70l5 21q27 17 59 19.5t64 2.5q54 -16 102 -43t86 -75q43 -59 77.5 -120.5t18.5 -147.5q-16 -48 -50.5 -88.5t-77.5 -77.5q-54 -49 -118.5 -70t-133.5 -21zM563 108
q54 32 99.5 80.5t77.5 101.5v107q-37 54 -77.5 110.5t-99.5 93.5l-80 22q-54 -22 -105 -43.5t-99 -58.5q-48 -48 -72 -107t-19 -129q11 -48 37.5 -91t64.5 -81q43 -16 85.5 -26.5t91.5 -10.5z" />
    <glyph glyph-name="uni25CC" unicode="&#x25cc;" horiz-adv-x="512" 
 />
    <glyph glyph-name="uni25CD" unicode="&#x25cd;" horiz-adv-x="512" 
 />
    <glyph glyph-name="uni25CE" unicode="&#x25ce;" horiz-adv-x="920" 
d="M437 34q-54 11 -99.5 43t-88.5 75q-43 59 -75 118t-21 140q5 64 37 115t75 99q48 32 99 67t116 24l10 -27q65 6 116 -15.5t88 -69.5q48 -75 72.5 -161t18.5 -183q-5 -37 -26.5 -66.5t-42.5 -56.5q-59 -48 -129 -77.5t-150 -24.5zM587 109q43 22 80.5 54t64.5 75l5 123
q-11 65 -35 129t-78 113q-43 42 -107 37t-118 16q-43 -27 -83 -59t-72 -75t-40.5 -91t-2.5 -102q21 -48 48 -93.5t70 -83.5q43 -37 91 -56t107 -13zM474 125q-37 6 -72 19.5t-67 34.5q-27 38 -54 75.5t-16 90.5q6 38 19 70t46 59q32 21 69.5 37.5t80.5 16.5q43 -27 88.5 -38
t82.5 -54q27 -32 37.5 -75t5.5 -91l-48 -70q-38 -26 -80.5 -50.5t-91.5 -24.5zM571 206l75 70v64q-6 27 -22 48.5t-37 42.5q-38 21 -80.5 29.5t-85.5 13.5l-91 -70l-17 -112q22 -27 40.5 -56.5t51.5 -45.5l101 -16z" />
    <glyph glyph-name="H18533" unicode="&#x25cf;" horiz-adv-x="908" 
d="M370 60q-43 10 -80.5 34.5t-69.5 61.5q-37 48 -56 102t-19 118q5 48 26.5 91t59.5 81q64 48 131 80t158 21q49 -5 89 -26.5t77 -58.5q49 -54 62.5 -123.5t7.5 -144.5q-16 -49 -48 -86.5t-70 -74.5q-59 -38 -123 -62t-145 -13zM247 215v11h-11v-11l6 -5zM542 381v33h-11
l-5 -33h16z" />
    <glyph glyph-name="uni25D0" unicode="&#x25d0;" horiz-adv-x="512" 
 />
    <glyph glyph-name="uni25D1" unicode="&#x25d1;" horiz-adv-x="512" 
 />
    <glyph glyph-name="uni25D2" unicode="&#x25d2;" horiz-adv-x="512" 
 />
    <glyph glyph-name="uni25D3" unicode="&#x25d3;" horiz-adv-x="512" 
 />
    <glyph glyph-name="uni25D4" unicode="&#x25d4;" horiz-adv-x="512" 
 />
    <glyph glyph-name="uni25D5" unicode="&#x25d5;" horiz-adv-x="512" 
 />
    <glyph glyph-name="uni25D6" unicode="&#x25d6;" horiz-adv-x="512" 
 />
    <glyph glyph-name="uni25D7" unicode="&#x25d7;" horiz-adv-x="512" 
 />
    </font>
</defs>
</svg>
